<svg width="71" height="38" viewBox="0 0 71 38" fill="none" xmlns="http://www.w3.org/2000/svg">
<path fill-rule="evenodd" clip-rule="evenodd" d="M27.5386 37.5V21.9526L12.9487 37.5H2.72903L17.7856 21.1038L5.84707 4.65308H0.5V0.5H12.3115L23.5083 15.2682L27.5386 10.9217V0.5H70.5639V4.65308H65.707V6.41372L46.3163 30.0923H65.056V37.5H27.5386ZM35.4471 31.1323L54.4548 7.9578H35.4471V31.1323ZM55.5116 7.4578L35.6161 31.7146V37H64.556V30.5923H45.2605L65.207 6.23511V4.15308H70.0639V1H28.0386V11.1179L23.4698 16.045L12.0631 1H1V4.15308H6.10201L18.4304 21.141L3.86702 37H12.7322L28.0386 20.6891V37H34.9471V4.15308H35.3157V7.4578H55.5116ZM28.5386 19.4256V36.5H34.4471V3.65308H35.8157V6.9578H56.4451V7.10801L36.1161 31.8934V36.5H64.056V31.0923H44.3278V30.9421L64.707 6.05651V3.65308H69.5639V1.5H28.5386V11.314L23.4313 16.8219L11.8147 1.5H1.5V3.65308H6.35694L19.0751 21.1781L5.00501 36.5H12.5157L28.5386 19.4256ZM12.2993 36L29.0386 18.1621V36H33.9471V3.15308H36.3157V6.4578H56.9451V7.28683L36.6161 32.0722V36H63.556V31.5923H43.8278V30.7635L64.207 5.8779V3.15308H69.0639V2H29.0386V11.5102L23.3929 17.5987L11.5664 2H2V3.15308H6.61187L19.7198 21.2152L6.14299 36H12.2993Z" fill="black"/>
</svg>
