<svg width="512" height="512" viewBox="0 0 512 512" fill="none" xmlns="http://www.w3.org/2000/svg">
  <path fill-rule="evenodd" clip-rule="evenodd" d="M280.262 446.902C280.21 446.955 280.217 446.942 280.279 446.885C280.273 446.891 280.268 446.897 280.262 446.902ZM306.465 406.763C325.733 377.755 344.487 348.446 362.951 318.944C351.603 333.629 340.459 348.484 329.282 363.384L328.293 364.704C327.496 365.765 326.7 366.827 325.903 367.889C320.171 378.537 314.652 389.264 309.512 400.193C308.489 402.367 307.471 404.558 306.465 406.763ZM423.632 245.969C385.835 308.038 347.548 369.857 306.841 430.285C305.579 432.159 303.772 435.097 301.702 438.481L301.274 439.182C299.365 442.304 297.301 445.679 295.436 448.58C293.574 451.476 291.484 454.588 289.813 456.3C289.416 456.708 288.574 457.537 287.408 458.145C286.816 458.455 285.634 458.979 284.07 458.98C282.226 458.982 280.348 458.243 278.968 456.74C277.792 455.458 277.39 454.069 277.235 453.328C277.068 452.528 277.054 451.823 277.067 451.35C277.092 450.406 277.253 449.478 277.417 448.717C279.49 439.038 282.632 429.408 286.255 420.081C285.068 421.449 283.629 422.862 281.861 424.063C281.701 424.171 281.366 424.394 280.938 424.609C280.734 424.712 280.313 424.913 279.756 425.075C279.41 425.176 277.912 425.612 276.073 425.1C274.985 424.797 273.742 424.146 272.74 422.95C272.129 422.221 271.745 421.453 271.511 420.744C268.185 424.747 265.08 428.834 262.327 433.099C260.314 436.215 256.17 437.108 253.07 435.092C249.971 433.076 249.09 428.915 251.102 425.799C256.059 418.123 262.19 410.809 268.456 403.866C268.553 403.706 268.672 403.517 268.789 403.331C269.337 402.462 270.412 400.803 271.689 398.861C272.014 398.367 272.355 397.849 272.708 397.316C274.824 393.848 276.855 390.257 278.932 386.558C279.126 386.212 279.321 385.866 279.516 385.518C280.458 383.84 281.412 382.139 282.386 380.431C280.957 381.889 279.546 383.328 278.149 384.753C268.768 394.322 260.019 403.247 250.631 413.201C249.719 414.169 248.839 415.156 247.887 416.226C247.681 416.457 247.472 416.691 247.259 416.93C246.103 418.224 244.845 419.617 243.49 420.975C243.486 420.981 243.429 421.045 243.252 421.247L243.246 421.254C243.067 421.458 242.686 421.893 242.244 422.31L242.222 422.33C241.935 422.603 240.807 423.671 239.112 424.2C238.07 424.526 236.347 424.79 234.444 424.033C232.501 423.26 231.385 421.828 230.816 420.731C229.258 417.732 230.006 414.888 230.391 413.71C230.608 413.045 230.864 412.46 231.015 412.12C231.081 411.971 231.13 411.863 231.167 411.78C231.241 411.614 231.268 411.554 231.296 411.481C232.947 407.274 234.83 403.215 236.775 399.3C245.484 381.766 252.504 370.004 262.81 352.828C282.736 319.618 303.425 286.821 325.058 254.658C324.872 253.917 324.805 253.173 324.837 252.469C324.914 250.832 325.507 249.563 325.744 249.074C325.991 248.565 326.29 248.061 326.415 247.85C326.43 247.825 326.442 247.805 326.451 247.788C326.473 247.752 326.49 247.721 326.505 247.696C327.645 244.9 328.889 242.163 330.207 239.488C344.127 211.222 360.49 184.276 376.841 157.81C376.841 157.81 376.856 157.785 376.897 157.718L377.043 157.472C377.165 157.265 377.324 156.996 377.522 156.659L377.526 156.652C377.92 155.983 378.454 155.075 379.108 153.973C380.421 151.76 382.217 148.758 384.359 145.27C388.635 138.307 394.318 129.353 400.304 120.836C406.223 112.412 412.687 104.055 418.524 98.5267C421.362 95.8387 424.608 93.2745 428.001 91.9969C429.768 91.3316 431.968 90.8647 434.347 91.2625C434.968 91.3664 435.565 91.5235 436.138 91.7293C441.855 84.487 447.761 77.3719 453.925 70.4464C455.209 69.004 457.195 66.5533 459.296 63.9622C460.415 62.5822 461.566 61.1623 462.66 59.8336C464.073 58.1186 465.578 56.3251 466.591 55.3321C466.802 55.1254 467.345 54.5952 468.044 54.1395L468.064 54.1266C468.298 53.9728 469.426 53.2325 471.042 53.0445C472.027 52.9298 473.704 52.9667 475.391 54.0264C477.146 55.1283 477.961 56.7344 478.294 57.9085C478.804 59.7107 478.411 61.2275 478.338 61.5054L478.332 61.5306C478.202 62.0464 478.036 62.4667 477.936 62.7083C477.724 63.2161 477.467 63.7152 477.242 64.1302C474.27 69.6107 471.393 75.1346 468.621 80.7062C470.214 78.3995 471.838 76.1217 473.496 73.8803C474.641 72.3338 475.842 70.9007 477.003 69.7421C477.581 69.1652 478.227 68.5786 478.917 68.0628C479.517 67.6141 480.558 66.9058 481.899 66.4947C483.187 66.1002 486.454 65.5537 489.136 68.1998C491.353 70.3867 491.352 73.12 491.323 73.9728C491.252 76.0532 490.452 78.3019 489.662 80.2067C483.81 94.3199 478.144 108.478 472.741 122.73C474.345 120.67 475.988 118.523 477.668 116.327C484.57 107.305 492.101 97.462 500.145 89.4734C500.327 89.2928 500.72 88.9149 501.263 88.5462C501.535 88.3615 502.032 88.0496 502.708 87.7939C503.33 87.5587 504.636 87.1663 506.28 87.4604C508.211 87.8058 509.782 88.9498 510.739 90.4341C511.548 91.6883 511.734 92.8847 511.791 93.4595C511.9 94.5721 511.704 95.4605 511.652 95.6973L511.651 95.7045C511.444 96.6451 511.007 97.648 510.85 98.0069L510.824 98.0667C510.705 98.3423 510.576 98.6314 510.462 98.889L510.456 98.9017C510.335 99.1747 510.226 99.4189 510.126 99.6496C509.93 100.1 509.864 100.276 509.864 100.276C509.864 100.276 509.867 100.265 509.873 100.245C509.567 101.276 509.269 102.313 508.969 103.36C507.926 107.002 506.847 110.766 505.241 114.837C494.47 142.141 478.766 167.957 461.75 191.622C458.595 196.529 455.211 201.311 451.78 205.961C451.752 206.28 451.711 206.562 451.671 206.798C451.292 208.993 450.303 210.983 449.449 212.457C448.542 214.025 447.453 215.568 446.438 216.933C445.496 218.198 444.683 219.242 443.989 220.134C442.957 221.458 442.186 222.448 441.64 223.336C436.596 231.53 430.182 239.194 423.632 245.969ZM445.82 157.793C446.029 157.188 446.239 156.585 446.449 155.983C446.15 156.712 445.848 157.44 445.544 158.165C445.636 158.041 445.728 157.917 445.82 157.793ZM453.602 134.555C453.567 135.295 453.462 136.008 453.32 136.675C455.022 131.944 456.756 127.228 458.517 122.525C457.705 123.932 456.893 125.342 456.08 126.754C455.925 127.022 455.77 127.291 455.616 127.56C455.621 127.616 455.626 127.671 455.63 127.726C455.773 129.663 455.177 131.317 454.776 132.264C454.456 133.017 454.056 133.784 453.602 134.555ZM434.498 125.243C437.232 118.414 440.016 111.608 442.881 104.853C442.242 105.681 441.605 106.51 440.969 107.341C440.937 107.42 440.905 107.499 440.872 107.577C440.017 109.631 438.876 111.874 437.644 114.095C437.602 114.452 437.548 114.721 437.526 114.831L437.522 114.847C437.461 115.154 437.386 115.46 437.32 115.719C437.186 116.241 437.006 116.884 436.816 117.553C436.086 120.13 435.312 122.693 434.498 125.243ZM270.4 366.208C266.522 372.698 263.121 378.467 259.839 384.301C262.754 381.316 265.686 378.325 268.672 375.28C270.195 373.726 271.732 372.158 273.288 370.57C271.409 369.342 270.665 367.528 270.4 366.208ZM268.712 403.517C268.712 403.517 268.725 403.498 268.746 403.469C268.721 403.505 268.712 403.517 268.712 403.517ZM429.209 100.407C429.219 100.215 429.246 100.182 429.215 100.374C429.213 100.384 429.211 100.396 429.209 100.407ZM475.931 64.9415C475.986 64.888 475.98 64.8977 475.924 64.9484L475.931 64.9415ZM486.896 78.8392C486.928 78.8159 486.922 78.8233 486.881 78.8515C486.888 78.8458 486.896 78.8392 486.896 78.8392Z" fill="#FFF6E5"/>
  <path fill-rule="evenodd" clip-rule="evenodd" d="M231.561 65.8701C231.613 65.817 231.606 65.8305 231.544 65.8873C231.55 65.8814 231.556 65.8757 231.561 65.8701ZM205.358 106.009C186.091 135.018 167.336 164.327 148.873 193.828C160.221 179.144 171.364 164.288 182.541 149.388L183.531 148.069C184.327 147.007 185.124 145.945 185.921 144.883C191.653 134.235 197.171 123.508 202.312 112.579C203.334 110.405 204.352 108.214 205.358 106.009ZM88.1914 266.803C125.988 204.734 164.275 142.916 204.982 82.4875C206.244 80.6138 208.051 77.6753 210.121 74.291L210.549 73.5903C212.458 70.4688 214.522 67.0934 216.387 64.1927C218.249 61.2967 220.339 58.1846 222.01 56.4721C222.407 56.0645 223.249 55.2355 224.415 54.627C225.007 54.3177 226.189 53.7939 227.753 53.7925C229.597 53.7908 231.475 54.5295 232.855 56.0326C234.031 57.3147 234.433 58.7036 234.588 59.4443C234.755 60.2448 234.769 60.9492 234.756 61.4221C234.731 62.3669 234.57 63.2942 234.407 64.0554C232.334 73.7346 229.191 83.3646 225.568 92.6916C226.755 91.3234 228.194 89.9108 229.962 88.7096C230.122 88.6011 230.458 88.3781 230.885 88.1632C231.089 88.0608 231.51 87.8598 232.067 87.6975C232.413 87.5967 233.911 87.1603 235.75 87.6726C236.839 87.9757 238.081 88.6262 239.083 89.822C239.695 90.5517 240.078 91.3194 240.312 92.0281C243.638 88.0255 246.743 83.9385 249.497 79.6738C251.509 76.5572 255.653 75.6649 258.753 77.6807C261.852 79.6965 262.733 83.8572 260.721 86.9737C255.764 94.6497 249.633 101.964 243.367 108.906C243.27 109.067 243.152 109.256 243.034 109.441C242.486 110.31 241.411 111.97 240.134 113.912C239.81 114.405 239.468 114.923 239.115 115.456C236.999 118.925 234.968 122.515 232.891 126.214C232.697 126.56 232.502 126.907 232.307 127.255C231.365 128.933 230.411 130.633 229.437 132.342C230.866 130.883 232.277 129.444 233.674 128.019C243.055 118.451 251.805 109.526 261.192 99.5715C262.105 98.6034 262.984 97.6161 263.937 96.5464C264.142 96.3157 264.351 96.0811 264.565 95.8421C265.72 94.5481 266.979 93.1555 268.333 91.7972C268.337 91.7915 268.394 91.7275 268.571 91.5254L268.577 91.5189C268.757 91.3141 269.137 90.8799 269.58 90.4624L269.601 90.442C269.889 90.1697 271.016 89.1019 272.711 88.5724C273.753 88.2469 275.476 87.982 277.38 88.7394C279.322 89.5123 280.438 90.9442 281.007 92.041C282.565 95.0405 281.817 97.8844 281.433 99.0621C281.215 99.7277 280.959 100.312 280.808 100.652C280.742 100.801 280.693 100.91 280.657 100.992C280.582 101.158 280.556 101.218 280.527 101.292C278.876 105.499 276.993 109.558 275.049 113.473C266.339 131.007 259.32 142.768 249.014 159.945C229.087 193.154 208.398 225.951 186.765 258.114C186.952 258.856 187.019 259.6 186.986 260.303C186.91 261.941 186.317 263.21 186.079 263.698C185.832 264.207 185.533 264.712 185.408 264.923C185.394 264.947 185.381 264.968 185.372 264.984C185.351 265.021 185.333 265.051 185.318 265.076C184.178 267.872 182.934 270.609 181.616 273.285C167.697 301.55 151.333 328.496 134.982 354.962C134.982 354.962 134.967 354.987 134.927 355.055L134.78 355.301C134.658 355.507 134.499 355.777 134.301 356.114L134.297 356.121C133.903 356.79 133.369 357.697 132.715 358.8C131.402 361.013 129.606 364.014 127.464 367.503C123.189 374.466 117.505 383.419 111.52 391.936C105.6 400.36 99.1364 408.718 93.2992 414.246C90.4609 416.934 87.2154 419.498 83.8222 420.776C82.0549 421.441 79.8551 421.908 77.4766 421.51C76.8557 421.406 76.2578 421.249 75.6855 421.043C69.9682 428.285 64.0619 435.401 57.8984 442.326C56.6146 443.768 54.628 446.219 52.5275 448.81C51.4087 450.19 50.2577 451.61 49.1633 452.939C47.7506 454.654 46.245 456.447 45.2324 457.44C45.0216 457.647 44.4785 458.177 43.779 458.633L43.7594 458.646C43.5252 458.8 42.3974 459.54 40.7816 459.728C39.7962 459.843 38.1197 459.806 36.432 458.746C34.6773 457.644 33.8618 456.038 33.5295 454.864C33.0195 453.062 33.4127 451.545 33.4848 451.267L33.4912 451.242C33.6215 450.726 33.7868 450.306 33.8874 450.064C34.0988 449.556 34.3564 449.057 34.5814 448.642C37.5529 443.162 40.4306 437.638 43.2018 432.066C41.6088 434.373 39.9853 436.651 38.3268 438.892C37.1826 440.439 35.9814 441.872 34.8201 443.03C34.2419 443.607 33.5961 444.194 32.9065 444.71C32.3064 445.158 31.2656 445.867 29.9239 446.278C28.6363 446.672 25.3692 447.219 22.687 444.573C20.4701 442.386 20.4717 439.652 20.5005 438.8C20.5708 436.719 21.3709 434.471 22.1607 432.566C28.0131 418.453 33.6795 404.295 39.0822 390.043C37.4783 392.103 35.8356 394.25 34.1557 396.446C27.2532 405.467 19.7226 415.31 11.6778 423.299C11.4958 423.48 11.1037 423.858 10.5605 424.226C10.2883 424.411 9.79118 424.723 9.11514 424.979C8.49325 425.214 7.18706 425.606 5.54284 425.312C3.61234 424.967 2.04102 423.823 1.08417 422.338C0.275647 421.084 0.0892453 419.888 0.0327344 419.313C-0.0766606 418.2 0.118863 417.312 0.170976 417.075L0.172547 417.068C0.379392 416.127 0.816613 415.124 0.973075 414.766L0.999116 414.706C1.11843 414.43 1.24703 414.141 1.36161 413.883L1.36725 413.871C1.48867 413.598 1.59725 413.354 1.69741 413.123C1.89306 412.672 1.95939 412.496 1.95939 412.496C1.95939 412.496 1.95665 412.507 1.95065 412.527C2.25661 411.496 2.55376 410.46 2.85381 409.413C3.8977 405.771 4.97653 402.007 6.58264 397.936C17.3536 370.631 33.0572 344.815 50.0732 321.151C53.2282 316.244 56.612 311.462 60.0436 306.811C60.0709 306.492 60.1118 306.21 60.1524 305.975C60.5314 303.779 61.5206 301.789 62.374 300.315C63.2812 298.748 64.3703 297.204 65.3852 295.84C66.3269 294.574 67.1398 293.531 67.8346 292.639C68.8661 291.314 69.6375 290.324 70.1837 289.437C75.227 281.242 81.6412 273.579 88.1914 266.803ZM66.0029 354.979C65.7937 355.584 65.584 356.187 65.3739 356.789C65.6731 356.06 65.9749 355.333 66.2789 354.607C66.1869 354.731 66.0949 354.855 66.0029 354.979ZM58.2215 378.218C58.2559 377.477 58.3612 376.764 58.5035 376.098C56.8012 380.828 55.0677 385.544 53.306 390.248C54.1181 388.841 54.9301 387.431 55.7435 386.019C55.8982 385.75 56.053 385.481 56.2077 385.213C56.2024 385.157 56.1977 385.101 56.1936 385.047C56.0502 383.109 56.6467 381.455 57.0475 380.509C57.3668 379.755 57.7672 378.989 58.2215 378.218ZM77.3257 387.529C74.5916 394.358 71.8069 401.165 68.9425 407.919C69.5816 407.092 70.2187 406.262 70.8538 405.431C70.8862 405.352 70.9187 405.273 70.9512 405.195C71.806 403.142 72.947 400.898 74.1791 398.677C74.221 398.32 74.2753 398.052 74.2977 397.941L74.3009 397.925C74.3627 397.619 74.4371 397.313 74.5034 397.054C74.6369 396.531 74.8173 395.889 75.0072 395.219C75.7377 392.642 76.5115 390.079 77.3257 387.529ZM241.423 146.565C245.301 140.074 248.702 134.305 251.984 128.471C249.069 131.457 246.137 134.447 243.151 137.493C241.628 139.046 240.091 140.614 238.536 142.203C240.414 143.431 241.158 145.244 241.423 146.565ZM243.112 109.255C243.112 109.255 243.098 109.275 243.077 109.303C243.102 109.268 243.112 109.255 243.112 109.255ZM82.6145 412.365C82.6043 412.557 82.5777 412.59 82.6087 412.398C82.6103 412.388 82.6123 412.377 82.6145 412.365ZM35.8919 447.831C35.8374 447.884 35.843 447.875 35.899 447.824L35.8919 447.831ZM24.9269 433.933C24.8957 433.957 24.9017 433.949 24.9427 433.921C24.9355 433.927 24.9269 433.933 24.9269 433.933Z" fill="#FFF6E5"/>
</svg>
