<svg width="300" height="64" viewBox="0 0 300 64" fill="none" xmlns="http://www.w3.org/2000/svg">
<path fill-rule="evenodd" clip-rule="evenodd" d="M277.071 3.13147C275.228 4.97526 275.228 7.96463 277.071 9.80842C278.915 11.6522 281.905 11.6522 283.748 9.80842C285.592 7.96463 285.592 4.97526 283.748 3.13147C281.905 1.28769 278.915 1.28769 277.071 3.13147ZM284.985 1.895C282.458 -0.631668 278.362 -0.631668 275.835 1.895C273.308 4.42167 273.308 8.51822 275.835 11.0449C278.362 13.5716 282.458 13.5716 284.985 11.0449C287.511 8.51822 287.511 4.42167 284.985 1.895Z" fill="url(#paint0_linear_1316_85)"/>
<path fill-rule="evenodd" clip-rule="evenodd" d="M262.749 20.2233V31.6503C262.749 34.2578 264.862 36.3716 267.47 36.3716C270.077 36.3716 272.191 34.2578 272.191 31.6503C272.191 27.1113 275.871 23.4317 280.41 23.4317C284.949 23.4317 288.628 27.1113 288.628 31.6503V38.1202C288.628 46.2325 282.052 52.8087 273.94 52.8087H267.47C264.862 52.8087 262.749 54.9225 262.749 57.5301C262.749 60.1376 264.862 62.2514 267.47 62.2514H280.41C290.164 62.2514 298.071 54.3442 298.071 44.5902V20.2233C298.071 16.7802 295.28 13.9891 291.837 13.9891C290.187 13.9891 288.589 14.6548 287.417 15.8267C283.563 19.6808 277.257 19.6808 273.403 15.8267C272.231 14.6548 270.632 13.9891 268.983 13.9891C265.54 13.9891 262.749 16.7802 262.749 20.2233ZM268.983 12.2404C271.1 12.2404 273.142 13.0931 274.639 14.5902C277.81 17.7614 283.009 17.7614 286.18 14.5902C287.678 13.0931 289.72 12.2404 291.837 12.2404C296.246 12.2404 299.82 15.8145 299.82 20.2233V44.5902C299.82 55.3099 291.13 64 280.41 64H267.47C263.897 64 261 61.1033 261 57.5301C261 53.9568 263.897 51.0601 267.47 51.0601H273.94C281.086 51.0601 286.88 45.2667 286.88 38.1202V31.6503C286.88 28.077 283.983 25.1803 280.41 25.1803C276.837 25.1803 273.94 28.077 273.94 31.6503C273.94 35.2235 271.043 38.1202 267.47 38.1202C263.897 38.1202 261 35.2235 261 31.6503V20.2233C261 15.8145 264.574 12.2404 268.983 12.2404Z" fill="url(#paint1_linear_1316_85)"/>
<path fill-rule="evenodd" clip-rule="evenodd" d="M194.103 55.3269C195.457 55.3269 196.554 56.4245 196.554 57.7784V59.6634C196.554 62.0584 194.613 64 192.218 64H140.909C140.199 64 139.624 63.4249 139.624 62.7155C139.624 62.006 140.199 61.4309 140.909 61.4309H192.218C193.194 61.4309 193.985 60.6396 193.985 59.6634C193.985 58.6873 193.194 57.8959 192.218 57.8959H187.44C186.234 57.8959 185.634 56.2555 186.404 55.3269C188.773 52.4725 189.957 48.917 189.957 44.6602C189.957 40.0017 188.45 36.3845 185.435 33.8086C182.476 31.2327 178.037 29.2323 172.117 27.8073C166.253 26.3824 162.417 25.067 160.608 23.8613C158.8 22.6007 157.895 20.8195 157.895 18.5177C157.895 16.161 158.8 14.4072 160.608 13.2563C162.417 12.1053 164.719 11.5299 167.514 11.5299C170.364 11.5299 173.241 12.0231 176.146 13.0096C178.011 13.6431 179.628 14.3895 180.996 15.2489C182.155 15.9772 183.747 15.8084 184.538 14.6909L185.896 12.7725C187.214 10.9106 186.893 8.3143 184.937 7.14068C183.095 6.03547 181.069 5.11446 178.859 4.37765C175.241 3.17191 171.597 2.56904 167.925 2.56904C162.225 2.56904 157.429 4.02141 153.538 6.92614C153.087 7.26096 152.663 7.61281 152.265 7.98167C152.246 7.96769 152.227 7.95374 152.207 7.93981C151.153 7.18157 150.961 5.6408 152.003 4.866C156.412 1.57592 161.772 0 167.925 0C171.883 0 175.802 0.650768 179.671 1.94044C183.558 3.23601 186.972 5.08172 189.875 7.50104C190.905 8.35918 191.102 9.86484 190.327 10.9589L185.148 18.2756C184.259 19.532 182.472 19.7296 181.329 18.6978C179.962 17.4629 178 16.3524 175.32 15.4422C172.661 14.5391 170.062 14.0989 167.514 14.0989C165.061 14.0989 163.276 14.6037 161.987 15.4237C161.003 16.0498 160.464 16.9355 160.464 18.5177C160.464 20.0131 160.986 20.9848 162.055 21.7381C162.685 22.1529 163.84 22.6928 165.675 23.3219C167.492 23.9448 169.834 24.6087 172.722 25.3104C178.835 26.7823 183.717 28.9111 187.113 31.8625C190.794 35.013 192.526 39.3995 192.526 44.6602C192.526 47.0298 192.194 49.2367 191.528 51.2648C190.921 53.112 192.158 55.3269 194.103 55.3269ZM147.959 16.5041C146.864 15.6643 145.347 16.3283 145.26 17.7051C145.23 18.1873 145.214 18.6775 145.214 19.1753C145.214 25.061 147.123 29.8563 151.297 33.037C153.204 34.5694 155.365 35.8101 157.763 36.7694L157.789 36.7797L157.815 36.7895C160.149 37.6647 163.47 38.6247 167.72 39.6734L167.736 39.6772L167.751 39.6808C171.913 40.6537 174.432 41.6844 175.684 42.613L175.721 42.6405L175.759 42.6668C176.771 43.3623 177.276 44.2719 177.276 45.729C177.276 47.0507 176.777 48.0824 175.534 48.9986C174.308 49.8881 172.438 50.4765 169.651 50.4765C164.156 50.4765 158.704 48.2762 153.249 43.5421L150.931 40.8786L148.641 44.1143C147.715 45.4239 148.97 46.6618 150.141 45.5645L150.306 45.3907C150.649 45.0298 151.221 45.0224 151.574 45.3744C152.029 45.7695 152.477 46.2571 152.935 46.6212C158.321 50.9041 163.893 53.0456 169.651 53.0456C172.775 53.0456 175.241 52.3879 177.05 51.0726C178.913 49.7024 179.845 47.9212 179.845 45.729C179.845 43.4819 178.968 41.7555 177.214 40.5498C175.516 39.2892 172.556 38.1657 168.336 37.1792C164.116 36.1379 160.91 35.2062 158.717 34.3841C156.525 33.5072 154.58 32.3836 152.881 31.0135C149.483 28.4376 147.784 24.4915 147.784 19.1753C147.784 18.2474 147.842 17.3569 147.959 16.5041Z" fill="url(#paint2_linear_1316_85)"/>
<path fill-rule="evenodd" clip-rule="evenodd" d="M162.821 62.7155C162.821 62.006 162.246 61.4309 161.537 61.4309H98.4617C97.7523 61.4309 97.1772 62.006 97.1772 62.7155C97.1772 63.4249 97.7523 64 98.4617 64H161.537C162.246 64 162.821 63.4249 162.821 62.7155ZM103.623 32.4377C103.613 34.7457 101.452 34.6368 101.452 32.3288C101.452 30.0171 103.614 29.9179 103.623 32.2297C103.623 32.2627 103.623 32.2958 103.623 32.3288C103.623 32.3652 103.623 32.4015 103.623 32.4377ZM153.538 6.92614C153.936 6.62891 153.953 6.02769 153.548 5.74013C148.167 1.92189 141.912 0 134.85 0C125.365 0 117.332 3.06858 110.945 9.27656L110.936 9.28501C110.2 10.007 109.507 10.7498 108.857 11.5132C107.82 12.7304 107.915 14.4939 108.808 15.8199C109.923 14.1611 111.232 12.5941 112.735 11.1188C118.6 5.41897 125.971 2.56904 134.85 2.56904C141.467 2.56904 147.272 4.37325 152.265 7.98167C152.663 7.61281 153.087 7.26096 153.538 6.92614ZM150.306 45.3907C150.649 45.0298 151.221 45.0224 151.574 45.3744C152.96 46.5782 154.275 45.1598 153.145 43.7125L150.931 40.8786L148.383 43.6903C145.892 46.0265 143.593 47.6552 141.493 48.6613C139.494 49.5653 137.004 50.0655 133.945 50.0655C129.279 50.0655 125.266 48.4065 121.786 44.9809C118.402 41.5431 116.702 37.3285 116.702 32.1644C116.702 26.9436 118.428 22.8452 121.816 19.6455L121.823 19.6391L121.829 19.6326C125.265 16.3401 129.492 14.6744 134.685 14.6744C137.709 14.6744 140.197 15.1537 142.217 16.0258L142.226 16.03L142.236 16.034C143.81 16.6987 145.533 17.7846 147.404 19.3529C147.553 19.4779 147.784 19.37 147.784 19.1753C147.784 18.2474 147.842 17.3569 147.959 16.5041C146.332 15.2557 144.757 14.3101 143.235 13.6673C140.824 12.626 137.974 12.1053 134.685 12.1053C128.876 12.1053 123.998 13.9961 120.052 17.7778C116.106 21.5046 114.133 26.3001 114.133 32.1644C114.133 37.9739 116.079 42.8516 119.97 46.7977C123.916 50.6889 128.574 52.6345 133.945 52.6345C137.289 52.6345 140.166 52.0865 142.577 50.9904C144.989 49.8394 147.51 48.0308 150.141 45.5645L150.306 45.3907Z" fill="url(#paint3_linear_1316_85)"/>
<path fill-rule="evenodd" clip-rule="evenodd" d="M120.414 62.7155C120.414 62.006 119.839 61.4309 119.13 61.4309H47.5049C46.7954 61.4309 46.2203 62.006 46.2203 62.7155C46.2203 63.4249 46.7954 64 47.5049 64H119.13C119.839 64 120.414 63.4249 120.414 62.7155ZM97.704 17.5311C93.8127 13.4755 89.0172 11.4477 83.3173 11.4477C77.6175 11.4477 72.7945 13.4755 68.8485 17.5311C64.9572 21.5868 63.0116 26.5194 63.0116 32.3288C63.0116 38.0835 64.9572 42.9886 68.8485 47.0443C72.7945 51.1 77.6175 53.1278 83.3173 53.1278C89.0172 53.1278 93.8127 51.1 97.704 47.0443C101.65 42.9886 103.623 38.0835 103.623 32.3288C103.623 26.5194 101.65 21.5868 97.704 17.5311ZM70.6961 45.2592C74.1532 48.8094 78.3084 50.5588 83.3173 50.5588C88.3285 50.5588 92.4511 48.8084 95.8502 45.2657L95.8626 45.2527C99.3333 41.6857 101.054 37.427 101.054 32.3288C101.054 27.1686 99.3284 22.8847 95.8627 19.3227L95.8501 19.3098C92.4511 15.7671 88.3285 14.0167 83.3173 14.0167C78.3083 14.0167 74.1531 15.7661 70.6959 19.3164C67.2847 22.8748 65.5806 27.1608 65.5806 32.3288C65.5806 37.4351 67.28 41.6958 70.6961 45.2592ZM108.808 15.8199C109.7 14.4922 109.791 12.7278 108.75 11.5132C108.094 10.7478 107.395 10.0036 106.651 9.28107C100.336 3.08684 92.5003 0 83.3173 0C74.1343 0 66.2986 3.08685 59.9833 9.28107C59.218 10.025 58.4991 10.7917 57.8264 11.5811C56.7974 12.7887 56.9142 14.5414 57.8018 15.8564C58.9269 14.1808 60.2525 12.6016 61.7785 11.1188C67.5879 5.41897 74.7675 2.56904 83.3173 2.56904C91.8671 2.56904 99.0467 5.41897 104.856 11.1188C106.371 12.5908 107.688 14.1579 108.808 15.8199ZM52.5524 32.6577C52.5524 34.9049 50.5191 34.8663 50.497 32.6191C50.4958 32.4952 50.4952 32.371 50.4952 32.2466C50.4952 30.0109 52.5228 30.0111 52.5499 32.2466C52.5516 32.3829 52.5524 32.5199 52.5524 32.6577ZM114.133 32.1644C114.133 29.9772 116.139 30.0594 116.139 32.2466C116.139 34.3846 114.147 34.4674 114.133 32.3294C114.133 32.3018 114.133 32.2742 114.133 32.2466C114.133 32.2192 114.133 32.1918 114.133 32.1644Z" fill="url(#paint4_linear_1316_85)"/>
<path fill-rule="evenodd" clip-rule="evenodd" d="M69.4258 62.7155C69.4258 62.0061 68.8507 61.431 68.1413 61.431H4.33654C3.36038 61.431 2.56904 60.6396 2.56904 59.6635C2.56904 58.6873 3.36038 57.896 4.33654 57.896H6.5562C8.75824 57.896 10.5434 56.1108 10.5434 53.9088V14.9666C10.5434 8.89149 15.4682 3.96662 21.5434 3.96662H30.2736C40.5772 3.96662 48.4967 6.48771 54.0321 11.5299C55.4773 12.832 56.7339 14.2742 57.8018 15.8564C58.6911 14.532 58.7805 12.7662 57.7127 11.5808C57.1009 10.9017 56.4491 10.2498 55.7568 9.6258C49.5956 4.01668 40.9716 1.39758 30.2736 1.39758H18.9743C12.8992 1.39758 7.97431 6.32244 7.97431 12.3976V51.3398C7.97431 53.5418 6.1892 55.3269 3.98715 55.3269C1.78511 55.3269 0 57.112 0 59.3141V59.6635C0 62.0585 1.94154 64 4.33654 64H68.1413C68.8507 64 69.4258 63.4249 69.4258 62.7155ZM64.9037 32.4164C64.8931 30.3501 63.0116 30.2626 63.0116 32.3288C63.0116 32.4388 63.0123 32.5484 63.0137 32.6577C63.0142 32.6964 63.0148 32.735 63.0154 32.7736C63.0508 34.781 64.9043 34.6653 64.9043 32.6577C64.9043 32.5771 64.9041 32.4967 64.9037 32.4164ZM45.2112 19.7956C42.0986 17.0791 37.164 15.4965 29.9448 15.4965C26.0061 15.4965 22.8131 18.6894 22.8131 22.6281V41.5363C22.8131 46.0652 26.4845 49.7367 31.0135 49.7367C37.6008 49.7367 42.2102 48.18 45.2482 45.4593C48.2825 42.7365 49.9833 38.6203 49.9833 32.6577C49.9833 26.5748 48.257 22.4537 45.2112 19.7956ZM46.9621 47.3732C43.2901 50.6615 37.9739 52.3057 31.0135 52.3057C25.0657 52.3057 20.2441 47.4841 20.2441 41.5363V22.6281C20.2441 17.2706 24.5872 12.9274 29.9448 12.9274C45.0165 12.9274 52.5524 19.5042 52.5524 32.6577C52.5524 39.1248 50.6889 44.03 46.9621 47.3732Z" fill="url(#paint5_linear_1316_85)"/>
<path fill-rule="evenodd" clip-rule="evenodd" d="M229 38C232.314 38 235 35.3137 235 32C235 28.6863 232.314 26 229 26C225.686 26 223 28.6863 223 32C223 35.3137 225.686 38 229 38ZM229 40C233.418 40 237 36.4183 237 32C237 27.5817 233.418 24 229 24C224.582 24 221 27.5817 221 32C221 36.4183 224.582 40 229 40Z" fill="url(#paint6_linear_1316_85)"/>
<defs>
<linearGradient id="paint0_linear_1316_85" x1="0.403345" y1="32" x2="299.416" y2="32" gradientUnits="userSpaceOnUse">
<stop stop-color="#2CBDEE"/>
<stop offset="1" stop-color="#C53156"/>
</linearGradient>
<linearGradient id="paint1_linear_1316_85" x1="0.403345" y1="32" x2="299.416" y2="32" gradientUnits="userSpaceOnUse">
<stop stop-color="#2CBDEE"/>
<stop offset="1" stop-color="#C53156"/>
</linearGradient>
<linearGradient id="paint2_linear_1316_85" x1="0.403345" y1="32" x2="299.416" y2="32" gradientUnits="userSpaceOnUse">
<stop stop-color="#2CBDEE"/>
<stop offset="1" stop-color="#C53156"/>
</linearGradient>
<linearGradient id="paint3_linear_1316_85" x1="0.403345" y1="32" x2="299.416" y2="32" gradientUnits="userSpaceOnUse">
<stop stop-color="#2CBDEE"/>
<stop offset="1" stop-color="#C53156"/>
</linearGradient>
<linearGradient id="paint4_linear_1316_85" x1="0.403345" y1="32" x2="299.416" y2="32" gradientUnits="userSpaceOnUse">
<stop stop-color="#2CBDEE"/>
<stop offset="1" stop-color="#C53156"/>
</linearGradient>
<linearGradient id="paint5_linear_1316_85" x1="0.403345" y1="32" x2="299.416" y2="32" gradientUnits="userSpaceOnUse">
<stop stop-color="#2CBDEE"/>
<stop offset="1" stop-color="#C53156"/>
</linearGradient>
<linearGradient id="paint6_linear_1316_85" x1="0.403345" y1="32" x2="299.416" y2="32" gradientUnits="userSpaceOnUse">
<stop stop-color="#2CBDEE"/>
<stop offset="1" stop-color="#C53156"/>
</linearGradient>
</defs>
</svg>
