<svg width="156" height="256" viewBox="0 0 156 256" fill="none" xmlns="http://www.w3.org/2000/svg">
<path fill-rule="evenodd" clip-rule="evenodd" d="M64.2855 12.5259C56.9103 19.901 56.9103 31.8585 64.2855 39.2337C71.6606 46.6088 83.6181 46.6088 90.9932 39.2337C98.3684 31.8585 98.3684 19.901 90.9932 12.5259C83.6181 5.15075 71.6606 5.15075 64.2855 12.5259ZM95.9391 7.58001C85.8324 -2.52667 69.4463 -2.52667 59.3396 7.58001C49.2329 17.6867 49.2329 34.0729 59.3396 44.1795C69.4463 54.2862 85.8324 54.2862 95.9391 44.1795C106.046 34.0729 106.046 17.6867 95.9391 7.58001Z" fill="url(#paint0_linear_1288_89)"/>
<path fill-rule="evenodd" clip-rule="evenodd" d="M6.99454 80.8931V126.601C6.99454 137.031 15.4497 145.486 25.8798 145.486C36.3098 145.486 44.765 137.031 44.765 126.601C44.765 108.445 59.4834 93.7268 77.6393 93.7268C95.7953 93.7268 110.514 108.445 110.514 126.601V152.481C110.514 184.93 84.2085 211.235 51.7596 211.235H25.8798C15.4497 211.235 6.99454 219.69 6.99454 230.12C6.99454 240.55 15.4497 249.005 25.8798 249.005H77.6393C116.655 249.005 148.284 217.377 148.284 178.361V80.8931C148.284 67.1209 137.12 55.9563 123.347 55.9563C116.749 55.9563 110.355 58.6194 105.668 63.3067C90.2514 78.7231 65.0273 78.7231 49.6109 63.3067C44.9235 58.6194 38.5297 55.9563 31.9313 55.9563C18.1591 55.9563 6.99454 67.1209 6.99454 80.8931ZM31.9313 48.9617C40.4 48.9617 48.5685 52.3726 54.5568 58.3609C67.2417 71.0457 88.037 71.0457 100.722 58.3609C106.71 52.3726 114.879 48.9617 123.347 48.9617C140.983 48.9617 155.279 63.2579 155.279 80.8931V178.361C155.279 221.24 120.518 256 77.6393 256H25.8798C11.5868 256 0 244.413 0 230.12C0 215.827 11.5868 204.24 25.8798 204.24H51.7596C80.3456 204.24 103.519 181.067 103.519 152.481V126.601C103.519 112.308 91.9324 100.721 77.6393 100.721C63.3463 100.721 51.7596 112.308 51.7596 126.601C51.7596 140.894 40.1728 152.481 25.8798 152.481C11.5868 152.481 0 140.894 0 126.601V80.8931C0 63.2579 14.2961 48.9617 31.9313 48.9617Z" fill="url(#paint1_linear_1288_89)"/>
<defs>
<linearGradient id="paint0_linear_1288_89" x1="0.208895" y1="128" x2="155.07" y2="128" gradientUnits="userSpaceOnUse">
<stop stop-color="#2CBDEE"/>
<stop offset="1" stop-color="#C53156"/>
</linearGradient>
<linearGradient id="paint1_linear_1288_89" x1="0.208895" y1="128" x2="155.07" y2="128" gradientUnits="userSpaceOnUse">
<stop stop-color="#2CBDEE"/>
<stop offset="1" stop-color="#C53156"/>
</linearGradient>
</defs>
</svg>
