<svg width="41" height="64" viewBox="0 0 41 64" fill="none" xmlns="http://www.w3.org/2000/svg">
<path fill-rule="evenodd" clip-rule="evenodd" d="M14.5519 2.28244C17.5951 -0.760814 22.5292 -0.760814 25.5725 2.28244C28.6157 5.3257 28.6157 10.2598 25.5725 13.303C22.5292 16.3463 17.5951 16.3463 14.5519 13.303C11.5086 10.2598 11.5086 5.3257 14.5519 2.28244ZM23.2277 4.62725C21.4794 2.879 18.6449 2.879 16.8967 4.62725C15.1484 6.37551 15.1484 9.20999 16.8967 10.9582C18.6449 12.7065 21.4794 12.7065 23.2277 10.9582C24.9759 9.20999 24.9759 6.37551 23.2277 4.62725Z" fill="url(#paint0_linear_1302_47)"/>
<path fill-rule="evenodd" clip-rule="evenodd" d="M0 20.8335C0 15.7374 4.13118 11.6062 9.22724 11.6062C11.6781 11.6062 14.0351 12.592 15.7629 14.3199C18.1223 16.6793 22.002 16.6793 24.3614 14.3199C26.0893 12.592 28.4463 11.6062 30.8971 11.6062C35.9932 11.6062 40.1244 15.7374 40.1244 20.8335V43.9378C40.1244 55.0179 31.1422 64 20.0622 64H7.79275C3.48893 64 0 60.5111 0 56.2073C0 51.9034 3.48893 48.4145 7.79275 48.4145H13.9275C19.788 48.4145 24.5389 43.6636 24.5389 37.8031V31.6684C24.5389 29.196 22.5346 27.1917 20.0622 27.1917C17.5898 27.1917 15.5855 29.196 15.5855 31.6684C15.5855 35.9722 12.0966 39.4611 7.79275 39.4611C3.48893 39.4611 0 35.9722 0 31.6684V20.8335ZM9.22724 14.9223C5.96259 14.9223 3.31606 17.5688 3.31606 20.8335V31.6684C3.31606 34.1408 5.32034 36.1451 7.79275 36.1451C10.2651 36.1451 12.2694 34.1408 12.2694 31.6684C12.2694 27.3646 15.7584 23.8756 20.0622 23.8756C24.366 23.8756 27.8549 27.3646 27.8549 31.6684V37.8031C27.8549 45.495 21.6194 51.7306 13.9275 51.7306H7.79275C5.32034 51.7306 3.31606 53.7348 3.31606 56.2073C3.31606 58.6797 5.32034 60.6839 7.79275 60.6839H20.0622C29.3108 60.6839 36.8083 53.1864 36.8083 43.9378V20.8335C36.8083 17.5688 34.1618 14.9223 30.8971 14.9223C29.333 14.9223 27.8173 15.5536 26.7062 16.6647C23.0518 20.3191 17.0725 20.3191 13.4181 16.6647C12.307 15.5536 10.7914 14.9223 9.22724 14.9223Z" fill="url(#paint1_linear_1302_47)"/>
<defs>
<linearGradient id="paint0_linear_1302_47" x1="0.0539789" y1="32" x2="40.0704" y2="32" gradientUnits="userSpaceOnUse">
<stop stop-color="#2CBDEE"/>
<stop offset="1" stop-color="#C53156"/>
</linearGradient>
<linearGradient id="paint1_linear_1302_47" x1="0.0539789" y1="32" x2="40.0704" y2="32" gradientUnits="userSpaceOnUse">
<stop stop-color="#2CBDEE"/>
<stop offset="1" stop-color="#C53156"/>
</linearGradient>
</defs>
</svg>
