<svg width="256" height="256" viewBox="0 0 256 256" fill="none" xmlns="http://www.w3.org/2000/svg">
<path fill-rule="evenodd" clip-rule="evenodd" d="M128 251C195.931 251 251 195.931 251 128C251 60.069 195.931 5 128 5C60.069 5 5 60.069 5 128C5 195.931 60.069 251 128 251ZM128 256C198.692 256 256 198.692 256 128C256 57.3076 198.692 0 128 0C57.3076 0 0 57.3076 0 128C0 198.692 57.3076 256 128 256Z" fill="url(#paint0_linear_1295_106)"/>
<path fill-rule="evenodd" clip-rule="evenodd" d="M118.954 45.9541C113.682 51.2261 113.682 59.7739 118.954 65.0459C124.226 70.318 132.774 70.318 138.046 65.0459C143.318 59.7739 143.318 51.2261 138.046 45.9541C132.774 40.682 124.226 40.682 118.954 45.9541ZM141.581 42.4185C134.357 35.1938 122.643 35.1938 115.419 42.4185C108.194 49.6432 108.194 61.3568 115.419 68.5815C122.643 75.8062 134.357 75.8062 141.581 68.5815C148.806 61.3568 148.806 49.6432 141.581 42.4185Z" fill="url(#paint1_linear_1295_106)"/>
<path fill-rule="evenodd" clip-rule="evenodd" d="M78 94.8259V127.5C78 134.956 84.0442 141 91.5 141C98.9558 141 105 134.956 105 127.5C105 114.521 115.521 104 128.5 104C141.479 104 152 114.521 152 127.5V146C152 169.196 133.196 188 110 188H91.5C84.0442 188 78 194.044 78 201.5C78 208.956 84.0442 215 91.5 215H128.5C156.39 215 179 192.39 179 164.5V94.8259C179 84.9809 171.019 77 161.174 77C156.457 77 151.887 78.9037 148.536 82.2544C137.516 93.2747 119.484 93.2747 108.464 82.2544C105.113 78.9037 100.543 77 95.8259 77C85.9809 77 78 84.9809 78 94.8259ZM95.8259 72C101.88 72 107.719 74.4382 112 78.7189C121.067 87.7866 135.933 87.7866 145 78.7189C149.281 74.4382 155.12 72 161.174 72C173.781 72 184 82.2195 184 94.8259V164.5C184 195.152 159.152 220 128.5 220H91.5C81.2827 220 73 211.717 73 201.5C73 191.283 81.2827 183 91.5 183H110C130.435 183 147 166.435 147 146V127.5C147 117.283 138.717 109 128.5 109C118.283 109 110 117.283 110 127.5C110 137.717 101.717 146 91.5 146C81.2827 146 73 137.717 73 127.5V94.8259C73 82.2195 83.2195 72 95.8259 72Z" fill="url(#paint2_linear_1295_106)"/>
<defs>
<linearGradient id="paint0_linear_1295_106" x1="0.344395" y1="128" x2="255.656" y2="128" gradientUnits="userSpaceOnUse">
<stop stop-color="#2CBDEE"/>
<stop offset="1" stop-color="#C53156"/>
</linearGradient>
<linearGradient id="paint1_linear_1295_106" x1="0.344395" y1="128" x2="255.656" y2="128" gradientUnits="userSpaceOnUse">
<stop stop-color="#2CBDEE"/>
<stop offset="1" stop-color="#C53156"/>
</linearGradient>
<linearGradient id="paint2_linear_1295_106" x1="0.344395" y1="128" x2="255.656" y2="128" gradientUnits="userSpaceOnUse">
<stop stop-color="#2CBDEE"/>
<stop offset="1" stop-color="#C53156"/>
</linearGradient>
</defs>
</svg>
