<svg width="173" height="70" viewBox="0 0 173 70" fill="none" xmlns="http://www.w3.org/2000/svg">
<path d="M115.267 67.9156L148.565 24.7084V67V68.5H150.065H169.603H171.103V67V63.063V61.563H169.603H162.288V3V1.5H160.788H150.065H149.328L148.878 2.0834L114.67 46.3962V3V1.5H113.17H102.447H100.947V3V61.563H93.1374V3V1.5H91.6374H68.5553H67.0553V3V12.6137V14.1137H68.5553H79.9594V61.563H58.527V3V1.5H57.027H33.9449H32.4449V3V12.6137V14.1137H33.9449H45.3491V61.563H24.038V3V1.5H22.538H11.8148H10.3148V3V61.563H3H1.5V63.063V67V68.5H3H114.079H114.817L115.267 67.9156Z" stroke="url(#paint0_linear_1313_62)" stroke-width="3"/>
<defs>
<linearGradient id="paint0_linear_1313_62" x1="3.22413" y1="35" x2="169.379" y2="35" gradientUnits="userSpaceOnUse">
<stop stop-color="#2CBDEE"/>
<stop offset="1" stop-color="#C53156"/>
</linearGradient>
</defs>
</svg>
