<svg width="164" height="64" viewBox="0 0 164 64" fill="none" xmlns="http://www.w3.org/2000/svg">
<path fill-rule="evenodd" clip-rule="evenodd" d="M8.54771 0H20.8853V58.2429H42.5203V11.2618H30.0072V0H54.3292V58.2429H76.0819V11.2618H63.5687V0H87.8908V58.2429H96.4334V0H108.771V44.4723L143.102 0H154.946V58.2429H163.494V64H142.609V20.5969L109.159 64H0V58.2429H8.54771V0ZM10.4871 1.93939V60.1823H1.93939V62.0606H108.206L144.548 14.9032V62.0606H161.555V60.1823H153.007V1.93939H144.055L106.832 50.1584V1.93939H98.3728V60.1823H85.9514V1.93939H65.5081V9.32241H78.0213V60.1823H52.3898V1.93939H31.9466V9.32241H44.4597V60.1823H18.9459V1.93939H10.4871Z" fill="url(#paint0_linear_1296_5)"/>
<defs>
<linearGradient id="paint0_linear_1296_5" x1="0.219947" y1="32" x2="163.274" y2="32" gradientUnits="userSpaceOnUse">
<stop stop-color="#2CBDEE"/>
<stop offset="1" stop-color="#C53156"/>
</linearGradient>
</defs>
</svg>
