<svg width="748" height="70" viewBox="0 0 748 70" fill="none" xmlns="http://www.w3.org/2000/svg">
<path fill-rule="evenodd" clip-rule="evenodd" d="M82.6774 67L48.4753 21.4134V67H3V63.1564H11.3778V4.51955H21.5693V63.1564H38.2837V4.51955H48.4753L83.5411 51.1788V4.51955H93.7326V63.1564H123.093V14.1732H104.782V4.51955H151.594V14.1732H133.284V63.1564H162.608V4.51955H205.015V14.4413H172.799V30.9777H201.733V40.3631H172.799V57.0782H206.051V63.1564H231.642C229.987 62.2899 228.441 61.2899 227.006 60.1564C224.098 57.8604 221.641 55.0168 219.637 51.6257C216.7 46.5605 215.232 40.8399 215.232 34.4637C215.232 25.3464 218.284 17.838 224.387 11.9385C230.491 5.97951 237.89 3 246.584 3C255.336 3 262.591 5.62197 268.349 10.8659L262.908 18.9106C262.123 18.2177 261.336 17.5971 260.545 17.0489C258.956 15.947 257.354 15.1374 255.739 14.6201C253.378 13.7858 250.615 13.3687 247.448 13.3687C241.287 13.3687 236.133 15.2756 231.988 19.0894C227.9 22.9032 225.855 28.1173 225.855 34.7318C225.855 41.3464 227.871 46.6797 231.901 50.7318C235.932 54.7244 240.797 56.7207 246.498 56.7207C252.256 56.7207 257.063 55.4395 260.921 52.8771V35.7151H271.113V57.0782C270.143 58.1908 269.077 59.2169 267.916 60.1564C266.527 61.2802 265.002 62.2802 263.34 63.1564H284.486V4.51955H326.893V14.4413H294.677V30.9777H323.611V40.3631H294.677V57.0782H327.929V63.1564H340.997V4.51955H363.453C372.665 4.51955 379.258 6.12849 383.231 9.34637C387.204 12.5642 389.191 17.7188 389.191 24.8101C389.191 33.907 385.806 40.0343 379.036 43.192C378.133 43.6127 377.171 43.9808 376.149 44.2961L389.277 63.1564H397.896V57.0782H431.148V40.3631H402.215V30.9777H431.148V14.4413H398.932V4.51955H441.34V63.1564H452.516V56.9888H480.068V4.51955H490.26V63.1564H503.327V57.0782H536.579V40.3631H507.645V30.9777H536.579V14.4413H504.363V4.51955H546.77V63.1564H578.226L555.424 4.51955H566.825L585.394 51.1788L603.964 4.51955H615.364L592.649 63.1564H620.313V57.0782H653.565V40.3631H624.631V30.9777H653.565V14.4413H621.349V4.51955H663.756V63.1564H680.507V4.51955H690.698V51.1788L725.764 4.51955H735.956V63.1564H744.333V67H725.764V21.4134L691.562 67H378.999L364.575 45.9944H351.188V67H82.6774ZM354.188 48.9944V70H81.1777L51.4753 30.4108V70H0V60.1564H8.37779V1.51955H24.5693V60.1564H35.2837V1.51955H49.9734L80.5411 42.1934V1.51955H96.7326V60.1564H120.093V17.1732H101.782V1.51955H154.594V17.1732H136.284V60.1564H159.608V1.51955H208.015V17.4413H175.799V27.9777H204.733V43.3631H175.799V54.0782H209.051V60.1564H222.483C220.417 58.1163 218.607 55.7789 217.054 53.1523L217.048 53.1414L217.042 53.1304C213.817 47.5678 212.232 41.3198 212.232 34.4637C212.232 24.6024 215.566 16.2951 222.297 9.78623C228.972 3.27221 237.126 0 246.584 0C255.984 0 263.989 2.83758 270.369 8.64792L272.289 10.3961L263.48 23.4193L260.921 21.1589C258.799 19.2838 256.764 18.0986 254.824 17.4771L254.781 17.4635L254.74 17.4487C252.772 16.7534 250.36 16.3687 247.448 16.3687C241.966 16.3687 237.563 18.0403 234.026 21.2908C230.663 24.4327 228.855 28.7884 228.855 34.7318C228.855 40.6839 230.643 45.2083 234.021 48.6085C237.485 52.0362 241.588 53.7207 246.498 53.7207C251.108 53.7207 254.876 52.8329 257.921 51.1834V32.7151H274.113V58.2025L273.374 59.0499C273.044 59.428 272.705 59.7969 272.356 60.1564H281.486V1.51955H329.893V17.4413H297.677V27.9777H326.611V43.3631H297.677V54.0782H330.929V60.1564H337.997V1.51955H363.453C372.864 1.51955 380.327 3.13367 385.119 7.01511C390.04 11.0002 392.191 17.1831 392.191 24.8101C392.191 30.3722 391.018 35.2055 388.423 39.082C386.513 41.9365 383.93 44.1251 380.771 45.6858L390.844 60.1564H394.896V54.0782H428.148V43.3631H399.215V27.9777H428.148V17.4413H395.932V1.51955H444.34V60.1564H449.516V53.9888H477.068V1.51955H493.26V60.1564H500.327V54.0782H533.579V43.3631H504.645V27.9777H533.579V17.4413H501.363V1.51955H549.77V60.1564H573.84L551.039 1.51955H568.86L585.394 43.0657L601.929 1.51955H666.756V60.1564H677.507V1.51955H693.698V42.1934L724.266 1.51955H738.956V60.1564H747.333V70H722.764V30.4109L693.062 70H377.42L362.996 48.9944H354.188ZM618.349 5.11859L597.029 60.1564H617.313V54.0782H650.565V43.3631H621.631V27.9777H650.565V17.4413H618.349V5.11859ZM375.544 16.4078C373.414 14.8585 369.614 14.0838 364.144 14.0838H351.188V36.4302H363.884C369.642 36.4302 373.558 35.5065 375.631 33.6592C377.703 31.8119 378.74 28.8622 378.74 24.8101C378.74 20.6983 377.675 17.8976 375.544 16.4078ZM354.188 33.4302H363.884C369.569 33.4302 372.46 32.4668 373.635 31.4195C374.821 30.3622 375.74 28.4065 375.74 24.8101C375.74 21.093 374.77 19.5273 373.825 18.8664L373.802 18.8504L373.78 18.8341C372.48 17.8885 369.538 17.0838 364.144 17.0838H354.188V33.4302Z" fill="url(#paint0_linear_1312_58)"/>
<defs>
<linearGradient id="paint0_linear_1312_58" x1="1.00538" y1="35" x2="746.328" y2="35" gradientUnits="userSpaceOnUse">
<stop stop-color="#2CBDEE"/>
<stop offset="1" stop-color="#C53156"/>
</linearGradient>
</defs>
</svg>
