<svg width="721" height="64" viewBox="0 0 721 64" fill="none" xmlns="http://www.w3.org/2000/svg">
<path fill-rule="evenodd" clip-rule="evenodd" d="M10.0633 60.2729H1.93939V62.0606H44.0972V15.9169L78.7173 62.0606H337.637V41.6916H352.099L366.085 62.0606H668.181L702.801 15.9169V62.0606H718.869V60.2729H710.745V3.4129H702.316L666.859 50.5929V3.4129H658.916V60.2729H640.734V3.4129H601.551V11.0946H632.79V29.0692H604.733V36.2309H632.79V54.3789H600.546V60.2729H571.335L593.362 3.4129H584.38L565.716 50.3109L547.051 3.4129H538.071L560.182 60.2729H527.293V3.4129H488.11V11.0946H519.349V29.0692H491.292V36.2309H519.349V54.3789H487.105V60.2729H472.494V3.4129H464.551V54.2922H437.834V60.2729H425.057V3.4129H385.874V11.0946H417.113V29.0692H389.056V36.2309H417.113V54.3789H384.869V60.2729H375.035L361.257 40.479L362.525 40.0878C366.565 38.8419 369.526 36.7357 371.49 33.8009C373.462 30.8549 374.488 26.9855 374.488 22.1188C374.488 15.4156 372.615 10.7497 369.068 7.87729C365.481 4.97141 359.369 3.4129 350.5 3.4129H329.694V60.2729H315.083V54.3789H282.839V36.2309H310.895V29.0692H282.839V11.0946H314.078V3.4129H274.895V60.2729H253.42L252.968 58.4454C255.714 56.9974 258.051 55.1954 259.988 53.0416V33.6631H252.045V49.8554L251.612 50.1431C247.677 52.7566 242.816 54.0322 237.089 54.0322C231.307 54.0322 226.343 51.9964 222.252 47.944L222.247 47.939C218.129 43.7992 216.102 38.3667 216.102 31.74C216.102 25.1105 218.16 19.7776 222.357 15.8625L222.362 15.8579C226.578 11.979 231.817 10.0545 238.01 10.0545C241.157 10.0545 243.946 10.4679 246.359 11.3186C248.56 12.0256 250.708 13.2483 252.804 14.9587L256.997 8.75932C251.718 4.22565 245.131 1.93939 237.172 1.93939C228.989 1.93939 222.059 4.73339 216.326 10.3312L216.322 10.3346C210.608 15.858 207.74 22.8801 207.74 31.4799C207.74 37.5066 209.126 42.8826 211.879 47.6329C214.694 52.3937 218.443 55.9895 223.133 58.4441L222.683 60.2729H196.898V54.3789H164.654V36.2309H192.711V29.0692H164.654V11.0946H195.893V3.4129H156.711V60.2729H126.336V10.8346H144.091V3.4129H100.637V10.8346H118.393V60.2729H87.9831V3.4129H80.0398V50.5929L44.5827 3.4129H36.1539V60.2729H18.0066V3.4129H10.0633V60.2729ZM529.232 58.3335H557.347L535.236 1.4735H548.367L565.716 45.066L583.064 1.4735H596.193L574.166 58.3335H598.606V52.4395H630.851V38.1703H602.794V27.1298H630.851V13.034H599.612V1.4735H642.673V58.3335H656.976V1.4735H668.798V44.7841L701.347 1.4735H712.684V58.3335H720.808V64H700.862V21.7334L669.151 64H365.064L351.078 43.631H339.576V64H77.7478L46.0366 21.7334V64H0V58.3335H8.12391V1.4735H19.946V58.3335H34.2145V1.4735H45.5512L78.1004 44.7842V1.4735H89.9225V58.3335H116.453V12.774H98.6981V1.4735H146.031V12.774H128.276V58.3335H154.771V1.4735H197.833V13.034H166.593V27.1298H194.65V38.1703H166.593V52.4395H198.838V58.3335H219.188C215.562 55.851 212.567 52.6077 210.207 48.6153L210.203 48.6083C207.262 43.5358 205.801 37.818 205.801 31.4799C205.801 22.3985 208.851 14.8594 214.973 8.94176C221.076 2.98387 228.494 0 237.172 0C245.869 0 253.146 2.61221 258.931 7.88033L259.551 8.4454L253.186 17.8555L252.359 17.1249C250.147 15.1705 247.945 13.8628 245.754 13.1612L245.727 13.1524C243.565 12.3883 240.999 11.9939 238.01 11.9939C232.255 11.9939 227.5 13.7669 223.677 17.283C219.947 20.7641 218.042 25.5427 218.042 31.74C218.042 37.9401 219.922 42.8504 223.62 46.569C227.345 50.2579 231.817 52.0928 237.089 52.0928C242.309 52.0928 246.63 50.9791 250.105 48.8068V31.7237H261.928V53.7726L261.689 54.0465C260.283 55.658 258.682 57.0868 256.887 58.3335H272.956V1.4735H316.017V13.034H284.778V27.1298H312.835V38.1703H284.778V52.4395H317.022V58.3335H327.754V1.4735H350.5C359.497 1.4735 366.172 3.03536 370.289 6.37021C374.448 9.73857 376.427 15.0693 376.427 22.1188C376.427 27.249 375.346 31.5271 373.102 34.8796C371.069 37.9175 368.129 40.123 364.344 41.5195L376.048 58.3335H382.93V52.4395H415.174V38.1703H387.117V27.1298H415.174V13.034H383.935V1.4735H426.996V58.3335H435.895V52.3528H462.611V1.4735H474.433V58.3335H485.165V52.4395H517.41V38.1703H489.353V27.1298H517.41V13.034H486.17V1.4735H529.232V58.3335ZM336.667 35.3262V9.77823H351.17C356.513 9.77823 360.747 10.5073 363.351 12.3921C366.172 14.3744 367.263 17.8839 367.263 22.1188C367.263 26.3428 366.182 29.8457 363.599 32.1477L362.309 30.6999C364.319 28.9085 365.324 26.0482 365.324 22.1188C365.324 18.1317 364.291 15.4158 362.225 13.9712C360.159 12.4688 356.474 11.7176 351.17 11.7176H338.607V33.3868H350.918C356.502 33.3868 360.298 32.4912 362.309 30.6999L363.599 32.1477C361.008 34.4562 356.549 35.3262 350.918 35.3262H336.667Z" fill="url(#paint0_linear_1311_52)"/>
<defs>
<linearGradient id="paint0_linear_1311_52" x1="0.969697" y1="32" x2="719.838" y2="32" gradientUnits="userSpaceOnUse">
<stop stop-color="#2CBDEE"/>
<stop offset="1" stop-color="#C53156"/>
</linearGradient>
</defs>
</svg>
