<svg width="742" height="64" viewBox="0 0 742 64" fill="none" xmlns="http://www.w3.org/2000/svg">
<path fill-rule="evenodd" clip-rule="evenodd" d="M8.37779 1.51955V60.1564H0V64H45.4753V18.4134L79.6774 64H348.188V42.9944H361.575L375.999 64H554V62V60.1564H543.77V1.51955H501.363V11.4413H533.579V27.9777H504.645V37.3631H533.579V54.0782H500.327V60.1564H487.26V1.51955H477.068V53.9888H449.516V60.1564H438.34V1.51955H395.932V11.4413H428.148V27.9777H399.215V37.3631H428.148V54.0782H394.896V60.1564H386.277L373.149 41.2961C381.843 38.6145 386.191 32.1192 386.191 21.8101C386.191 14.7188 384.204 9.56425 380.231 6.34637C376.258 3.12849 369.665 1.51955 360.453 1.51955H337.997V60.1564H324.929V54.0782H291.677V37.3631H320.611V27.9777H291.677V11.4413H323.893V1.51955H281.486V60.1564H260.34C263.391 58.5475 265.982 56.5214 268.113 54.0782V32.7151H257.921V49.8771C254.063 52.4395 249.256 53.7207 243.498 53.7207C237.797 53.7207 232.932 51.7244 228.901 47.7318C224.871 43.6797 222.855 38.3464 222.855 31.7318C222.855 25.1173 224.9 19.9032 228.988 16.0894C233.133 12.2756 238.287 10.3687 244.448 10.3687C247.615 10.3687 250.378 10.7858 252.739 11.6201C255.157 12.3948 257.547 13.825 259.908 15.9106L265.349 7.86592C259.591 2.62197 252.336 0 243.584 0C234.89 0 227.491 2.97951 221.387 8.93854C215.284 14.838 212.232 22.3464 212.232 31.4637C212.232 37.8399 213.7 43.5605 216.637 48.6257C219.631 53.6909 223.633 57.5344 228.642 60.1564H203.051V54.0782H169.799V37.3631H198.733V27.9777H169.799V11.4413H202.015V1.51955H159.608V60.1564H130.284V11.1732H148.594V1.51955H101.782V11.1732H120.093V60.1564H90.7326V1.51955H80.5411V48.1788L45.4753 1.51955H35.2837V60.1564H18.5693V1.51955H8.37779ZM372.631 30.6592C370.558 32.5065 366.642 33.4302 360.884 33.4302H348.188V11.0838H361.144C366.614 11.0838 370.414 11.8585 372.544 13.4078C374.675 14.8976 375.74 17.6983 375.74 21.8101C375.74 25.8622 374.703 28.8119 372.631 30.6592Z" fill="url(#paint0_linear_1295_187)"/>
<path d="M732.956 1.51955V60.1564H741.333V64H722.764V18.4134L688.562 64H552.165V60.1564H575.226L552.424 1.51955H563.825L582.394 48.1788L600.964 1.51955H612.364L589.649 60.1564H617.313V54.0782H650.565V37.3631H621.631V27.9777H650.565V11.4413H618.349V1.51955H660.756V60.1564H677.507V1.51955H687.698V48.1788L722.764 1.51955H732.956Z" fill="url(#paint1_linear_1295_187)"/>
<defs>
<linearGradient id="paint0_linear_1295_187" x1="0.997309" y1="32" x2="740.336" y2="32" gradientUnits="userSpaceOnUse">
<stop stop-color="#2CBDEE"/>
<stop offset="1" stop-color="#C53156"/>
</linearGradient>
<linearGradient id="paint1_linear_1295_187" x1="0.997309" y1="32" x2="740.336" y2="32" gradientUnits="userSpaceOnUse">
<stop stop-color="#2CBDEE"/>
<stop offset="1" stop-color="#C53156"/>
</linearGradient>
</defs>
</svg>
