<svg width="28" height="16" viewBox="0 0 28 16" fill="none" xmlns="http://www.w3.org/2000/svg">
<path fill-rule="evenodd" clip-rule="evenodd" d="M0 2.82353H9.1103V0.812356L10.6181 2.82353H20.5822L21.218 1.89681H21.8082V2.82353H22.6268V2.65396H22.2575V0.067039H21.2675C20.8614 0.067039 20.5707 0.138022 20.3956 0.279987C20.2205 0.421952 20.1329 0.649359 20.1329 0.962208C20.1329 1.41702 20.3245 1.70358 20.7078 1.82189L20.1291 2.65396H19.0685C19.3706 2.43575 19.5216 2.09004 19.5216 1.61683V0.067039H19.0723V1.59711C19.0723 1.84949 19.0114 2.04929 18.8896 2.19652C18.7677 2.34374 18.6028 2.41735 18.3946 2.41735C18.1865 2.41735 18.0215 2.34374 17.8996 2.19652C17.7778 2.04929 17.7169 1.84949 17.7169 1.59711V0.067039H17.2676V1.61683C17.2676 2.09267 17.4199 2.43838 17.7245 2.65396H16.0622C16.2704 2.5304 16.4354 2.36083 16.5572 2.14525C16.6765 1.92967 16.7362 1.68912 16.7362 1.4236C16.7362 1.01873 16.6016 0.680907 16.3326 0.410122C16.0635 0.136707 15.731 0 15.335 0C14.939 0 14.6065 0.136707 14.3374 0.410122C14.0684 0.680907 13.9338 1.01873 13.9338 1.4236C13.9338 1.68649 13.9948 1.92705 14.1166 2.14525C14.2359 2.36346 14.3996 2.53303 14.6078 2.65396H13.2491C13.3709 2.58824 13.4826 2.50674 13.5842 2.40946L13.3024 2.0585C13.0333 2.30036 12.7541 2.42129 12.4647 2.42129C12.3201 2.42129 12.2058 2.38975 12.1221 2.32665C12.0358 2.26093 11.9926 2.17548 11.9926 2.07033C11.9926 1.96254 12.0332 1.87972 12.1145 1.82189C12.1931 1.76142 12.3302 1.70753 12.5257 1.6602C12.7211 1.61025 12.8696 1.56556 12.9711 1.52613C13.0727 1.48406 13.1628 1.43017 13.2415 1.36444C13.3989 1.24088 13.4775 1.05159 13.4775 0.796582C13.4775 0.541571 13.3887 0.345712 13.211 0.209004C13.0308 0.0696681 12.8087 0 12.5447 0C12.3746 0 12.2058 0.0289189 12.0383 0.0867566C11.8708 0.144594 11.7261 0.226093 11.6043 0.331252L11.8441 0.682221C11.9228 0.60861 12.0294 0.548143 12.164 0.500821C12.2985 0.4535 12.4318 0.429839 12.5637 0.429839C12.6932 0.429839 12.7998 0.457443 12.8836 0.512652C12.9673 0.567861 13.0092 0.651988 13.0092 0.765035C13.0092 0.875452 12.9673 0.960894 12.8836 1.02136C12.7998 1.0792 12.6221 1.14229 12.3505 1.21065C12.0764 1.279 11.8708 1.37496 11.7337 1.49852C11.5941 1.62208 11.5243 1.7956 11.5243 2.01906C11.5243 2.28985 11.6208 2.50148 11.8137 2.65396H11.1054V0.067039H10.6561V2.12553L9.1103 0.067039H8.66102V2.65396H8.08496V2.3858H6.61908V1.64837H7.89459V1.23431H6.61908V0.504765H8.03927V0.067039H6.16979V2.65396H4.0163V2.01512H4.48843C4.87933 2.01512 5.1687 1.93756 5.35654 1.78245C5.54691 1.62734 5.6421 1.38285 5.6421 1.04896C5.6421 0.715084 5.54945 0.467959 5.36415 0.307591C5.17886 0.147223 4.88441 0.067039 4.48082 0.067039H3.56702V2.65396H2.32637C2.53452 2.53303 2.69824 2.36346 2.81754 2.14525C2.93938 1.92705 3.0003 1.68649 3.0003 1.4236C3.0003 1.01873 2.86577 0.680907 2.59671 0.410122C2.32764 0.136707 1.99512 0 1.59914 0C1.20317 0 0.870645 0.136707 0.601583 0.410122C0.332521 0.680907 0.197989 1.01873 0.197989 1.4236C0.197989 1.68912 0.25764 1.92967 0.376941 2.14525C0.498781 2.36083 0.663772 2.5304 0.871915 2.65396H0V2.82353ZM1.59914 0.425895C1.86313 0.425895 2.08523 0.523168 2.26545 0.717713C2.44821 0.912258 2.53959 1.14887 2.53959 1.42754C2.53959 1.70358 2.44821 1.93888 2.26545 2.13342C2.08523 2.32797 1.86313 2.42524 1.59914 2.42524C1.33516 2.42524 1.11179 2.32797 0.929027 2.13342C0.748806 1.93888 0.658695 1.70358 0.658695 1.42754C0.658695 1.14887 0.748806 0.912258 0.929027 0.717713C1.11179 0.523168 1.33516 0.425895 1.59914 0.425895ZM5.04432 1.44726C4.95548 1.54453 4.78668 1.59316 4.53793 1.59316H4.0163V0.488991H4.4732C4.71688 0.488991 4.89583 0.528426 5.01006 0.607295C5.12428 0.686165 5.18139 0.821558 5.18139 1.01347C5.18139 1.20276 5.1357 1.34735 5.04432 1.44726ZM21.2485 1.47486C20.9946 1.47486 20.822 1.43411 20.7307 1.35261C20.6393 1.27111 20.5936 1.14098 20.5936 0.962208C20.5936 0.780808 20.6405 0.657246 20.7345 0.591521C20.8284 0.523168 20.9959 0.488991 21.2371 0.488991H21.8082V1.47486H21.2485ZM14.6687 0.717713C14.8489 0.523168 15.071 0.425895 15.335 0.425895C15.599 0.425895 15.8224 0.523168 16.0051 0.717713C16.1853 0.912258 16.2754 1.14887 16.2754 1.42754C16.2754 1.70358 16.1853 1.93888 16.0051 2.13342C15.8224 2.32797 15.599 2.42524 15.335 2.42524C15.071 2.42524 14.8489 2.32797 14.6687 2.13342C14.4859 1.93888 14.3945 1.70358 14.3945 1.42754C14.3945 1.14887 14.4859 0.912258 14.6687 0.717713Z" fill="url(#paint0_linear_1105_503)"/>
<path d="M27.5522 2.65396V0.067039H25.6828V0.504765H27.103V1.23431H25.8275V1.64837H27.103V2.3858H25.6371V2.65396H24.5851C24.7856 2.5304 24.9443 2.36214 25.061 2.14919C25.1752 1.93625 25.2324 1.6957 25.2324 1.42754C25.2324 1.02268 25.0978 0.683536 24.8288 0.410122C24.5572 0.136707 24.2158 0 23.8045 0C23.3908 0 23.0456 0.157739 22.7689 0.473217L23.0545 0.796582C23.1814 0.670391 23.302 0.58232 23.4162 0.532369C23.5279 0.482419 23.6599 0.457443 23.8122 0.457443C24.0812 0.457443 24.3071 0.548143 24.4899 0.729543C24.6727 0.908314 24.764 1.13835 24.764 1.41965C24.764 1.69832 24.6739 1.9323 24.4937 2.12159C24.3109 2.30825 24.0952 2.40158 23.8464 2.40158C23.6916 2.40158 23.5583 2.37529 23.4466 2.32271C23.335 2.2675 23.2182 2.18074 23.0964 2.06244L22.807 2.37003C22.9187 2.49622 23.0253 2.59086 23.1268 2.65396H22.628V2.82353H27.9216V2.65396H27.5522Z" fill="url(#paint1_linear_1105_503)"/>
<path fill-rule="evenodd" clip-rule="evenodd" d="M9.80543 15.8681C9.92037 15.8129 10.018 15.7434 10.0982 15.6595V14.9265H9.71434V15.5154C9.56904 15.6033 9.38796 15.6473 9.17109 15.6473C8.95639 15.6473 8.77314 15.5788 8.62134 15.4418C8.46953 15.3027 8.39363 15.1197 8.39363 14.8928C8.39363 14.6658 8.47061 14.4869 8.62459 14.356C8.78073 14.2251 8.97483 14.1597 9.20687 14.1597C9.32615 14.1597 9.43025 14.174 9.51916 14.2027C9.61025 14.2292 9.70025 14.2783 9.78916 14.3499L9.9941 14.0738C9.77723 13.8939 9.50398 13.8039 9.17434 13.8039C8.84688 13.8039 8.5682 13.9062 8.33832 14.1106C8.10845 14.3131 7.99351 14.5707 7.99351 14.8836C7.99351 15.1023 8.04881 15.2986 8.15941 15.4725C8.27218 15.6463 8.4229 15.7781 8.61158 15.8681H7.64772V15.6595H6.39532V15.086H7.48507V14.7639H6.39532V14.1965H7.60869V13.8561H6.01146V15.8681H4.90702V14.1873H5.59666V13.8561H3.83353V14.1873H4.52317V15.8681H3.41735V13.8561H3.0335V15.4571L1.71278 13.8561H1.32893V15.8681H0.699395V13.8561H0.315541V15.8681H0V16H1.71278V14.4358L3.00097 16H13.1142V15.2792H13.6184L14.1616 16H20.7961V15.8681H20.4806V13.8561H18.8833V14.1965H20.0967V14.7639H19.007V15.086H20.0967V15.6595H18.8443V15.8681H18.3521V13.8561H17.9683V15.6565H16.9306V15.8681H16.5096V13.8561H14.9124V14.1965H16.1258V14.7639H15.036V15.086H16.1258V15.6595H14.8734V15.8681H14.5487L14.0543 15.2209C14.3817 15.1289 14.5455 14.9061 14.5455 14.5523C14.5455 14.309 14.4707 14.1321 14.321 14.0217C14.1714 13.9113 13.9231 13.8561 13.5761 13.8561H12.7303V15.8681H12.2381V15.6595H10.9857V15.086H12.0755V14.7639H10.9857V14.1965H12.1991V13.8561H10.6019V15.8681H9.80543ZM14.0348 14.856C13.9567 14.9193 13.8092 14.951 13.5923 14.951H13.1142V14.1842H13.6021C13.8081 14.1842 13.9513 14.2108 14.0315 14.264C14.1117 14.3151 14.1519 14.4112 14.1519 14.5523C14.1519 14.6914 14.1128 14.7926 14.0348 14.856Z" fill="url(#paint2_linear_1105_503)"/>
<path d="M27.606 15.8681V13.8561H27.2222L25.9015 15.4571V13.8561H25.5176V15.8681H24.8867V13.8561H23.2895V14.1965H24.5029V14.7639H23.4131V15.086H24.5029V15.6595H23.2505V15.8681H22.2085L23.0641 13.8561H22.6347L21.9353 15.4571L21.2359 13.8561H20.8065L21.6653 15.8681H20.7967V16H25.934L27.2222 14.4358V16H27.9216V15.8681H27.606Z" fill="url(#paint3_linear_1105_503)"/>
<path d="M9.44063 12.2353V11.7496H10.5249L12.9192 8.18071L10.4006 4.34071H12.0496L13.8115 7.00612H13.8679L15.6298 4.34071H17.2787L14.7602 8.18071L17.1432 11.7496H18.2387V12.2353H15.8105L13.8679 9.26494H13.8115L11.8689 12.2353H9.44063Z" fill="url(#paint4_linear_1105_503)"/>
<path d="M0 3.13726V13.4902H0.526719V3.13726H0Z" fill="url(#paint5_linear_1105_503)"/>
<path d="M1.58016 3.13726V13.4902H3.16031V3.13726H1.58016Z" fill="url(#paint6_linear_1105_503)"/>
<path d="M4.21375 3.13726V13.4902H5.26719V3.13726H4.21375Z" fill="url(#paint7_linear_1105_503)"/>
<path d="M5.79528 3.13726V13.4902H6.84871V3.13726H5.79528Z" fill="url(#paint8_linear_1105_503)"/>
<path d="M7.90215 3.13726V13.4902H9.48231V12.3921H9.28376V11.5928H9.48231V3.13726H7.90215Z" fill="url(#paint9_linear_1105_503)"/>
<path d="M10.5357 13.4902V12.3921H11.0625V13.4902H10.5357Z" fill="url(#paint10_linear_1105_503)"/>
<path d="M11.5906 13.4902V12.3921H11.9537L12.644 11.3366V13.4902H11.5906Z" fill="url(#paint11_linear_1105_503)"/>
<path d="M11.5906 9.87958L12.644 8.30936V8.04708L11.5906 6.44094V9.87958Z" fill="url(#paint12_linear_1105_503)"/>
<path d="M13.6974 13.4902V9.72586L13.8397 9.50834L15.2776 11.707V13.4902H13.6974Z" fill="url(#paint13_linear_1105_503)"/>
<path d="M15.8043 13.4902V12.3921H16.331V13.4902H15.8043Z" fill="url(#paint14_linear_1105_503)"/>
<path d="M15.8043 9.46196L16.331 10.2508V6.07166L15.8043 6.87473V9.46196Z" fill="url(#paint15_linear_1105_503)"/>
<path d="M18.3956 12.3921H17.3858V13.4902H18.966V3.13726H17.3858V4.18382H17.5692L17.3858 4.46343V11.5928H18.3956V12.3921Z" fill="url(#paint16_linear_1105_503)"/>
<path d="M16.331 3.13726V4.18382H15.8043V3.13726H16.331Z" fill="url(#paint17_linear_1105_503)"/>
<path d="M15.2776 3.13726V4.58906L13.8397 6.76435L13.6974 6.54915V3.13726H15.2776Z" fill="url(#paint18_linear_1105_503)"/>
<path d="M14.9483 8.17991L15.2776 7.67779V8.67313L14.9483 8.17991Z" fill="url(#paint19_linear_1105_503)"/>
<path d="M12.1339 4.18382L12.644 4.95548V3.13726H11.5906V4.18382H12.1339Z" fill="url(#paint20_linear_1105_503)"/>
<path d="M11.0625 3.13726V4.18382H10.5357V3.13726H11.0625Z" fill="url(#paint21_linear_1105_503)"/>
<path d="M10.5357 11.4518V4.83272L11.0625 5.63579V10.6667L10.5357 11.4518Z" fill="url(#paint22_linear_1105_503)"/>
<path d="M19.4927 3.13726V13.4902H20.0194V3.13726H19.4927Z" fill="url(#paint23_linear_1105_503)"/>
<path d="M21.0729 3.13726V13.4902H22.1263V3.13726H21.0729Z" fill="url(#paint24_linear_1105_503)"/>
<path d="M23.1811 13.4902V3.13726H24.2345V13.4902H23.1811Z" fill="url(#paint25_linear_1105_503)"/>
<path d="M25.288 13.4902V3.13726H25.8147V13.4902H25.288Z" fill="url(#paint26_linear_1105_503)"/>
<path d="M26.3414 13.4902V3.13726H27.9216V13.4902H26.3414Z" fill="url(#paint27_linear_1105_503)"/>
<defs>
<linearGradient id="paint0_linear_1105_503" x1="13.9608" y1="0" x2="13.9608" y2="16" gradientUnits="userSpaceOnUse">
<stop stop-color="#DE492E"/>
<stop offset="1" stop-color="#585CA4"/>
</linearGradient>
<linearGradient id="paint1_linear_1105_503" x1="13.9608" y1="0" x2="13.9608" y2="16" gradientUnits="userSpaceOnUse">
<stop stop-color="#DE492E"/>
<stop offset="1" stop-color="#585CA4"/>
</linearGradient>
<linearGradient id="paint2_linear_1105_503" x1="13.9608" y1="0" x2="13.9608" y2="16" gradientUnits="userSpaceOnUse">
<stop stop-color="#DE492E"/>
<stop offset="1" stop-color="#585CA4"/>
</linearGradient>
<linearGradient id="paint3_linear_1105_503" x1="13.9608" y1="0" x2="13.9608" y2="16" gradientUnits="userSpaceOnUse">
<stop stop-color="#DE492E"/>
<stop offset="1" stop-color="#585CA4"/>
</linearGradient>
<linearGradient id="paint4_linear_1105_503" x1="13.9608" y1="0" x2="13.9608" y2="16" gradientUnits="userSpaceOnUse">
<stop stop-color="#DE492E"/>
<stop offset="1" stop-color="#585CA4"/>
</linearGradient>
<linearGradient id="paint5_linear_1105_503" x1="13.9608" y1="0" x2="13.9608" y2="16" gradientUnits="userSpaceOnUse">
<stop stop-color="#DE492E"/>
<stop offset="1" stop-color="#585CA4"/>
</linearGradient>
<linearGradient id="paint6_linear_1105_503" x1="13.9608" y1="0" x2="13.9608" y2="16" gradientUnits="userSpaceOnUse">
<stop stop-color="#DE492E"/>
<stop offset="1" stop-color="#585CA4"/>
</linearGradient>
<linearGradient id="paint7_linear_1105_503" x1="13.9608" y1="0" x2="13.9608" y2="16" gradientUnits="userSpaceOnUse">
<stop stop-color="#DE492E"/>
<stop offset="1" stop-color="#585CA4"/>
</linearGradient>
<linearGradient id="paint8_linear_1105_503" x1="13.9608" y1="0" x2="13.9608" y2="16" gradientUnits="userSpaceOnUse">
<stop stop-color="#DE492E"/>
<stop offset="1" stop-color="#585CA4"/>
</linearGradient>
<linearGradient id="paint9_linear_1105_503" x1="13.9608" y1="0" x2="13.9608" y2="16" gradientUnits="userSpaceOnUse">
<stop stop-color="#DE492E"/>
<stop offset="1" stop-color="#585CA4"/>
</linearGradient>
<linearGradient id="paint10_linear_1105_503" x1="13.9608" y1="0" x2="13.9608" y2="16" gradientUnits="userSpaceOnUse">
<stop stop-color="#DE492E"/>
<stop offset="1" stop-color="#585CA4"/>
</linearGradient>
<linearGradient id="paint11_linear_1105_503" x1="13.9608" y1="0" x2="13.9608" y2="16" gradientUnits="userSpaceOnUse">
<stop stop-color="#DE492E"/>
<stop offset="1" stop-color="#585CA4"/>
</linearGradient>
<linearGradient id="paint12_linear_1105_503" x1="13.9608" y1="0" x2="13.9608" y2="16" gradientUnits="userSpaceOnUse">
<stop stop-color="#DE492E"/>
<stop offset="1" stop-color="#585CA4"/>
</linearGradient>
<linearGradient id="paint13_linear_1105_503" x1="13.9608" y1="0" x2="13.9608" y2="16" gradientUnits="userSpaceOnUse">
<stop stop-color="#DE492E"/>
<stop offset="1" stop-color="#585CA4"/>
</linearGradient>
<linearGradient id="paint14_linear_1105_503" x1="13.9608" y1="0" x2="13.9608" y2="16" gradientUnits="userSpaceOnUse">
<stop stop-color="#DE492E"/>
<stop offset="1" stop-color="#585CA4"/>
</linearGradient>
<linearGradient id="paint15_linear_1105_503" x1="13.9608" y1="0" x2="13.9608" y2="16" gradientUnits="userSpaceOnUse">
<stop stop-color="#DE492E"/>
<stop offset="1" stop-color="#585CA4"/>
</linearGradient>
<linearGradient id="paint16_linear_1105_503" x1="13.9608" y1="0" x2="13.9608" y2="16" gradientUnits="userSpaceOnUse">
<stop stop-color="#DE492E"/>
<stop offset="1" stop-color="#585CA4"/>
</linearGradient>
<linearGradient id="paint17_linear_1105_503" x1="13.9608" y1="0" x2="13.9608" y2="16" gradientUnits="userSpaceOnUse">
<stop stop-color="#DE492E"/>
<stop offset="1" stop-color="#585CA4"/>
</linearGradient>
<linearGradient id="paint18_linear_1105_503" x1="13.9608" y1="0" x2="13.9608" y2="16" gradientUnits="userSpaceOnUse">
<stop stop-color="#DE492E"/>
<stop offset="1" stop-color="#585CA4"/>
</linearGradient>
<linearGradient id="paint19_linear_1105_503" x1="13.9608" y1="0" x2="13.9608" y2="16" gradientUnits="userSpaceOnUse">
<stop stop-color="#DE492E"/>
<stop offset="1" stop-color="#585CA4"/>
</linearGradient>
<linearGradient id="paint20_linear_1105_503" x1="13.9608" y1="0" x2="13.9608" y2="16" gradientUnits="userSpaceOnUse">
<stop stop-color="#DE492E"/>
<stop offset="1" stop-color="#585CA4"/>
</linearGradient>
<linearGradient id="paint21_linear_1105_503" x1="13.9608" y1="0" x2="13.9608" y2="16" gradientUnits="userSpaceOnUse">
<stop stop-color="#DE492E"/>
<stop offset="1" stop-color="#585CA4"/>
</linearGradient>
<linearGradient id="paint22_linear_1105_503" x1="13.9608" y1="0" x2="13.9608" y2="16" gradientUnits="userSpaceOnUse">
<stop stop-color="#DE492E"/>
<stop offset="1" stop-color="#585CA4"/>
</linearGradient>
<linearGradient id="paint23_linear_1105_503" x1="13.9608" y1="0" x2="13.9608" y2="16" gradientUnits="userSpaceOnUse">
<stop stop-color="#DE492E"/>
<stop offset="1" stop-color="#585CA4"/>
</linearGradient>
<linearGradient id="paint24_linear_1105_503" x1="13.9608" y1="0" x2="13.9608" y2="16" gradientUnits="userSpaceOnUse">
<stop stop-color="#DE492E"/>
<stop offset="1" stop-color="#585CA4"/>
</linearGradient>
<linearGradient id="paint25_linear_1105_503" x1="13.9608" y1="0" x2="13.9608" y2="16" gradientUnits="userSpaceOnUse">
<stop stop-color="#DE492E"/>
<stop offset="1" stop-color="#585CA4"/>
</linearGradient>
<linearGradient id="paint26_linear_1105_503" x1="13.9608" y1="0" x2="13.9608" y2="16" gradientUnits="userSpaceOnUse">
<stop stop-color="#DE492E"/>
<stop offset="1" stop-color="#585CA4"/>
</linearGradient>
<linearGradient id="paint27_linear_1105_503" x1="13.9608" y1="0" x2="13.9608" y2="16" gradientUnits="userSpaceOnUse">
<stop stop-color="#DE492E"/>
<stop offset="1" stop-color="#585CA4"/>
</linearGradient>
</defs>
</svg>
