<svg width="17" height="18" viewBox="0 0 17 18" fill="none" xmlns="http://www.w3.org/2000/svg">
<path d="M1 4.14765L3.68772 4.14765L3.68772 12.8202H1.49821H1.24821L1.24821 13.0702L1.24821 14.8182L1.24821 15.0682H1.49821L5.86185 15.0682H6.11185V14.8182L6.11185 4.14765H6.64744L6.64744 17V17.25H6.89744H9.64802H9.89802V17L9.89802 4.14765H10.4336L10.4336 14.8182V15.0682H10.6836H15.0472H15.2972V14.8182V13.0702V12.8202H15.0472H12.8577V4.14765L15.5455 4.14765H15.7955V3.89765V3.18182V2.93182H15.5455L9.89802 2.93182V2.23426L11.9091 2.23426H12.1591V1.98426V1V0.75L11.9091 0.75L4.63636 0.750001L4.38636 0.750001L4.38636 1L4.38636 1.98426V2.23426H4.63636L6.64744 2.23426V2.93182L1 2.93182H0.75L0.75 3.18182L0.75 3.89765L0.75 4.14765H1Z" stroke="url(#paint0_linear_1117_853)" stroke-width="0.5"/>
<defs>
<linearGradient id="paint0_linear_1117_853" x1="17" y1="3.18182" x2="3.90909" y2="3.18182" gradientUnits="userSpaceOnUse">
<stop stop-color="#DE492E"/>
<stop offset="1" stop-color="#585CA4"/>
</linearGradient>
</defs>
</svg>
