<svg width="44" height="18" viewBox="0 0 44 18" fill="none" xmlns="http://www.w3.org/2000/svg">
<path d="M29.1765 17.1533L37.7934 6.05578V17V17.25H38.0434H42.9647H43.2147V17V16.0157V15.7657H42.9647H40.9944V1V0.75H40.7444H38.0434H37.9211L37.8461 0.846515L29.0001 12.2199V1V0.75H28.7501H26.0491H25.7991V1V15.7657H23.5764V1V0.75H23.3264H17.5123H17.2623V1V3.40343V3.65343H17.5123H20.5127V15.7657H14.8585V1V0.75H14.6085H8.79453H8.54453V1V3.40343V3.65343H8.79453H11.7949V15.7657H6.17132V1V0.75H5.92132H3.22031H2.97031V1V15.7657H1H0.75V16.0157V17V17.25H1H28.979H29.1014L29.1765 17.1533Z" stroke="url(#paint0_linear_1117_755)" stroke-width="0.5"/>
<defs>
<linearGradient id="paint0_linear_1117_755" x1="1" y1="9" x2="45" y2="9" gradientUnits="userSpaceOnUse">
<stop stop-color="#DE492E"/>
<stop offset="1" stop-color="#585CA4"/>
</linearGradient>
</defs>
</svg>
