<svg width="187" height="18" viewBox="0 0 187 18" fill="none" xmlns="http://www.w3.org/2000/svg">
<mask id="path-1-outside-1_1117_754" maskUnits="userSpaceOnUse" x="0" y="0" width="187" height="18" fill="black">
<rect fill="white" width="187" height="18"/>
<path fill-rule="evenodd" clip-rule="evenodd" d="M3.09445 1.37989V16.0391H1V17H12.3688V5.60335L20.9193 17H88.0471V11.7486H91.3939L94.9998 17H139.037V16.0391H136.943V1.37989H126.341V3.86034H134.395V7.99441H127.161V10.3408H134.395V14.5196H126.082V16.0391H122.815V1.37989H120.267V14.4972H113.379V16.0391H110.585V1.37989H99.9831V3.86034H108.037V7.99441H100.804V10.3408H108.037V14.5196H99.724V16.0391H97.5692L94.2872 11.324C96.4608 10.6536 97.5476 9.0298 97.5476 6.45251C97.5476 4.6797 97.051 3.39106 96.0578 2.58659C95.0645 1.78212 93.4163 1.37989 91.1132 1.37989H85.4992V16.0391H82.2323V14.5196H73.9193V10.3408H81.1527V7.99441H73.9193V3.86034H81.9732V1.37989H71.3714V16.0391H66.0849C66.8478 15.6369 67.4956 15.1304 68.0282 14.5196V9.17877H65.4803V13.4693C64.5159 14.1099 63.3139 14.4302 61.8744 14.4302C60.4493 14.4302 59.233 13.9311 58.2253 12.933C57.2177 11.9199 56.7139 10.5866 56.7139 8.93296C56.7139 7.27933 57.2249 5.97579 58.2469 5.02235C59.2833 4.0689 60.5717 3.59218 62.1119 3.59218C62.9036 3.59218 63.5946 3.69646 64.1848 3.90503C64.7894 4.0987 65.3867 4.45624 65.9769 4.97765L67.3372 2.96648C65.8978 1.65549 64.084 1 61.896 1C59.7224 1 57.8726 1.74488 56.3468 3.23464C54.8209 4.7095 54.058 6.58659 54.058 8.86592C54.058 10.46 54.4251 11.8901 55.1592 13.1564C55.9078 14.4227 56.9082 15.3836 58.1605 16.0391H51.7628V14.5196H43.4498V10.3408H50.6832V7.99441H43.4498V3.86034H51.5037V1.37989H40.9019V16.0391H33.571V3.7933H38.1486V1.37989H26.4456V3.7933H31.0232V16.0391H23.6831V1.37989H21.1353V13.0447L12.3688 1.37989H9.82093V16.0391H5.64233V1.37989H3.09445ZM94.1577 8.6648C93.6394 9.12663 92.6606 9.35754 91.2211 9.35754H88.0471V3.77095H91.2859C92.6534 3.77095 93.6035 3.96462 94.1361 4.35195C94.6687 4.72439 94.935 5.42458 94.935 6.45251C94.935 7.46555 94.6759 8.20298 94.1577 8.6648Z"/>
<path d="M184.239 1.37989V16.0391H186.333V17H181.691V5.60335L173.14 17H139.041V16.0391H144.806L139.106 1.37989H141.956L146.599 13.0447L151.241 1.37989H154.091L148.412 16.0391H155.328V14.5196H163.641V10.3408H156.408V7.99441H163.641V3.86034H155.587V1.37989H166.189V16.0391H170.377V1.37989H172.925V13.0447L181.691 1.37989H184.239Z"/>
</mask>
<path fill-rule="evenodd" clip-rule="evenodd" d="M3.09445 1.37989V16.0391H1V17H12.3688V5.60335L20.9193 17H88.0471V11.7486H91.3939L94.9998 17H139.037V16.0391H136.943V1.37989H126.341V3.86034H134.395V7.99441H127.161V10.3408H134.395V14.5196H126.082V16.0391H122.815V1.37989H120.267V14.4972H113.379V16.0391H110.585V1.37989H99.9831V3.86034H108.037V7.99441H100.804V10.3408H108.037V14.5196H99.724V16.0391H97.5692L94.2872 11.324C96.4608 10.6536 97.5476 9.0298 97.5476 6.45251C97.5476 4.6797 97.051 3.39106 96.0578 2.58659C95.0645 1.78212 93.4163 1.37989 91.1132 1.37989H85.4992V16.0391H82.2323V14.5196H73.9193V10.3408H81.1527V7.99441H73.9193V3.86034H81.9732V1.37989H71.3714V16.0391H66.0849C66.8478 15.6369 67.4956 15.1304 68.0282 14.5196V9.17877H65.4803V13.4693C64.5159 14.1099 63.3139 14.4302 61.8744 14.4302C60.4493 14.4302 59.233 13.9311 58.2253 12.933C57.2177 11.9199 56.7139 10.5866 56.7139 8.93296C56.7139 7.27933 57.2249 5.97579 58.2469 5.02235C59.2833 4.0689 60.5717 3.59218 62.1119 3.59218C62.9036 3.59218 63.5946 3.69646 64.1848 3.90503C64.7894 4.0987 65.3867 4.45624 65.9769 4.97765L67.3372 2.96648C65.8978 1.65549 64.084 1 61.896 1C59.7224 1 57.8726 1.74488 56.3468 3.23464C54.8209 4.7095 54.058 6.58659 54.058 8.86592C54.058 10.46 54.4251 11.8901 55.1592 13.1564C55.9078 14.4227 56.9082 15.3836 58.1605 16.0391H51.7628V14.5196H43.4498V10.3408H50.6832V7.99441H43.4498V3.86034H51.5037V1.37989H40.9019V16.0391H33.571V3.7933H38.1486V1.37989H26.4456V3.7933H31.0232V16.0391H23.6831V1.37989H21.1353V13.0447L12.3688 1.37989H9.82093V16.0391H5.64233V1.37989H3.09445ZM94.1577 8.6648C93.6394 9.12663 92.6606 9.35754 91.2211 9.35754H88.0471V3.77095H91.2859C92.6534 3.77095 93.6035 3.96462 94.1361 4.35195C94.6687 4.72439 94.935 5.42458 94.935 6.45251C94.935 7.46555 94.6759 8.20298 94.1577 8.6648Z" stroke="url(#paint0_linear_1117_754)" mask="url(#path-1-outside-1_1117_754)"/>
<path d="M184.239 1.37989V16.0391H186.333V17H181.691V5.60335L173.14 17H139.041V16.0391H144.806L139.106 1.37989H141.956L146.599 13.0447L151.241 1.37989H154.091L148.412 16.0391H155.328V14.5196H163.641V10.3408H156.408V7.99441H163.641V3.86034H155.587V1.37989H166.189V16.0391H170.377V1.37989H172.925V13.0447L181.691 1.37989H184.239Z" stroke="url(#paint1_linear_1117_754)" mask="url(#path-1-outside-1_1117_754)"/>
<defs>
<linearGradient id="paint0_linear_1117_754" x1="1" y1="9" x2="186.333" y2="9" gradientUnits="userSpaceOnUse">
<stop stop-color="#DE492E"/>
<stop offset="1" stop-color="#585CA4"/>
</linearGradient>
<linearGradient id="paint1_linear_1117_754" x1="1" y1="9" x2="186.333" y2="9" gradientUnits="userSpaceOnUse">
<stop stop-color="#DE492E"/>
<stop offset="1" stop-color="#585CA4"/>
</linearGradient>
</defs>
</svg>
