<svg width="121" height="121" viewBox="0 0 121 121" fill="none" xmlns="http://www.w3.org/2000/svg">
  <path fill-rule="evenodd" clip-rule="evenodd" d="M0 0H121V3.11095C120.661 2.98823 120.351 2.98864 120.146 3.01238C119.697 3.06473 119.383 3.27084 119.317 3.31366L119.312 3.31724C119.117 3.44414 118.966 3.59175 118.907 3.64928C118.625 3.92576 118.206 4.42509 117.813 4.9026C117.508 5.27252 117.188 5.66784 116.876 6.05207L116.876 6.0524C116.291 6.77369 115.738 7.45584 115.381 7.85738C113.665 9.78555 112.02 11.7665 110.429 13.7829C110.269 13.7256 110.103 13.6819 109.93 13.653C109.268 13.5422 108.655 13.6722 108.163 13.8574C107.218 14.2131 106.315 14.927 105.525 15.6754C103.899 17.2145 102.1 19.5415 100.452 21.8868C98.7853 24.258 97.2029 26.7509 96.0125 28.6896C95.4162 29.6607 94.916 30.4964 94.5506 31.1126C94.3704 31.4164 94.2229 31.6669 94.1136 31.8526L94.1101 31.8585L94.109 31.8604L94.1077 31.8625L93.9756 32.0867L93.9348 32.1553L93.9194 32.181C89.367 39.5496 84.8111 47.0519 80.9356 54.9215C80.5687 55.6665 80.2223 56.4284 79.9049 57.2068L79.89 57.2325L79.8798 57.2497C79.845 57.3084 79.7619 57.4488 79.693 57.5906C79.6269 57.7266 79.4618 58.0798 79.4406 58.5358C79.4315 58.7317 79.4501 58.9388 79.502 59.1453C73.4791 68.1001 67.7188 77.2313 62.171 86.4774C59.3016 91.2596 57.3473 94.5342 54.9223 99.4161C54.3809 100.506 53.8566 101.636 53.3971 102.807C53.3891 102.828 53.3816 102.845 53.361 102.891L53.3188 102.986C53.2769 103.08 53.2055 103.243 53.145 103.428C53.0378 103.756 52.8297 104.548 53.2633 105.383C53.4219 105.688 53.7326 106.087 54.2734 106.302C54.8033 106.513 55.2831 106.439 55.5732 106.349C56.0451 106.201 56.359 105.904 56.439 105.828L56.445 105.822C56.5682 105.706 56.6742 105.585 56.7241 105.528L56.7257 105.527L56.7757 105.47C56.7816 105.463 56.7856 105.458 56.7882 105.455C56.7905 105.453 56.7917 105.451 56.792 105.451C57.1692 105.073 57.5197 104.685 57.8413 104.325L58.0161 104.129C58.2813 103.831 58.5262 103.556 58.7803 103.286C61.3939 100.515 63.83 98.0301 66.4418 95.366C66.8307 94.9693 67.2235 94.5687 67.6213 94.1625C67.3502 94.6383 67.0846 95.1117 66.8224 95.5789L66.6598 95.8685C66.0815 96.8984 65.516 97.898 64.9268 98.8638C64.8286 99.0122 64.7335 99.1564 64.6432 99.2937C64.2877 99.8345 63.9884 100.297 63.8357 100.538C63.803 100.59 63.7701 100.643 63.7431 100.687C61.9984 102.62 60.2915 104.657 58.9114 106.794C58.3511 107.662 58.5964 108.82 59.4594 109.381C60.3223 109.942 61.4761 109.694 62.0365 108.826C62.8032 107.639 63.6676 106.501 64.5936 105.387C64.6588 105.584 64.7655 105.798 64.9358 106.001C65.2147 106.334 65.5607 106.515 65.8637 106.599C66.3758 106.742 66.7928 106.62 66.8891 106.592C67.0443 106.547 67.1614 106.491 67.2182 106.463C67.3373 106.403 67.4307 106.341 67.4752 106.311C67.9675 105.976 68.3681 105.583 68.6986 105.202C67.6898 107.799 66.815 110.48 66.2378 113.175C66.1924 113.387 66.1474 113.645 66.1404 113.908C66.1369 114.04 66.1407 114.236 66.1873 114.459C66.2304 114.665 66.3423 115.051 66.6699 115.408C67.0539 115.827 67.5768 116.033 68.0903 116.032C68.5257 116.032 68.8547 115.886 69.0197 115.8C69.3444 115.63 69.5786 115.4 69.6893 115.286C70.1544 114.809 70.7364 113.943 71.2548 113.136C71.7741 112.329 72.3487 111.389 72.8801 110.52L72.9994 110.325C73.5757 109.383 74.0787 108.565 74.4301 108.043C85.7638 91.2186 96.4234 74.0072 106.947 56.7261C108.77 54.8396 110.556 52.706 111.96 50.4246C112.112 50.1775 112.327 49.9018 112.614 49.5332L112.614 49.5331L112.615 49.533L112.616 49.5315C112.809 49.2835 113.035 48.9934 113.296 48.6418C113.579 48.2619 113.882 47.8322 114.135 47.3958C114.372 46.9853 114.648 46.4313 114.753 45.82C114.765 45.7545 114.776 45.6759 114.784 45.5871C115.739 44.2924 116.681 42.961 117.56 41.5948C118.734 39.9615 119.886 38.2914 121 36.5874V121H0V116.248C0.136549 116.258 0.257436 116.252 0.354321 116.24C0.804206 116.188 1.11818 115.982 1.18341 115.939L1.18886 115.936C1.3836 115.809 1.53482 115.661 1.5935 115.604C1.87544 115.327 2.29461 114.828 2.68793 114.35C2.99239 113.981 3.3126 113.586 3.62385 113.202L3.62458 113.201L3.62468 113.201C4.20947 112.479 4.76255 111.797 5.11994 111.395C6.83598 109.467 8.4804 107.486 10.0722 105.47C10.2315 105.527 10.398 105.571 10.5709 105.6C11.2331 105.711 11.8456 105.581 12.3376 105.395C13.2823 105.04 14.1859 104.326 14.9762 103.577C16.6013 102.038 18.4009 99.7114 20.049 97.3661C21.7155 94.9948 23.2979 92.502 24.4883 90.5633C25.0846 89.5921 25.5848 88.7564 25.9502 88.1402C26.1323 87.8333 26.281 87.5807 26.3907 87.3944L26.3918 87.3925L26.4618 87.2735C26.486 87.2326 26.507 87.1968 26.5252 87.1661L26.566 87.0975L26.5814 87.0719C31.1338 79.7033 35.6897 72.2009 39.5652 64.3313C39.9321 63.5864 40.2785 62.8244 40.5959 62.046L40.6108 62.0203L40.621 62.0032C40.6558 61.9444 40.7389 61.804 40.8078 61.6623C40.8739 61.5262 41.039 61.173 41.0602 60.7171C41.0693 60.5212 41.0507 60.314 40.9988 60.1075C47.0217 51.1528 52.782 42.0216 58.3298 32.7754C61.1992 27.9932 63.1535 24.7186 65.5785 19.8368C66.1199 18.7468 66.6442 17.6168 67.1037 16.4454C67.1082 16.4337 67.1126 16.4232 67.1194 16.4078C67.1245 16.3962 67.131 16.3818 67.1398 16.362L67.182 16.2673C67.2239 16.1727 67.2953 16.01 67.3558 15.8247C67.463 15.4968 67.6711 14.705 67.2375 13.8699C67.0789 13.5645 66.7682 13.1658 66.2274 12.9506C65.6975 12.7398 65.2177 12.8135 64.9276 12.9041C64.4557 13.0516 64.1418 13.3489 64.0618 13.4247L64.0558 13.4304C63.9326 13.5466 63.8266 13.6675 63.7767 13.7245L63.7751 13.7263C63.7257 13.7826 63.7099 13.8004 63.7088 13.802C63.3316 14.1801 62.9811 14.5679 62.6595 14.9281L62.4847 15.1243C62.2195 15.4221 61.9746 15.697 61.7205 15.9665C59.1069 18.738 56.6708 21.2228 54.0589 23.8869C53.6701 24.2836 53.2773 24.6842 52.8795 25.0903C53.1506 24.6146 53.4162 24.1412 53.6784 23.674L53.841 23.3843C54.4193 22.3544 54.9848 21.3548 55.574 20.3891C55.6722 20.2406 55.7673 20.0965 55.8576 19.9591C56.2131 19.4183 56.5124 18.9563 56.6651 18.7144C56.6978 18.6627 56.7307 18.6101 56.7577 18.5654C58.5024 16.6325 60.2093 14.5962 61.5894 12.459C62.1497 11.5913 61.9044 10.4329 61.0414 9.8717C60.1784 9.31045 59.0247 9.55889 58.4643 10.4266C57.6976 11.614 56.8332 12.7519 55.9072 13.8663C55.842 13.669 55.7352 13.4552 55.565 13.252C55.2861 12.9191 54.9401 12.738 54.6371 12.6536C54.125 12.511 53.708 12.6325 53.6117 12.6605C53.4565 12.7057 53.3394 12.7617 53.2826 12.7902C53.1635 12.85 53.0701 12.9121 53.0256 12.9423C52.5333 13.2768 52.1327 13.6701 51.8022 14.051C52.811 11.4542 53.6858 8.77303 54.263 6.07818C54.3084 5.86624 54.3534 5.60807 54.3604 5.345C54.3639 5.21335 54.3601 5.01722 54.3135 4.79435C54.2704 4.58813 54.1585 4.20143 53.8309 3.84449C53.4469 3.426 52.924 3.22033 52.4105 3.22079C51.9751 3.22117 51.6461 3.36702 51.4811 3.45313C51.1564 3.62255 50.9222 3.85335 50.8115 3.96685C50.3464 4.44364 49.7644 5.3101 49.246 6.1164C48.7267 6.92399 48.1521 7.86377 47.6207 8.73284L47.5014 8.92794C46.9251 9.87018 46.4221 10.6883 46.0707 11.21C34.737 28.0343 24.0773 45.2457 13.5541 62.5268C11.7304 64.4132 9.94453 66.5469 8.54041 68.8283C8.38832 69.0754 8.17356 69.3511 7.88637 69.7198L7.88615 69.7201C7.69274 69.9684 7.46649 70.2588 7.20441 70.6111C6.92185 70.9909 6.61862 71.4207 6.36604 71.8571C6.12843 72.2676 5.85303 72.8216 5.7475 73.4329C5.7362 73.4984 5.7248 73.5769 5.7172 73.6657C4.76179 74.9604 3.81967 76.2919 2.94127 77.6581C1.94142 79.0486 0.957832 80.4658 0 81.908V0ZM0 109.991V110.565C0.348186 109.892 0.691001 109.217 1.02815 108.539C0.690549 109.028 0.348007 109.512 0 109.991ZM119.473 10.7139C119.97 9.7144 120.479 8.72043 121 7.73165V8.58857C120.943 8.66238 120.886 8.73741 120.83 8.81343C120.368 9.43749 119.916 10.0717 119.473 10.7139ZM120.62 22.414C120.746 22.0809 120.873 21.7479 121 21.4152V21.9232C120.872 22.0886 120.746 22.2522 120.62 22.414ZM67.0301 112.669C67.0156 112.684 67.0176 112.68 67.0347 112.665L67.0301 112.669ZM74.3253 101.494C79.6898 93.4175 84.9113 85.2573 90.052 77.0436C86.8925 81.1321 83.79 85.2681 80.6781 89.4166L80.4026 89.7839L79.7372 90.6708C78.1413 93.6354 76.6049 96.622 75.1737 99.6648C74.889 100.27 74.6054 100.88 74.3253 101.494ZM113.124 32.1763C113.183 32.0079 113.241 31.8399 113.3 31.6724C113.216 31.8753 113.132 32.0778 113.048 32.2799L113.124 32.1763ZM115.291 25.7063C115.281 25.9125 115.252 26.111 115.212 26.2966C115.686 24.9795 116.169 23.6664 116.659 22.357C116.433 22.7487 116.207 23.1412 115.981 23.5344L115.852 23.7587C115.852 23.7672 115.853 23.7755 115.854 23.7838C115.854 23.7909 115.855 23.798 115.855 23.805C115.895 24.3444 115.729 24.805 115.618 25.0684C115.529 25.2783 115.417 25.4916 115.291 25.7063ZM109.972 23.1138C110.733 21.2124 111.508 19.3174 112.306 17.4369C112.128 17.6673 111.951 17.8981 111.774 18.1295L111.747 18.1953C111.509 18.7671 111.191 19.3917 110.848 20.01C110.836 20.1093 110.821 20.1841 110.815 20.2149L110.814 20.2193C110.797 20.3047 110.776 20.3898 110.758 20.462C110.721 20.6074 110.67 20.7864 110.617 20.9728C110.414 21.6903 110.199 22.4039 109.972 23.1138ZM64.2843 90.2026C63.2046 92.0097 62.2576 93.6158 61.3439 95.2402C62.1555 94.4089 62.9719 93.5763 63.8031 92.7284C64.2271 92.2959 64.6551 91.8594 65.0882 91.4171C64.5652 91.0752 64.3582 90.5703 64.2843 90.2026ZM63.8142 100.59C63.8142 100.59 63.8179 100.585 63.8237 100.577C63.8168 100.587 63.8142 100.59 63.8142 100.59ZM108.499 16.1991C108.501 16.1721 108.503 16.1564 108.505 16.1543C108.506 16.1523 108.505 16.1634 108.501 16.1899L108.499 16.1991ZM53.4782 6.5766C53.4827 6.57196 53.4803 6.5736 53.4707 6.58342L53.4661 6.58819C53.4719 6.58289 53.4759 6.57894 53.4782 6.5766ZM30.4488 42.2093C35.5895 33.9955 40.8109 25.8354 46.1755 17.7588C45.8954 18.3728 45.6118 18.9828 45.3271 19.5881C43.8959 22.6309 42.3595 25.6175 40.7636 28.5821L40.0982 29.469L39.8227 29.8363C36.7108 33.9847 33.6083 38.1208 30.4488 42.2093ZM7.20127 87.5805C7.25976 87.4129 7.31815 87.2449 7.37638 87.0765L7.45322 86.973C7.3686 87.175 7.28457 87.3775 7.20127 87.5805ZM5.28841 92.9563C5.2488 93.1418 5.21947 93.3404 5.20991 93.5466C5.08342 93.7612 4.97195 93.9746 4.88305 94.1844C4.77145 94.4479 4.60536 94.9084 4.64531 95.4479C4.64644 95.4631 4.64775 95.4785 4.64924 95.4941L4.51999 95.7185L4.51928 95.7197C4.29305 96.1125 4.0672 96.5046 3.84133 96.8959C4.33183 95.5865 4.81445 94.2734 5.28841 92.9563ZM8.19483 101.816C8.99233 99.9354 9.76763 98.0404 10.5289 96.139C10.3022 96.849 10.0867 97.5626 9.88333 98.28C9.83048 98.4665 9.78025 98.6454 9.74308 98.7908C9.72462 98.863 9.7039 98.9481 9.6867 99.0335L9.6858 99.038C9.67957 99.0688 9.66445 99.1435 9.65279 99.2429C9.30974 99.8612 8.99206 100.486 8.75409 101.058L8.72695 101.123C8.55013 101.355 8.37277 101.586 8.19483 101.816ZM59.1569 24.0126C58.2432 25.637 57.2962 27.2431 56.2165 29.0502C56.1426 28.6826 55.9356 28.1776 55.4126 27.8357C55.8457 27.3934 56.2736 26.957 56.6977 26.5244L56.7012 26.5208C57.5312 25.6742 58.3464 24.8428 59.1569 24.0126ZM56.6866 18.6626C56.6866 18.6626 56.6829 18.668 56.6771 18.6759C56.684 18.6661 56.6866 18.6626 56.6866 18.6626ZM11.9997 103.063L12.0013 103.054C11.9985 103.107 11.9911 103.116 11.9997 103.063Z" fill="#3E454C"/>
</svg>
