<svg width="64" height="107" viewBox="0 0 64 107" fill="none" xmlns="http://www.w3.org/2000/svg">
<path d="M31.2665 19.9445C40.3368 22.7668 42.1127 10.8135 35.3978 4.07459C28.6829 -2.66432 16.7723 -0.882074 19.5845 8.22071C20.4103 10.8938 21.8777 13.4103 23.9865 15.5267C26.0954 17.6432 28.6029 19.1158 31.2665 19.9445Z" fill="url(#paint0_linear_1252_27)"/>
<path d="M37.2658 29.1888C42.2867 26.2915 47.0165 20.8752 52.8083 20.8752C58.9893 20.8752 64 25.9039 64 32.107V74.5521C64 92.2885 49.6731 106.667 32 106.667H10.6667C4.77563 106.667 0 101.874 0 95.9618C0 90.0497 4.77563 85.257 10.6667 85.257H21.3333C33.1154 85.257 42.6667 75.6715 42.6667 63.8473V52.9898C42.6667 47.0776 37.891 42.2849 32 42.2849C26.109 42.2849 21.3333 47.0776 21.3333 52.9898V53.1425C21.3333 59.0546 16.5577 63.8473 10.6667 63.8473C4.77563 63.8473 0 59.0546 0 53.1425V32.0615C0 25.8835 4.99039 20.8752 11.1464 20.8752C16.9146 20.8752 21.6221 26.2629 26.6115 29.1679C28.1831 30.083 30.0089 30.6069 31.9566 30.6069C33.8895 30.6069 35.7023 30.0909 37.2658 29.1888Z" fill="url(#paint1_linear_1252_27)"/>
<defs>
<linearGradient id="paint0_linear_1252_27" x1="0.0860987" y1="53.3333" x2="63.9139" y2="53.3333" gradientUnits="userSpaceOnUse">
<stop stop-color="#2CBDEE"/>
<stop offset="1" stop-color="#C53156"/>
</linearGradient>
<linearGradient id="paint1_linear_1252_27" x1="0.0860987" y1="53.3333" x2="63.9139" y2="53.3333" gradientUnits="userSpaceOnUse">
<stop stop-color="#2CBDEE"/>
<stop offset="1" stop-color="#C53156"/>
</linearGradient>
</defs>
</svg>
