<svg width="128" height="128" viewBox="0 0 128 128" fill="none" xmlns="http://www.w3.org/2000/svg">
<path fill-rule="evenodd" clip-rule="evenodd" d="M64 128C99.3462 128 128 99.3462 128 64C128 28.6538 99.3462 0 64 0C28.6538 0 0 28.6538 0 64C0 99.3462 28.6538 128 64 128ZM66.9124 21.7782C72.668 27.5544 71.1458 37.8001 63.3713 35.381C61.0882 34.6707 58.9389 33.4084 57.1313 31.5943C55.3237 29.7802 54.066 27.6233 53.3581 25.332C50.9477 17.5297 61.1568 16.002 66.9124 21.7782ZM72.4265 40.6139C71.1234 41.5831 69.8302 42.5449 68.5135 43.3047C67.1734 44.078 65.6196 44.5202 63.9628 44.5202C62.2933 44.5202 60.7284 44.0711 59.3813 43.2868C58.0832 42.531 56.8074 41.5792 55.5217 40.6199C52.5714 38.4188 49.569 36.1788 46.1254 36.1788C40.8489 36.1788 36.5714 40.4716 36.5714 45.767V63.8364C36.5714 68.9039 40.6648 73.012 45.7143 73.012C50.7637 73.012 54.8571 68.9039 54.8571 63.8364V63.7055C54.8571 58.638 58.9505 54.5299 64 54.5299C69.0495 54.5299 73.1429 58.638 73.1429 63.7055V73.012C73.1429 83.147 64.9561 91.3631 54.8571 91.3631H45.7143C40.6648 91.3631 36.5714 95.4712 36.5714 100.539C36.5714 105.606 40.6648 109.714 45.7143 109.714H64C79.1484 109.714 91.4286 97.3902 91.4286 82.1876V45.806C91.4286 40.489 87.1337 36.1788 81.8357 36.1788C78.3901 36.1788 75.3829 38.4152 72.4265 40.6139Z" fill="url(#paint0_linear_1252_35)"/>
<defs>
<linearGradient id="paint0_linear_1252_35" x1="0.172197" y1="64" x2="127.828" y2="64" gradientUnits="userSpaceOnUse">
<stop stop-color="#2CBDEE"/>
<stop offset="1" stop-color="#C53156"/>
</linearGradient>
</defs>
</svg>
