<svg width="128" height="128" viewBox="0 0 128 128" fill="none" xmlns="http://www.w3.org/2000/svg">
<path fill-rule="evenodd" clip-rule="evenodd" d="M64 124.675C97.5101 124.675 124.675 97.5101 124.675 64C124.675 30.4899 97.5101 3.32468 64 3.32468C30.4899 3.32468 3.32468 30.4899 3.32468 64C3.32468 97.5101 30.4899 124.675 64 124.675ZM64 128C99.3462 128 128 99.3462 128 64C128 28.6538 99.3462 0 64 0C28.6538 0 0 28.6538 0 64C0 99.3462 28.6538 128 64 128Z" fill="url(#paint0_linear_1252_3)"/>
<path fill-rule="evenodd" clip-rule="evenodd" d="M56.5695 24.4061C57.1198 26.193 58.0966 27.8756 59.5075 29.2962C60.9183 30.7167 62.5873 31.6983 64.3574 32.2509C65.617 32.6441 66.119 32.3895 66.2514 32.3072C66.4321 32.1948 66.7688 31.8633 66.9497 31.0086C67.3297 29.2127 66.692 26.3326 64.5548 24.1806C62.418 22.0292 59.5665 21.3939 57.7973 21.7734C56.957 21.9537 56.6294 22.289 56.516 22.4739C56.4298 22.6144 56.1767 23.1305 56.5695 24.4061ZM87.9916 82.1621V45.8314C87.9916 42.3443 85.1871 39.5377 81.7526 39.5377C80.3126 39.5377 78.7631 40.2142 76.7316 41.5945C75.9588 42.1197 75.2104 42.678 74.3995 43.2829C74.1535 43.4665 73.9017 43.6542 73.6418 43.8467C72.572 44.6389 71.3899 45.4893 70.1465 46.2092C68.3236 47.2645 66.2085 47.8674 63.963 47.8674C61.7002 47.8674 59.57 47.2552 57.7378 46.1849C56.504 45.4642 55.33 44.615 54.2675 43.8252C54.0211 43.642 53.7819 43.463 53.5479 43.2879C52.7297 42.6756 51.9753 42.1111 51.1977 41.582C49.1793 40.2087 47.6392 39.5377 46.2088 39.5377C42.7956 39.5377 40.0085 42.3268 40.0085 45.7924V63.8366C40.0085 67.0746 42.6124 69.6793 45.7996 69.6793C48.9868 69.6793 51.5906 67.0746 51.5906 63.8366V63.7059C51.5906 56.823 57.1354 51.2231 64 51.2231C70.8647 51.2231 76.4094 56.823 76.4094 63.7059V72.9993C76.4094 84.9426 66.7904 94.6448 54.8998 94.6448H45.7996C42.6124 94.6448 40.0085 97.2495 40.0085 100.488C40.0085 103.726 42.6124 106.33 45.7996 106.33H64C77.2391 106.33 87.9916 95.521 87.9916 82.1621ZM66.8989 21.8372C72.6277 27.6054 71.1126 37.8367 63.3743 35.421C61.1018 34.7116 58.9626 33.4512 57.1634 31.6396C55.3642 29.8281 54.1123 27.6741 53.4078 25.3861C51.0085 17.5946 61.1701 16.0691 66.8989 21.8372ZM72.3873 40.6466C71.0903 41.6144 69.803 42.5749 68.4925 43.3336C67.1587 44.1058 65.6121 44.5474 63.963 44.5474C62.3013 44.5474 60.7436 44.099 59.4029 43.3157C58.1108 42.561 56.841 41.6105 55.5612 40.6526C52.6248 38.4546 49.6363 36.2176 46.2088 36.2176C40.9569 36.2176 36.6993 40.5044 36.6993 45.7924V63.8366C36.6993 68.897 40.7737 72.9993 45.7996 72.9993C50.8255 72.9993 54.8998 68.897 54.8998 63.8366V63.7059C54.8998 58.6454 58.9741 54.5431 64 54.5431C69.026 54.5431 73.1003 58.6454 73.1003 63.7059V72.9993C73.1003 83.1202 64.9516 91.3248 54.8998 91.3248H45.7996C40.7737 91.3248 36.6993 95.4271 36.6993 100.488C36.6993 105.548 40.7737 109.65 45.7996 109.65H64C79.0778 109.65 91.3007 97.3434 91.3007 82.1621V45.8314C91.3007 40.5219 87.0259 36.2176 81.7526 36.2176C78.323 36.2176 75.3299 38.451 72.3873 40.6466Z" fill="url(#paint1_linear_1252_3)"/>
<defs>
<linearGradient id="paint0_linear_1252_3" x1="0.172197" y1="64" x2="127.828" y2="64" gradientUnits="userSpaceOnUse">
<stop stop-color="#2CBDEE"/>
<stop offset="1" stop-color="#C53156"/>
</linearGradient>
<linearGradient id="paint1_linear_1252_3" x1="36.7728" y1="64" x2="91.2273" y2="64" gradientUnits="userSpaceOnUse">
<stop stop-color="#2CBDEE"/>
<stop offset="1" stop-color="#C53156"/>
</linearGradient>
</defs>
</svg>
