<svg width="128" height="128" viewBox="0 0 128 128" fill="none" xmlns="http://www.w3.org/2000/svg">
<path fill-rule="evenodd" clip-rule="evenodd" d="M64 124.675C97.5101 124.675 124.675 97.5101 124.675 64C124.675 30.4899 97.5101 3.32468 64 3.32468C30.4899 3.32468 3.32468 30.4899 3.32468 64C3.32468 97.5101 30.4899 124.675 64 124.675ZM64 128C99.3462 128 128 99.3462 128 64C128 28.6538 99.3462 0 64 0C28.6538 0 0 28.6538 0 64C0 99.3462 28.6538 128 64 128Z" fill="url(#paint0_linear_1252_30)"/>
<path d="M63.3713 35.381C71.1458 37.8001 72.668 27.5544 66.9124 21.7782C61.1568 16.0019 50.9476 17.5296 53.3581 25.332C54.0659 27.6232 55.3237 29.7802 57.1313 31.5943C58.9389 33.4083 61.0882 34.6706 63.3713 35.381Z" fill="url(#paint1_linear_1252_30)"/>
<path d="M68.5135 43.3046C72.8172 40.8212 76.8713 36.1787 81.8357 36.1787C87.1337 36.1787 91.4286 40.489 91.4286 45.8059V82.1875C91.4286 97.3901 79.1484 109.714 64 109.714H45.7143C40.6648 109.714 36.5714 105.606 36.5714 100.539C36.5714 95.4711 40.6648 91.3631 45.7143 91.3631H54.8571C64.956 91.3631 73.1428 83.147 73.1428 73.0119V63.7054C73.1428 58.6379 69.0494 54.5299 64 54.5299C58.9505 54.5299 54.8571 58.6379 54.8571 63.7054V63.8363C54.8571 68.9039 50.7637 73.0119 45.7143 73.0119C40.6648 73.0119 36.5714 68.9039 36.5714 63.8363V45.7669C36.5714 40.4715 40.8489 36.1787 46.1254 36.1787C51.0697 36.1787 55.1047 40.7967 59.3813 43.2867C60.7283 44.0711 62.2933 44.5201 63.9628 44.5201C65.6196 44.5201 67.1734 44.0779 68.5135 43.3046Z" fill="url(#paint2_linear_1252_30)"/>
<defs>
<linearGradient id="paint0_linear_1252_30" x1="0.172197" y1="64" x2="127.828" y2="64" gradientUnits="userSpaceOnUse">
<stop stop-color="#2CBDEE"/>
<stop offset="1" stop-color="#C53156"/>
</linearGradient>
<linearGradient id="paint1_linear_1252_30" x1="36.6452" y1="63.9999" x2="91.3548" y2="63.9999" gradientUnits="userSpaceOnUse">
<stop stop-color="#2CBDEE"/>
<stop offset="1" stop-color="#C53156"/>
</linearGradient>
<linearGradient id="paint2_linear_1252_30" x1="36.6452" y1="63.9999" x2="91.3548" y2="63.9999" gradientUnits="userSpaceOnUse">
<stop stop-color="#2CBDEE"/>
<stop offset="1" stop-color="#C53156"/>
</linearGradient>
</defs>
</svg>
