<svg width="64" height="107" viewBox="0 0 64 107" fill="none" xmlns="http://www.w3.org/2000/svg">
<path fill-rule="evenodd" clip-rule="evenodd" d="M23.2904 7.07579C23.9354 9.16349 25.0803 11.1292 26.7342 12.7889C28.3878 14.4485 30.3441 15.5953 32.4189 16.2409C33.8953 16.7003 34.4838 16.4028 34.6389 16.3066C34.8507 16.1753 35.2454 15.7881 35.4574 14.7895C35.9028 12.6914 35.1553 9.32648 32.6502 6.8124C30.1456 4.29887 26.8033 3.55663 24.7296 4.00005C23.7447 4.21066 23.3607 4.60235 23.2277 4.81841C23.1267 4.98252 22.83 5.58548 23.2904 7.07579ZM60.1212 74.5521V32.107C60.1212 28.033 56.8341 24.754 52.8083 24.754C51.1205 24.754 49.3042 25.5444 46.9231 27.1571C46.0172 27.7706 45.14 28.4229 44.1895 29.1296C43.9012 29.344 43.6061 29.5634 43.3014 29.7883C42.0475 30.7138 40.6619 31.7073 39.2044 32.5483C37.0678 33.7813 34.5886 34.4857 31.9566 34.4857C29.3043 34.4857 26.8074 33.7704 24.6598 32.5199C23.2137 31.6779 21.8376 30.6859 20.5922 29.7632C20.3033 29.5492 20.023 29.34 19.7487 29.1355C18.7896 28.4201 17.9054 27.7605 16.994 27.1424C14.6282 25.538 12.8229 24.754 11.1464 24.754C7.14564 24.754 3.87879 28.0126 3.87879 32.0615V53.1425C3.87879 56.9255 6.93088 59.9685 10.6667 59.9685C14.4025 59.9685 17.4545 56.9255 17.4545 53.1425V52.9898C17.4545 44.9485 23.9537 38.4061 32 38.4061C40.0463 38.4061 46.5455 44.9485 46.5455 52.9898V63.8473C46.5455 77.8007 35.2707 89.1358 21.3333 89.1358H10.6667C6.93088 89.1358 3.87879 92.1788 3.87879 95.9618C3.87879 99.7448 6.93088 102.788 10.6667 102.788H32C47.5179 102.788 60.1212 90.1594 60.1212 74.5521ZM35.3978 4.07459C42.1127 10.8135 40.3368 22.7668 31.2665 19.9445C28.6029 19.1158 26.0954 17.6432 23.9865 15.5267C21.8777 13.4103 20.4103 10.8938 19.5845 8.22071C16.7723 -0.882074 28.6829 -2.66432 35.3978 4.07459ZM41.831 26.0496C40.3107 27.1803 38.8019 28.3024 37.2658 29.1888C35.7023 30.0909 33.8895 30.6069 31.9566 30.6069C30.0089 30.6069 28.1831 30.083 26.6115 29.1679C25.0971 28.2862 23.6086 27.1757 22.1086 26.0566C18.6667 23.4886 15.1638 20.8752 11.1464 20.8752C4.99039 20.8752 0 25.8835 0 32.0615V53.1425C0 59.0546 4.77563 63.8473 10.6667 63.8473C16.5577 63.8473 21.3333 59.0546 21.3333 53.1425V52.9898C21.3333 47.0776 26.109 42.2849 32 42.2849C37.891 42.2849 42.6667 47.0776 42.6667 52.9898V63.8473C42.6667 75.6715 33.1154 85.257 21.3333 85.257H10.6667C4.77563 85.257 0 90.0497 0 95.9618C0 101.874 4.77563 106.667 10.6667 106.667H32C49.6731 106.667 64 92.2885 64 74.5521V32.107C64 25.9039 58.9893 20.8752 52.8083 20.8752C48.7884 20.8752 45.2801 23.4844 41.831 26.0496Z" fill="url(#paint0_linear_1252_28)"/>
<defs>
<linearGradient id="paint0_linear_1252_28" x1="0.0860987" y1="53.3333" x2="63.9139" y2="53.3333" gradientUnits="userSpaceOnUse">
<stop stop-color="#2CBDEE"/>
<stop offset="1" stop-color="#C53156"/>
</linearGradient>
</defs>
</svg>
