<svg width="44" height="18" viewBox="0 0 44 18" fill="none" xmlns="http://www.w3.org/2000/svg">
<path fill-rule="evenodd" clip-rule="evenodd" d="M42.9647 16.0157V17H38.0434V5.32618L28.979 17H1V16.0157H3.22031V1H5.92132V16.0157H12.0449V3.40343H8.79453V1H14.6085V16.0157H20.7627V3.40343H17.5123V1H23.3264V16.0157H26.0491V1H28.7501V12.9485L38.0434 1H40.7444V16.0157H42.9647ZM41.2444 15.5157H43.4647V17.5H37.5434V6.78539L29.2238 17.5H0.5V15.5157H2.72031V0.5H6.42132V15.5157H11.5449V3.90343H8.29453V0.5H15.1085V15.5157H20.2627V3.90343H17.0123V0.5H23.8264V15.5157H25.5491V0.5H29.2501V11.4912L37.7989 0.5H41.2444V15.5157Z" fill="url(#paint0_linear_1132_2)"/>
<defs>
<linearGradient id="paint0_linear_1132_2" x1="0.5578" y1="9" x2="43.4069" y2="9" gradientUnits="userSpaceOnUse">
<stop stop-color="#E62600"/>
<stop offset="1" stop-color="#6B6FB0"/>
</linearGradient>
</defs>
</svg>
