<svg width="230" height="91" viewBox="0 0 230 91" fill="none" xmlns="http://www.w3.org/2000/svg">
<path fill-rule="evenodd" clip-rule="evenodd" d="M227.111 82.9818V88.2459H200.791V25.8115L152.312 88.2459H2.67412V82.9818H14.5489V2.67412H28.9945V82.9818H61.7448V15.5282H44.3611V2.67412H75.4558V82.9818H108.37V15.5282H90.986V2.67412H122.081V82.9818H136.643V2.67412H151.088V66.5775L200.791 2.67412H215.236V82.9818H227.111ZM217.911 80.3077H229.785V90.92H198.117V33.6157L153.622 90.92H0V80.3077H11.8748V0H31.6686V80.3077H59.0706V18.2024H41.687V0H78.1299V80.3077H105.696V18.2024H88.3119V0H124.755V80.3077H133.969V0H153.762V58.7837L199.483 0H217.911V80.3077Z" fill="url(#paint0_linear_1252_25)"/>
<defs>
<linearGradient id="paint0_linear_1252_25" x1="0.309128" y1="45.46" x2="229.476" y2="45.46" gradientUnits="userSpaceOnUse">
<stop stop-color="#2CBDEE"/>
<stop offset="1" stop-color="#C53156"/>
</linearGradient>
</defs>
</svg>
