<svg width="256" height="180" viewBox="0 0 256 180" fill="none" xmlns="http://www.w3.org/2000/svg">
<path d="M168.712 86.7154V88.3917H134.982V86.7154H144.177C141.982 85.4938 140.242 83.8175 138.957 81.6863C137.699 79.5551 137.07 77.1771 137.07 74.5521C137.07 70.5496 138.489 67.2099 141.326 64.533C144.164 61.83 147.671 60.4785 151.847 60.4785C156.023 60.4785 159.53 61.83 162.368 64.533C165.206 67.2099 166.624 70.5496 166.624 74.5521C166.624 77.1511 165.982 79.5292 164.697 81.6863C163.439 83.8435 161.712 85.5198 159.517 86.7154H168.712ZM158.874 67.5738C156.974 65.6505 154.631 64.6889 151.847 64.6889C149.063 64.6889 146.707 65.6505 144.78 67.5738C142.879 69.4971 141.929 71.8361 141.929 74.5911C141.929 77.32 142.879 79.6461 144.78 81.5694C146.707 83.4926 149.063 84.4542 151.847 84.4542C154.631 84.4542 156.974 83.4926 158.874 81.5694C160.802 79.6461 161.766 77.32 161.766 74.5911C161.766 71.8361 160.802 69.4971 158.874 67.5738Z" fill="url(#paint0_linear_1252_39)"/>
<path d="M196.173 86.7154V88.3917H168.706V86.7154H172.601V61.1413H182.239C186.495 61.1413 189.6 61.934 191.555 63.5194C193.509 65.1048 194.486 67.5478 194.486 70.8485C194.486 74.1492 193.482 76.5663 191.474 78.0997C189.493 79.6331 186.442 80.3998 182.319 80.3998H177.34V86.7154H196.173ZM182.841 76.2284C185.464 76.2284 187.245 75.7476 188.182 74.786C189.145 73.7984 189.627 72.3689 189.627 70.4977C189.627 68.6004 189.025 67.2619 187.82 66.4822C186.616 65.7025 184.728 65.3127 182.158 65.3127H177.34V76.2284H182.841Z" fill="url(#paint1_linear_1252_39)"/>
<path d="M200.051 86.7154V61.1413H219.768V65.4686H204.79V72.6808H218.242V76.7742H204.79V84.0644H220.25V86.7154H224.145V88.3917H196.156V86.7154H200.051Z" fill="url(#paint2_linear_1252_39)"/>
<path d="M226.325 86.7154V61.1413H231.063L247.367 81.4914V61.1413H252.105V86.7154H256V88.3917H246.965L231.063 68.5094V88.3917H222.43V86.7154H226.325Z" fill="url(#paint3_linear_1252_39)"/>
<path d="M168.712 86.7154V88.3917H134.982V86.7154H144.177C141.982 85.4938 140.242 83.8175 138.957 81.6863C137.699 79.5551 137.07 77.1771 137.07 74.5521C137.07 70.5496 138.489 67.2099 141.326 64.533C144.164 61.83 147.671 60.4785 151.847 60.4785C156.023 60.4785 159.53 61.83 162.368 64.533C165.206 67.2099 166.624 70.5496 166.624 74.5521C166.624 77.1511 165.982 79.5292 164.697 81.6863C163.439 83.8435 161.712 85.5198 159.517 86.7154H168.712ZM158.874 67.5738C156.974 65.6505 154.631 64.6889 151.847 64.6889C149.063 64.6889 146.707 65.6505 144.78 67.5738C142.879 69.4971 141.929 71.8361 141.929 74.5911C141.929 77.32 142.879 79.6461 144.78 81.5694C146.707 83.4926 149.063 84.4542 151.847 84.4542C154.631 84.4542 156.974 83.4926 158.874 81.5694C160.802 79.6461 161.766 77.32 161.766 74.5911C161.766 71.8361 160.802 69.4971 158.874 67.5738Z" fill="url(#paint4_linear_1252_39)"/>
<path d="M196.173 86.7154V88.3917H168.706V86.7154H172.601V61.1413H182.239C186.495 61.1413 189.6 61.934 191.555 63.5194C193.509 65.1048 194.486 67.5478 194.486 70.8485C194.486 74.1492 193.482 76.5663 191.474 78.0997C189.493 79.6331 186.442 80.3998 182.319 80.3998H177.34V86.7154H196.173ZM182.841 76.2284C185.464 76.2284 187.245 75.7476 188.182 74.786C189.145 73.7984 189.627 72.3689 189.627 70.4977C189.627 68.6004 189.025 67.2619 187.82 66.4822C186.616 65.7025 184.728 65.3127 182.158 65.3127H177.34V76.2284H182.841Z" fill="url(#paint5_linear_1252_39)"/>
<path d="M200.051 86.7154V61.1413H219.768V65.4686H204.79V72.6808H218.242V76.7742H204.79V84.0644H220.25V86.7154H224.145V88.3917H196.156V86.7154H200.051Z" fill="url(#paint6_linear_1252_39)"/>
<path d="M226.325 86.7154V61.1413H231.063L247.367 81.4914V61.1413H252.105V86.7154H256V88.3917H246.965L231.063 68.5094V88.3917H222.43V86.7154H226.325Z" fill="url(#paint7_linear_1252_39)"/>
<path d="M152.317 110.535V111.653H134.982V110.535H138.504C137.623 110.102 136.816 109.565 136.082 108.924L138.119 106.611C140.063 108.205 142.081 109.002 144.172 109.002C145.218 109.002 146.043 108.794 146.648 108.378C147.272 107.945 147.584 107.382 147.584 106.689C147.584 105.978 147.29 105.432 146.703 105.051C146.135 104.653 145.144 104.298 143.732 103.986C142.319 103.656 141.246 103.362 140.512 103.102C139.779 102.825 139.127 102.47 138.559 102.036C137.422 101.222 136.853 99.9746 136.853 98.2939C136.853 96.6132 137.495 95.3224 138.779 94.4214C140.081 93.5031 141.686 93.0439 143.594 93.0439C144.823 93.0439 146.043 93.2345 147.254 93.6157C148.464 93.9969 149.51 94.534 150.391 95.2271L148.657 97.5402C148.088 97.055 147.318 96.6565 146.346 96.3446C145.374 96.0328 144.41 95.8768 143.457 95.8768C142.521 95.8768 141.751 96.0588 141.145 96.4226C140.54 96.7865 140.237 97.3409 140.237 98.086C140.237 98.8137 140.54 99.3768 141.145 99.7753C141.751 100.156 143.035 100.572 144.997 101.023C146.979 101.473 148.464 102.106 149.455 102.92C150.464 103.734 150.968 104.878 150.968 106.351C150.968 108.135 150.271 109.53 148.877 110.535H152.317Z" fill="url(#paint8_linear_1252_39)"/>
<path d="M175.426 110.535V111.653H152.313V110.535H158.614C157.11 109.721 155.918 108.603 155.037 107.182C154.175 105.762 153.744 104.176 153.744 102.426C153.744 99.758 154.716 97.5315 156.661 95.7469C158.605 93.9449 161.008 93.0439 163.87 93.0439C166.732 93.0439 169.135 93.9449 171.079 95.7469C173.023 97.5315 173.996 99.758 173.996 102.426C173.996 104.159 173.555 105.744 172.675 107.182C171.813 108.621 170.63 109.738 169.125 110.535H175.426ZM168.685 97.7741C167.383 96.4919 165.778 95.8508 163.87 95.8508C161.962 95.8508 160.348 96.4919 159.027 97.7741C157.725 99.0563 157.074 100.616 157.074 102.452C157.074 104.272 157.725 105.822 159.027 107.104C160.348 108.387 161.962 109.028 163.87 109.028C165.778 109.028 167.383 108.387 168.685 107.104C170.006 105.822 170.666 104.272 170.666 102.452C170.666 100.616 170.006 99.0563 168.685 97.7741Z" fill="url(#paint9_linear_1252_39)"/>
<path d="M196.554 110.535V111.653H175.422V110.535H181.118C178.935 109.097 177.844 106.819 177.844 103.7V93.4857H181.09V103.57C181.09 105.233 181.531 106.55 182.411 107.52C183.292 108.491 184.484 108.976 185.988 108.976C187.492 108.976 188.685 108.491 189.565 107.52C190.446 106.55 190.886 105.233 190.886 103.57V93.4857H194.133V103.7C194.133 106.836 193.032 109.114 190.831 110.535H196.554Z" fill="url(#paint10_linear_1252_39)"/>
<path d="M217.262 110.535V111.653H211.318L206.723 105.545H202.458V111.653H196.543V110.535H199.212V93.4857H206.366C209.301 93.4857 211.401 93.9536 212.667 94.8892C213.932 95.8248 214.565 97.3236 214.565 99.3855C214.565 102.383 213.18 104.272 210.41 105.051L214.593 110.535H217.262ZM206.503 102.764C208.338 102.764 209.585 102.496 210.245 101.958C210.906 101.421 211.236 100.564 211.236 99.3855C211.236 98.1899 210.896 97.3756 210.218 96.9424C209.539 96.4919 208.328 96.2667 206.586 96.2667H202.458V102.764H206.503Z" fill="url(#paint11_linear_1252_39)"/>
<path d="M236.813 110.535V111.653H216.561V110.535H222.67C221.22 109.721 220.074 108.612 219.23 107.208C218.405 105.805 217.992 104.22 217.992 102.452C217.992 99.784 218.964 97.5488 220.909 95.7469C222.871 93.9449 225.339 93.0439 228.31 93.0439C231.3 93.0439 233.795 94.0835 235.795 96.1627L233.731 98.2939C232.814 97.4622 231.942 96.8818 231.117 96.5526C230.31 96.2234 229.356 96.0587 228.255 96.0587C226.311 96.0587 224.678 96.6565 223.358 97.8521C222.037 99.0303 221.376 100.546 221.376 102.4C221.376 104.237 222.028 105.779 223.33 107.026C224.651 108.257 226.21 108.872 228.008 108.872C229.127 108.872 230.09 108.699 230.897 108.352C231.704 107.988 232.548 107.416 233.428 106.637L235.519 108.664C234.712 109.496 233.942 110.119 233.208 110.535H236.813Z" fill="url(#paint12_linear_1252_39)"/>
<path d="M239.491 110.535V93.4857H253.001V96.3706H242.737V101.179H251.955V103.908H242.737V108.768H253.331V110.535H256V111.653H236.822V110.535H239.491Z" fill="url(#paint13_linear_1252_39)"/>
<path d="M152.317 110.535V111.653H134.982V110.535H138.504C137.623 110.102 136.816 109.565 136.082 108.924L138.119 106.611C140.063 108.205 142.081 109.002 144.172 109.002C145.218 109.002 146.043 108.794 146.648 108.378C147.272 107.945 147.584 107.382 147.584 106.689C147.584 105.978 147.29 105.432 146.703 105.051C146.135 104.653 145.144 104.298 143.732 103.986C142.319 103.656 141.246 103.362 140.512 103.102C139.779 102.825 139.127 102.47 138.559 102.036C137.422 101.222 136.853 99.9746 136.853 98.2939C136.853 96.6132 137.495 95.3224 138.779 94.4214C140.081 93.5031 141.686 93.0439 143.594 93.0439C144.823 93.0439 146.043 93.2345 147.254 93.6157C148.464 93.9969 149.51 94.534 150.391 95.2271L148.657 97.5402C148.088 97.055 147.318 96.6565 146.346 96.3446C145.374 96.0328 144.41 95.8768 143.457 95.8768C142.521 95.8768 141.751 96.0588 141.145 96.4226C140.54 96.7865 140.237 97.3409 140.237 98.086C140.237 98.8137 140.54 99.3768 141.145 99.7753C141.751 100.156 143.035 100.572 144.997 101.023C146.979 101.473 148.464 102.106 149.455 102.92C150.464 103.734 150.968 104.878 150.968 106.351C150.968 108.135 150.271 109.53 148.877 110.535H152.317Z" fill="url(#paint14_linear_1252_39)"/>
<path d="M175.426 110.535V111.653H152.313V110.535H158.614C157.11 109.721 155.918 108.603 155.037 107.182C154.175 105.762 153.744 104.176 153.744 102.426C153.744 99.758 154.716 97.5315 156.661 95.7469C158.605 93.9449 161.008 93.0439 163.87 93.0439C166.732 93.0439 169.135 93.9449 171.079 95.7469C173.023 97.5315 173.996 99.758 173.996 102.426C173.996 104.159 173.555 105.744 172.675 107.182C171.813 108.621 170.63 109.738 169.125 110.535H175.426ZM168.685 97.7741C167.383 96.4919 165.778 95.8508 163.87 95.8508C161.962 95.8508 160.348 96.4919 159.027 97.7741C157.725 99.0563 157.074 100.616 157.074 102.452C157.074 104.272 157.725 105.822 159.027 107.104C160.348 108.387 161.962 109.028 163.87 109.028C165.778 109.028 167.383 108.387 168.685 107.104C170.006 105.822 170.666 104.272 170.666 102.452C170.666 100.616 170.006 99.0563 168.685 97.7741Z" fill="url(#paint15_linear_1252_39)"/>
<path d="M196.554 110.535V111.653H175.422V110.535H181.118C178.935 109.097 177.844 106.819 177.844 103.7V93.4857H181.09V103.57C181.09 105.233 181.531 106.55 182.411 107.52C183.292 108.491 184.484 108.976 185.988 108.976C187.492 108.976 188.685 108.491 189.565 107.52C190.446 106.55 190.886 105.233 190.886 103.57V93.4857H194.133V103.7C194.133 106.836 193.032 109.114 190.831 110.535H196.554Z" fill="url(#paint16_linear_1252_39)"/>
<path d="M217.262 110.535V111.653H211.318L206.723 105.545H202.458V111.653H196.543V110.535H199.212V93.4857H206.366C209.301 93.4857 211.401 93.9536 212.667 94.8892C213.932 95.8248 214.565 97.3236 214.565 99.3855C214.565 102.383 213.18 104.272 210.41 105.051L214.593 110.535H217.262ZM206.503 102.764C208.338 102.764 209.585 102.496 210.245 101.958C210.906 101.421 211.236 100.564 211.236 99.3855C211.236 98.1899 210.896 97.3756 210.218 96.9424C209.539 96.4919 208.328 96.2667 206.586 96.2667H202.458V102.764H206.503Z" fill="url(#paint17_linear_1252_39)"/>
<path d="M236.813 110.535V111.653H216.561V110.535H222.67C221.22 109.721 220.074 108.612 219.23 107.208C218.405 105.805 217.992 104.22 217.992 102.452C217.992 99.784 218.964 97.5488 220.909 95.7469C222.871 93.9449 225.339 93.0439 228.31 93.0439C231.3 93.0439 233.795 94.0835 235.795 96.1627L233.731 98.2939C232.814 97.4622 231.942 96.8818 231.117 96.5526C230.31 96.2234 229.356 96.0587 228.255 96.0587C226.311 96.0587 224.678 96.6565 223.358 97.8521C222.037 99.0303 221.376 100.546 221.376 102.4C221.376 104.237 222.028 105.779 223.33 107.026C224.651 108.257 226.21 108.872 228.008 108.872C229.127 108.872 230.09 108.699 230.897 108.352C231.704 107.988 232.548 107.416 233.428 106.637L235.519 108.664C234.712 109.496 233.942 110.119 233.208 110.535H236.813Z" fill="url(#paint18_linear_1252_39)"/>
<path d="M239.491 110.535V93.4857H253.001V96.3706H242.737V101.179H251.955V103.908H242.737V108.768H253.331V110.535H256V111.653H236.822V110.535H239.491Z" fill="url(#paint19_linear_1252_39)"/>
<path fill-rule="evenodd" clip-rule="evenodd" d="M79.1485 34.0737C79.9225 36.5777 81.2964 38.9353 83.281 40.926C85.2654 42.9165 87.6129 44.292 90.1027 45.0663C91.8744 45.6173 92.5805 45.2605 92.7666 45.1452C93.0208 44.9876 93.4944 44.5232 93.7489 43.3255C94.2834 40.809 93.3864 36.7732 90.3803 33.7578C87.3748 30.7431 83.3639 29.8529 80.8755 30.3847C79.6936 30.6373 79.2328 31.1071 79.0732 31.3662C78.952 31.5631 78.596 32.2863 79.1485 34.0737ZM123.345 115.004V64.096C123.345 59.2097 119.401 55.2769 114.57 55.2769C112.545 55.2769 110.365 56.2249 107.508 58.1591C106.421 58.8949 105.368 59.6773 104.227 60.525C103.881 60.7821 103.527 61.0453 103.162 61.315C101.657 62.425 99.9942 63.6167 98.2453 64.6254C95.6813 66.1041 92.7064 66.949 89.5479 66.949C86.3651 66.949 83.3689 66.0911 80.7917 64.5913C79.0564 63.5814 77.4051 62.3916 75.9107 61.2849C75.564 61.0282 75.2276 60.7773 74.8985 60.532C73.7476 59.674 72.6865 58.8829 71.5928 58.1415C68.7538 56.2172 66.5875 55.2769 64.5756 55.2769C59.7748 55.2769 55.8545 59.1852 55.8545 64.0414V89.3258C55.8545 93.8632 59.5171 97.513 64 97.513C68.4829 97.513 72.1455 93.8632 72.1455 89.3258V89.1427C72.1455 79.4981 79.9445 71.6512 89.6 71.6512C99.2555 71.6512 107.055 79.4981 107.055 89.1427V102.165C107.055 118.901 93.5248 132.496 76.8 132.496H64C59.5171 132.496 55.8545 136.146 55.8545 140.683C55.8545 145.22 59.5171 148.87 64 148.87H89.6C108.221 148.87 123.345 133.724 123.345 115.004ZM93.6774 30.4741C101.735 38.5567 99.6042 52.8935 88.7198 49.5084C85.5235 48.5144 82.5145 46.7482 79.9838 44.2097C77.4532 41.6713 75.6923 38.6531 74.7014 35.4469C71.3267 24.5291 85.6195 22.3915 93.6774 30.4741ZM101.397 56.8308C99.5728 58.1869 97.7622 59.5328 95.9189 60.5959C94.0428 61.678 91.8674 62.2968 89.5479 62.2968C87.2106 62.2968 85.0197 61.6685 83.1338 60.5709C81.3165 59.5134 79.5304 58.1814 77.7303 56.8392C73.6 53.7592 69.3966 50.6247 64.5756 50.6247C57.1885 50.6247 51.2 56.6316 51.2 64.0414V89.3258C51.2 96.4168 56.9308 102.165 64 102.165C71.0692 102.165 76.8 96.4168 76.8 89.3258V89.1427C76.8 82.0517 82.5308 76.3034 89.6 76.3034C96.6692 76.3034 102.4 82.0517 102.4 89.1427V102.165C102.4 116.347 90.9385 127.844 76.8 127.844H64C56.9308 127.844 51.2 133.592 51.2 140.683C51.2 147.774 56.9308 153.522 64 153.522H89.6C110.808 153.522 128 136.277 128 115.004V64.096C128 56.656 121.987 50.6247 114.57 50.6247C109.746 50.6247 105.536 53.7541 101.397 56.8308Z" fill="url(#paint20_linear_1252_39)"/>
<path d="M169.433 118.631C157.556 151.201 126.295 174.457 89.6 174.457C42.6859 174.457 4.65455 136.445 4.65455 89.5548C4.65455 42.6644 42.6859 4.6522 89.6 4.6522C123.617 4.6522 152.963 24.6369 166.528 53.5003H171.642C157.763 21.9955 126.252 0 89.6 0C40.1153 0 0 40.095 0 89.5548C0 139.015 40.1153 179.11 89.6 179.11C128.902 179.11 162.293 153.818 174.372 118.631H169.433Z" fill="url(#paint21_linear_1252_39)"/>
<path d="M169.433 118.631C157.556 151.201 126.295 174.457 89.6 174.457C42.6859 174.457 4.65455 136.445 4.65455 89.5548C4.65455 42.6644 42.6859 4.6522 89.6 4.6522C123.617 4.6522 152.963 24.6369 166.528 53.5003H171.642C157.763 21.9955 126.252 0 89.6 0C40.1153 0 0 40.095 0 89.5548C0 139.015 40.1153 179.11 89.6 179.11C128.902 179.11 162.293 153.818 174.372 118.631H169.433Z" fill="url(#paint22_linear_1252_39)"/>
<defs>
<linearGradient id="paint0_linear_1252_39" x1="0.344395" y1="89.5548" x2="255.656" y2="89.5548" gradientUnits="userSpaceOnUse">
<stop stop-color="#35B8C1"/>
<stop offset="1" stop-color="#3467B1"/>
</linearGradient>
<linearGradient id="paint1_linear_1252_39" x1="0.344395" y1="89.5548" x2="255.656" y2="89.5548" gradientUnits="userSpaceOnUse">
<stop stop-color="#35B8C1"/>
<stop offset="1" stop-color="#3467B1"/>
</linearGradient>
<linearGradient id="paint2_linear_1252_39" x1="0.344395" y1="89.5548" x2="255.656" y2="89.5548" gradientUnits="userSpaceOnUse">
<stop stop-color="#35B8C1"/>
<stop offset="1" stop-color="#3467B1"/>
</linearGradient>
<linearGradient id="paint3_linear_1252_39" x1="0.344395" y1="89.5548" x2="255.656" y2="89.5548" gradientUnits="userSpaceOnUse">
<stop stop-color="#35B8C1"/>
<stop offset="1" stop-color="#3467B1"/>
</linearGradient>
<linearGradient id="paint4_linear_1252_39" x1="0.344395" y1="89.5548" x2="255.656" y2="89.5548" gradientUnits="userSpaceOnUse">
<stop stop-color="#2CBDEE"/>
<stop offset="1" stop-color="#C53156"/>
</linearGradient>
<linearGradient id="paint5_linear_1252_39" x1="0.344395" y1="89.5548" x2="255.656" y2="89.5548" gradientUnits="userSpaceOnUse">
<stop stop-color="#2CBDEE"/>
<stop offset="1" stop-color="#C53156"/>
</linearGradient>
<linearGradient id="paint6_linear_1252_39" x1="0.344395" y1="89.5548" x2="255.656" y2="89.5548" gradientUnits="userSpaceOnUse">
<stop stop-color="#2CBDEE"/>
<stop offset="1" stop-color="#C53156"/>
</linearGradient>
<linearGradient id="paint7_linear_1252_39" x1="0.344395" y1="89.5548" x2="255.656" y2="89.5548" gradientUnits="userSpaceOnUse">
<stop stop-color="#2CBDEE"/>
<stop offset="1" stop-color="#C53156"/>
</linearGradient>
<linearGradient id="paint8_linear_1252_39" x1="0.344395" y1="89.5548" x2="255.656" y2="89.5548" gradientUnits="userSpaceOnUse">
<stop stop-color="#35B8C1"/>
<stop offset="1" stop-color="#3467B1"/>
</linearGradient>
<linearGradient id="paint9_linear_1252_39" x1="0.344395" y1="89.5548" x2="255.656" y2="89.5548" gradientUnits="userSpaceOnUse">
<stop stop-color="#35B8C1"/>
<stop offset="1" stop-color="#3467B1"/>
</linearGradient>
<linearGradient id="paint10_linear_1252_39" x1="0.344395" y1="89.5548" x2="255.656" y2="89.5548" gradientUnits="userSpaceOnUse">
<stop stop-color="#35B8C1"/>
<stop offset="1" stop-color="#3467B1"/>
</linearGradient>
<linearGradient id="paint11_linear_1252_39" x1="0.344395" y1="89.5548" x2="255.656" y2="89.5548" gradientUnits="userSpaceOnUse">
<stop stop-color="#35B8C1"/>
<stop offset="1" stop-color="#3467B1"/>
</linearGradient>
<linearGradient id="paint12_linear_1252_39" x1="0.344395" y1="89.5548" x2="255.656" y2="89.5548" gradientUnits="userSpaceOnUse">
<stop stop-color="#35B8C1"/>
<stop offset="1" stop-color="#3467B1"/>
</linearGradient>
<linearGradient id="paint13_linear_1252_39" x1="0.344395" y1="89.5548" x2="255.656" y2="89.5548" gradientUnits="userSpaceOnUse">
<stop stop-color="#35B8C1"/>
<stop offset="1" stop-color="#3467B1"/>
</linearGradient>
<linearGradient id="paint14_linear_1252_39" x1="-285.538" y1="89.5548" x2="98.4615" y2="89.5548" gradientUnits="userSpaceOnUse">
<stop stop-color="#2CBDEE"/>
<stop offset="1" stop-color="#C53156"/>
</linearGradient>
<linearGradient id="paint15_linear_1252_39" x1="-285.538" y1="89.5548" x2="98.4615" y2="89.5548" gradientUnits="userSpaceOnUse">
<stop stop-color="#2CBDEE"/>
<stop offset="1" stop-color="#C53156"/>
</linearGradient>
<linearGradient id="paint16_linear_1252_39" x1="-285.538" y1="89.5548" x2="98.4615" y2="89.5548" gradientUnits="userSpaceOnUse">
<stop stop-color="#2CBDEE"/>
<stop offset="1" stop-color="#C53156"/>
</linearGradient>
<linearGradient id="paint17_linear_1252_39" x1="-285.538" y1="89.5548" x2="98.4615" y2="89.5548" gradientUnits="userSpaceOnUse">
<stop stop-color="#2CBDEE"/>
<stop offset="1" stop-color="#C53156"/>
</linearGradient>
<linearGradient id="paint18_linear_1252_39" x1="-285.538" y1="89.5548" x2="98.4615" y2="89.5548" gradientUnits="userSpaceOnUse">
<stop stop-color="#2CBDEE"/>
<stop offset="1" stop-color="#C53156"/>
</linearGradient>
<linearGradient id="paint19_linear_1252_39" x1="-285.538" y1="89.5548" x2="98.4615" y2="89.5548" gradientUnits="userSpaceOnUse">
<stop stop-color="#2CBDEE"/>
<stop offset="1" stop-color="#C53156"/>
</linearGradient>
<linearGradient id="paint20_linear_1252_39" x1="0.344395" y1="89.5548" x2="255.656" y2="89.5548" gradientUnits="userSpaceOnUse">
<stop stop-color="#35B8C1"/>
<stop offset="1" stop-color="#3467B1"/>
</linearGradient>
<linearGradient id="paint21_linear_1252_39" x1="0.344395" y1="89.5548" x2="255.656" y2="89.5548" gradientUnits="userSpaceOnUse">
<stop stop-color="#2CBDEE"/>
<stop offset="1" stop-color="#C53156"/>
</linearGradient>
<linearGradient id="paint22_linear_1252_39" x1="0.344395" y1="89.5548" x2="255.656" y2="89.5548" gradientUnits="userSpaceOnUse">
<stop stop-color="#2CBDEE"/>
<stop offset="1" stop-color="#C53156"/>
</linearGradient>
</defs>
</svg>
