<svg width="256" height="180" viewBox="0 0 256 180" fill="none" xmlns="http://www.w3.org/2000/svg">
<path d="M168.712 86.7592V88.4364H134.982V86.7592H144.177C141.982 85.537 140.242 83.8598 138.957 81.7276C137.699 79.5953 137.07 77.216 137.07 74.5897C137.07 70.5853 138.489 67.2439 141.326 64.5656C144.164 61.8612 147.671 60.5091 151.847 60.5091C156.023 60.5091 159.53 61.8612 162.368 64.5656C165.206 67.2439 166.624 70.5853 166.624 74.5897C166.624 77.19 165.982 79.5693 164.697 81.7276C163.439 83.8858 161.712 85.563 159.517 86.7592H168.712ZM158.874 67.6079C156.974 65.6837 154.631 64.7216 151.847 64.7216C149.063 64.7216 146.707 65.6837 144.78 67.6079C142.879 69.5321 141.929 71.8724 141.929 74.6287C141.929 77.3591 142.879 79.6863 144.78 81.6106C146.707 83.5348 149.063 84.4969 151.847 84.4969C154.631 84.4969 156.974 83.5348 158.874 81.6106C160.802 79.6863 161.766 77.3591 161.766 74.6287C161.766 71.8724 160.802 69.5321 158.874 67.6079Z" fill="url(#paint0_linear_1253_6)"/>
<path d="M196.173 86.7592V88.4364H168.706V86.7592H172.601V61.1722H182.239C186.495 61.1722 189.6 61.9653 191.555 63.5514C193.509 65.1376 194.486 67.5819 194.486 70.8843C194.486 74.1867 193.482 76.605 191.474 78.1392C189.493 79.6733 186.442 80.4404 182.319 80.4404H177.34V86.7592H196.173ZM182.841 76.2669C185.464 76.2669 187.245 75.7859 188.182 74.8238C189.145 73.8356 189.627 72.4055 189.627 70.5333C189.627 68.635 189.025 67.2959 187.82 66.5158C186.616 65.7357 184.728 65.3457 182.158 65.3457H177.34V76.2669H182.841Z" fill="url(#paint1_linear_1253_6)"/>
<path d="M200.051 86.7592V61.1722H219.768V65.5017H204.79V72.7175H218.242V76.813H204.79V84.1069H220.25V86.7592H224.145V88.4364H196.156V86.7592H200.051Z" fill="url(#paint2_linear_1253_6)"/>
<path d="M226.325 86.7592V61.1722H231.063L247.367 81.5326V61.1722H252.105V86.7592H256V88.4364H246.965L231.063 68.544V88.4364H222.43V86.7592H226.325Z" fill="url(#paint3_linear_1253_6)"/>
<path d="M168.712 86.7592V88.4364H134.982V86.7592H144.177C141.982 85.537 140.242 83.8598 138.957 81.7276C137.699 79.5953 137.07 77.216 137.07 74.5897C137.07 70.5853 138.489 67.2439 141.326 64.5656C144.164 61.8612 147.671 60.5091 151.847 60.5091C156.023 60.5091 159.53 61.8612 162.368 64.5656C165.206 67.2439 166.624 70.5853 166.624 74.5897C166.624 77.19 165.982 79.5693 164.697 81.7276C163.439 83.8858 161.712 85.563 159.517 86.7592H168.712ZM158.874 67.6079C156.974 65.6837 154.631 64.7216 151.847 64.7216C149.063 64.7216 146.707 65.6837 144.78 67.6079C142.879 69.5321 141.929 71.8724 141.929 74.6287C141.929 77.3591 142.879 79.6863 144.78 81.6106C146.707 83.5348 149.063 84.4969 151.847 84.4969C154.631 84.4969 156.974 83.5348 158.874 81.6106C160.802 79.6863 161.766 77.3591 161.766 74.6287C161.766 71.8724 160.802 69.5321 158.874 67.6079Z" fill="url(#paint4_linear_1253_6)"/>
<path d="M196.173 86.7592V88.4364H168.706V86.7592H172.601V61.1722H182.239C186.495 61.1722 189.6 61.9653 191.555 63.5514C193.509 65.1376 194.486 67.5819 194.486 70.8843C194.486 74.1867 193.482 76.605 191.474 78.1392C189.493 79.6733 186.442 80.4404 182.319 80.4404H177.34V86.7592H196.173ZM182.841 76.2669C185.464 76.2669 187.245 75.7859 188.182 74.8238C189.145 73.8356 189.627 72.4055 189.627 70.5333C189.627 68.635 189.025 67.2959 187.82 66.5158C186.616 65.7357 184.728 65.3457 182.158 65.3457H177.34V76.2669H182.841Z" fill="url(#paint5_linear_1253_6)"/>
<path d="M200.051 86.7592V61.1722H219.768V65.5017H204.79V72.7175H218.242V76.813H204.79V84.1069H220.25V86.7592H224.145V88.4364H196.156V86.7592H200.051Z" fill="url(#paint6_linear_1253_6)"/>
<path d="M226.325 86.7592V61.1722H231.063L247.367 81.5326V61.1722H252.105V86.7592H256V88.4364H246.965L231.063 68.544V88.4364H222.43V86.7592H226.325Z" fill="url(#paint7_linear_1253_6)"/>
<path d="M152.317 110.591V111.709H134.982V110.591H138.504C137.623 110.158 136.816 109.62 136.082 108.979L138.119 106.664C140.063 108.259 142.081 109.057 144.172 109.057C145.218 109.057 146.043 108.849 146.648 108.433C147.272 107.999 147.584 107.436 147.584 106.743C147.584 106.032 147.29 105.486 146.703 105.104C146.135 104.706 145.144 104.35 143.732 104.038C142.319 103.709 141.246 103.414 140.512 103.154C139.779 102.877 139.127 102.521 138.559 102.088C137.422 101.273 136.853 100.025 136.853 98.3435C136.853 96.662 137.495 95.3705 138.779 94.4691C140.081 93.5503 141.686 93.0909 143.594 93.0909C144.823 93.0909 146.043 93.2816 147.254 93.663C148.464 94.0444 149.51 94.5818 150.391 95.2752L148.657 97.5894C148.088 97.104 147.318 96.7053 146.346 96.3933C145.374 96.0813 144.41 95.9252 143.457 95.9252C142.521 95.9252 141.751 96.1073 141.145 96.4713C140.54 96.8353 140.237 97.3901 140.237 98.1355C140.237 98.8636 140.54 99.427 141.145 99.8257C141.751 100.207 143.035 100.623 144.997 101.074C146.979 101.525 148.464 102.157 149.455 102.972C150.464 103.787 150.968 104.931 150.968 106.404C150.968 108.19 150.271 109.586 148.877 110.591H152.317Z" fill="url(#paint8_linear_1253_6)"/>
<path d="M175.426 110.591V111.709H152.313V110.591H158.614C157.11 109.776 155.918 108.658 155.037 107.237C154.175 105.815 153.744 104.229 153.744 102.478C153.744 99.8084 154.716 97.5808 156.661 95.7952C158.605 93.9923 161.008 93.0909 163.87 93.0909C166.732 93.0909 169.135 93.9923 171.079 95.7952C173.023 97.5808 173.996 99.8084 173.996 102.478C173.996 104.212 173.555 105.798 172.675 107.237C171.813 108.675 170.63 109.794 169.125 110.591H175.426ZM168.685 97.8235C167.383 96.5406 165.778 95.8992 163.87 95.8992C161.962 95.8992 160.348 96.5406 159.027 97.8235C157.725 99.1063 157.074 100.666 157.074 102.504C157.074 104.324 157.725 105.876 159.027 107.159C160.348 108.441 161.962 109.083 163.87 109.083C165.778 109.083 167.383 108.441 168.685 107.159C170.006 105.876 170.666 104.324 170.666 102.504C170.666 100.666 170.006 99.1063 168.685 97.8235Z" fill="url(#paint9_linear_1253_6)"/>
<path d="M196.554 110.591V111.709H175.422V110.591H181.118C178.935 109.152 177.844 106.873 177.844 103.752V93.533H181.09V103.622C181.09 105.286 181.531 106.604 182.411 107.575C183.292 108.545 184.484 109.031 185.988 109.031C187.492 109.031 188.685 108.545 189.565 107.575C190.446 106.604 190.886 105.286 190.886 103.622V93.533H194.133V103.752C194.133 106.89 193.032 109.169 190.831 110.591H196.554Z" fill="url(#paint10_linear_1253_6)"/>
<path d="M217.262 110.591V111.709H211.318L206.723 105.598H202.458V111.709H196.543V110.591H199.212V93.533H206.366C209.301 93.533 211.401 94.001 212.667 94.9371C213.932 95.8732 214.565 97.3727 214.565 99.4357C214.565 102.435 213.18 104.324 210.41 105.104L214.593 110.591H217.262ZM206.503 102.816C208.338 102.816 209.585 102.547 210.245 102.01C210.906 101.473 211.236 100.614 211.236 99.4357C211.236 98.2395 210.896 97.4247 210.218 96.9914C209.539 96.5406 208.328 96.3153 206.586 96.3153H202.458V102.816H206.503Z" fill="url(#paint11_linear_1253_6)"/>
<path d="M236.813 110.591V111.709H216.561V110.591H222.67C221.22 109.776 220.074 108.667 219.23 107.263C218.405 105.858 217.992 104.272 217.992 102.504C217.992 99.8344 218.964 97.5981 220.909 95.7952C222.871 93.9923 225.339 93.0909 228.31 93.0909C231.3 93.0909 233.795 94.131 235.795 96.2113L233.731 98.3435C232.814 97.5114 231.942 96.9307 231.117 96.6013C230.31 96.2719 229.356 96.1073 228.255 96.1073C226.311 96.1073 224.678 96.7053 223.358 97.9015C222.037 99.0803 221.376 100.597 221.376 102.452C221.376 104.29 222.028 105.832 223.33 107.081C224.651 108.311 226.21 108.927 228.008 108.927C229.127 108.927 230.09 108.753 230.897 108.407C231.704 108.043 232.548 107.471 233.428 106.69L235.519 108.719C234.712 109.551 233.942 110.175 233.208 110.591H236.813Z" fill="url(#paint12_linear_1253_6)"/>
<path d="M239.491 110.591V93.533H253.001V96.4193H242.737V101.23H251.955V103.96H242.737V108.823H253.331V110.591H256V111.709H236.822V110.591H239.491Z" fill="url(#paint13_linear_1253_6)"/>
<path d="M152.317 110.591V111.709H134.982V110.591H138.504C137.623 110.158 136.816 109.62 136.082 108.979L138.119 106.664C140.063 108.259 142.081 109.057 144.172 109.057C145.218 109.057 146.043 108.849 146.648 108.433C147.272 107.999 147.584 107.436 147.584 106.743C147.584 106.032 147.29 105.486 146.703 105.104C146.135 104.706 145.144 104.35 143.732 104.038C142.319 103.709 141.246 103.414 140.512 103.154C139.779 102.877 139.127 102.521 138.559 102.088C137.422 101.273 136.853 100.025 136.853 98.3435C136.853 96.662 137.495 95.3705 138.779 94.4691C140.081 93.5503 141.686 93.0909 143.594 93.0909C144.823 93.0909 146.043 93.2816 147.254 93.663C148.464 94.0444 149.51 94.5818 150.391 95.2752L148.657 97.5894C148.088 97.104 147.318 96.7053 146.346 96.3933C145.374 96.0813 144.41 95.9252 143.457 95.9252C142.521 95.9252 141.751 96.1073 141.145 96.4713C140.54 96.8353 140.237 97.3901 140.237 98.1355C140.237 98.8636 140.54 99.427 141.145 99.8257C141.751 100.207 143.035 100.623 144.997 101.074C146.979 101.525 148.464 102.157 149.455 102.972C150.464 103.787 150.968 104.931 150.968 106.404C150.968 108.19 150.271 109.586 148.877 110.591H152.317Z" fill="url(#paint14_linear_1253_6)"/>
<path d="M175.426 110.591V111.709H152.313V110.591H158.614C157.11 109.776 155.918 108.658 155.037 107.237C154.175 105.815 153.744 104.229 153.744 102.478C153.744 99.8084 154.716 97.5808 156.661 95.7952C158.605 93.9923 161.008 93.0909 163.87 93.0909C166.732 93.0909 169.135 93.9923 171.079 95.7952C173.023 97.5808 173.996 99.8084 173.996 102.478C173.996 104.212 173.555 105.798 172.675 107.237C171.813 108.675 170.63 109.794 169.125 110.591H175.426ZM168.685 97.8235C167.383 96.5406 165.778 95.8992 163.87 95.8992C161.962 95.8992 160.348 96.5406 159.027 97.8235C157.725 99.1063 157.074 100.666 157.074 102.504C157.074 104.324 157.725 105.876 159.027 107.159C160.348 108.441 161.962 109.083 163.87 109.083C165.778 109.083 167.383 108.441 168.685 107.159C170.006 105.876 170.666 104.324 170.666 102.504C170.666 100.666 170.006 99.1063 168.685 97.8235Z" fill="url(#paint15_linear_1253_6)"/>
<path d="M196.554 110.591V111.709H175.422V110.591H181.118C178.935 109.152 177.844 106.873 177.844 103.752V93.533H181.09V103.622C181.09 105.286 181.531 106.604 182.411 107.575C183.292 108.545 184.484 109.031 185.988 109.031C187.492 109.031 188.685 108.545 189.565 107.575C190.446 106.604 190.886 105.286 190.886 103.622V93.533H194.133V103.752C194.133 106.89 193.032 109.169 190.831 110.591H196.554Z" fill="url(#paint16_linear_1253_6)"/>
<path d="M217.262 110.591V111.709H211.318L206.723 105.598H202.458V111.709H196.543V110.591H199.212V93.533H206.366C209.301 93.533 211.401 94.001 212.667 94.9371C213.932 95.8732 214.565 97.3727 214.565 99.4357C214.565 102.435 213.18 104.324 210.41 105.104L214.593 110.591H217.262ZM206.503 102.816C208.338 102.816 209.585 102.547 210.245 102.01C210.906 101.473 211.236 100.614 211.236 99.4357C211.236 98.2395 210.896 97.4247 210.218 96.9914C209.539 96.5406 208.328 96.3153 206.586 96.3153H202.458V102.816H206.503Z" fill="url(#paint17_linear_1253_6)"/>
<path d="M236.813 110.591V111.709H216.561V110.591H222.67C221.22 109.776 220.074 108.667 219.23 107.263C218.405 105.858 217.992 104.272 217.992 102.504C217.992 99.8344 218.964 97.5981 220.909 95.7952C222.871 93.9923 225.339 93.0909 228.31 93.0909C231.3 93.0909 233.795 94.131 235.795 96.2113L233.731 98.3435C232.814 97.5114 231.942 96.9307 231.117 96.6013C230.31 96.2719 229.356 96.1073 228.255 96.1073C226.311 96.1073 224.678 96.7053 223.358 97.9015C222.037 99.0803 221.376 100.597 221.376 102.452C221.376 104.29 222.028 105.832 223.33 107.081C224.651 108.311 226.21 108.927 228.008 108.927C229.127 108.927 230.09 108.753 230.897 108.407C231.704 108.043 232.548 107.471 233.428 106.69L235.519 108.719C234.712 109.551 233.942 110.175 233.208 110.591H236.813Z" fill="url(#paint18_linear_1253_6)"/>
<path d="M239.491 110.591V93.533H253.001V96.4193H242.737V101.23H251.955V103.96H242.737V108.823H253.331V110.591H256V111.709H236.822V110.591H239.491Z" fill="url(#paint19_linear_1253_6)"/>
<path fill-rule="evenodd" clip-rule="evenodd" d="M79.1485 34.0909C79.9225 36.5962 81.2964 38.955 83.281 40.9467C85.2654 42.9382 87.6129 44.3144 90.1027 45.0891C91.8744 45.6404 92.5805 45.2834 92.7666 45.1679C93.0208 45.0104 93.4944 44.5457 93.7489 43.3473C94.2834 40.8296 93.3864 36.7918 90.3803 33.7749C87.3748 30.7586 83.3639 29.868 80.8755 30.4001C79.6936 30.6528 79.2328 31.1228 79.0732 31.3821C78.952 31.579 78.596 32.3026 79.1485 34.0909ZM123.345 115.063V64.1284C123.345 59.2396 119.401 55.3048 114.57 55.3048C112.545 55.3048 110.365 56.2533 107.508 58.1885C106.421 58.9247 105.368 59.7074 104.227 60.5556C103.881 60.8128 103.527 61.0761 103.162 61.3459C101.657 62.4565 99.9942 63.6488 98.2453 64.658C95.6813 66.1375 92.7064 66.9828 89.5479 66.9828C86.3651 66.9828 83.3689 66.1245 80.7917 64.6239C79.0564 63.6135 77.4051 62.4231 75.9107 61.3158C75.564 61.059 75.2276 60.808 74.8985 60.5626C73.7476 59.7041 72.6865 58.9126 71.5928 58.1709C68.7538 56.2456 66.5875 55.3048 64.5756 55.3048C59.7748 55.3048 55.8545 59.2151 55.8545 64.0738V89.371C55.8545 93.9106 59.5171 97.5622 64 97.5622C68.4829 97.5622 72.1455 93.9106 72.1455 89.371V89.1877C72.1455 79.5382 79.9445 71.6874 89.6 71.6874C99.2555 71.6874 107.055 79.5382 107.055 89.1877V102.217C107.055 118.961 93.5248 132.563 76.8 132.563H64C59.5171 132.563 55.8545 136.215 55.8545 140.754C55.8545 145.294 59.5171 148.945 64 148.945H89.6C108.221 148.945 123.345 133.791 123.345 115.063ZM93.6774 30.4895C101.735 38.5762 99.6042 52.9202 88.7198 49.5335C85.5235 48.5389 82.5145 46.7718 79.9838 44.2321C77.4532 41.6923 75.6923 38.6726 74.7014 35.4648C71.3267 24.5415 85.6195 22.4028 93.6774 30.4895ZM101.397 56.8595C99.5728 58.2163 97.7622 59.5629 95.9189 60.6265C94.0428 61.7091 91.8674 62.3283 89.5479 62.3283C87.2106 62.3283 85.0197 61.6996 83.1338 60.6015C81.3165 59.5434 79.5304 58.2108 77.7303 56.8679C73.6 53.7864 69.3966 50.6503 64.5756 50.6503C57.1885 50.6503 51.2 56.6602 51.2 64.0738V89.371C51.2 96.4655 56.9308 102.217 64 102.217C71.0692 102.217 76.8 96.4655 76.8 89.371V89.1877C76.8 82.0932 82.5308 76.3419 89.6 76.3419C96.6692 76.3419 102.4 82.0932 102.4 89.1877V102.217C102.4 116.406 90.9385 127.908 76.8 127.908H64C56.9308 127.908 51.2 133.66 51.2 140.754C51.2 147.849 56.9308 153.6 64 153.6H89.6C110.808 153.6 128 136.346 128 115.063V64.1284C128 56.6846 121.987 50.6503 114.57 50.6503C109.746 50.6503 105.536 53.7813 101.397 56.8595Z" fill="url(#paint20_linear_1253_6)"/>
<path d="M169.433 118.691C157.556 151.278 126.295 174.545 89.6 174.545C42.6859 174.545 4.65455 136.514 4.65455 89.6C4.65455 42.6859 42.6859 4.65455 89.6 4.65455C123.617 4.65455 152.963 24.6494 166.528 53.5273H171.642C157.763 22.0066 126.252 0 89.6 0C40.1153 0 0 40.1153 0 89.6C0 139.085 40.1153 179.2 89.6 179.2C128.902 179.2 162.293 153.896 174.372 118.691H169.433Z" fill="url(#paint21_linear_1253_6)"/>
<path d="M169.433 118.691C157.556 151.278 126.295 174.545 89.6 174.545C42.6859 174.545 4.65455 136.514 4.65455 89.6C4.65455 42.6859 42.6859 4.65455 89.6 4.65455C123.617 4.65455 152.963 24.6494 166.528 53.5273H171.642C157.763 22.0066 126.252 0 89.6 0C40.1153 0 0 40.1153 0 89.6C0 139.085 40.1153 179.2 89.6 179.2C128.902 179.2 162.293 153.896 174.372 118.691H169.433Z" fill="url(#paint22_linear_1253_6)"/>
<defs>
<linearGradient id="paint0_linear_1253_6" x1="0.344395" y1="89.6" x2="255.656" y2="89.6" gradientUnits="userSpaceOnUse">
<stop stop-color="#2CBDEE"/>
<stop offset="1" stop-color="#C53156"/>
</linearGradient>
<linearGradient id="paint1_linear_1253_6" x1="0.344395" y1="89.6" x2="255.656" y2="89.6" gradientUnits="userSpaceOnUse">
<stop stop-color="#2CBDEE"/>
<stop offset="1" stop-color="#C53156"/>
</linearGradient>
<linearGradient id="paint2_linear_1253_6" x1="0.344395" y1="89.6" x2="255.656" y2="89.6" gradientUnits="userSpaceOnUse">
<stop stop-color="#2CBDEE"/>
<stop offset="1" stop-color="#C53156"/>
</linearGradient>
<linearGradient id="paint3_linear_1253_6" x1="0.344395" y1="89.6" x2="255.656" y2="89.6" gradientUnits="userSpaceOnUse">
<stop stop-color="#2CBDEE"/>
<stop offset="1" stop-color="#C53156"/>
</linearGradient>
<linearGradient id="paint4_linear_1253_6" x1="0.344395" y1="89.6" x2="255.656" y2="89.6" gradientUnits="userSpaceOnUse">
<stop stop-color="#2CBDEE"/>
<stop offset="1" stop-color="#C53156"/>
</linearGradient>
<linearGradient id="paint5_linear_1253_6" x1="0.344395" y1="89.6" x2="255.656" y2="89.6" gradientUnits="userSpaceOnUse">
<stop stop-color="#2CBDEE"/>
<stop offset="1" stop-color="#C53156"/>
</linearGradient>
<linearGradient id="paint6_linear_1253_6" x1="0.344395" y1="89.6" x2="255.656" y2="89.6" gradientUnits="userSpaceOnUse">
<stop stop-color="#2CBDEE"/>
<stop offset="1" stop-color="#C53156"/>
</linearGradient>
<linearGradient id="paint7_linear_1253_6" x1="0.344395" y1="89.6" x2="255.656" y2="89.6" gradientUnits="userSpaceOnUse">
<stop stop-color="#2CBDEE"/>
<stop offset="1" stop-color="#C53156"/>
</linearGradient>
<linearGradient id="paint8_linear_1253_6" x1="0.344395" y1="89.6" x2="255.656" y2="89.6" gradientUnits="userSpaceOnUse">
<stop stop-color="#2CBDEE"/>
<stop offset="1" stop-color="#C53156"/>
</linearGradient>
<linearGradient id="paint9_linear_1253_6" x1="0.344395" y1="89.6" x2="255.656" y2="89.6" gradientUnits="userSpaceOnUse">
<stop stop-color="#2CBDEE"/>
<stop offset="1" stop-color="#C53156"/>
</linearGradient>
<linearGradient id="paint10_linear_1253_6" x1="0.344395" y1="89.6" x2="255.656" y2="89.6" gradientUnits="userSpaceOnUse">
<stop stop-color="#2CBDEE"/>
<stop offset="1" stop-color="#C53156"/>
</linearGradient>
<linearGradient id="paint11_linear_1253_6" x1="0.344395" y1="89.6" x2="255.656" y2="89.6" gradientUnits="userSpaceOnUse">
<stop stop-color="#2CBDEE"/>
<stop offset="1" stop-color="#C53156"/>
</linearGradient>
<linearGradient id="paint12_linear_1253_6" x1="0.344395" y1="89.6" x2="255.656" y2="89.6" gradientUnits="userSpaceOnUse">
<stop stop-color="#2CBDEE"/>
<stop offset="1" stop-color="#C53156"/>
</linearGradient>
<linearGradient id="paint13_linear_1253_6" x1="0.344395" y1="89.6" x2="255.656" y2="89.6" gradientUnits="userSpaceOnUse">
<stop stop-color="#2CBDEE"/>
<stop offset="1" stop-color="#C53156"/>
</linearGradient>
<linearGradient id="paint14_linear_1253_6" x1="0.344395" y1="89.6" x2="255.656" y2="89.6" gradientUnits="userSpaceOnUse">
<stop stop-color="#2CBDEE"/>
<stop offset="1" stop-color="#C53156"/>
</linearGradient>
<linearGradient id="paint15_linear_1253_6" x1="0.344395" y1="89.6" x2="255.656" y2="89.6" gradientUnits="userSpaceOnUse">
<stop stop-color="#2CBDEE"/>
<stop offset="1" stop-color="#C53156"/>
</linearGradient>
<linearGradient id="paint16_linear_1253_6" x1="0.344395" y1="89.6" x2="255.656" y2="89.6" gradientUnits="userSpaceOnUse">
<stop stop-color="#2CBDEE"/>
<stop offset="1" stop-color="#C53156"/>
</linearGradient>
<linearGradient id="paint17_linear_1253_6" x1="0.344395" y1="89.6" x2="255.656" y2="89.6" gradientUnits="userSpaceOnUse">
<stop stop-color="#2CBDEE"/>
<stop offset="1" stop-color="#C53156"/>
</linearGradient>
<linearGradient id="paint18_linear_1253_6" x1="0.344395" y1="89.6" x2="255.656" y2="89.6" gradientUnits="userSpaceOnUse">
<stop stop-color="#2CBDEE"/>
<stop offset="1" stop-color="#C53156"/>
</linearGradient>
<linearGradient id="paint19_linear_1253_6" x1="0.344395" y1="89.6" x2="255.656" y2="89.6" gradientUnits="userSpaceOnUse">
<stop stop-color="#2CBDEE"/>
<stop offset="1" stop-color="#C53156"/>
</linearGradient>
<linearGradient id="paint20_linear_1253_6" x1="0.344395" y1="89.6" x2="255.656" y2="89.6" gradientUnits="userSpaceOnUse">
<stop stop-color="#2CBDEE"/>
<stop offset="1" stop-color="#C53156"/>
</linearGradient>
<linearGradient id="paint21_linear_1253_6" x1="0.344395" y1="89.6" x2="255.656" y2="89.6" gradientUnits="userSpaceOnUse">
<stop stop-color="#2CBDEE"/>
<stop offset="1" stop-color="#C53156"/>
</linearGradient>
<linearGradient id="paint22_linear_1253_6" x1="0.344395" y1="89.6" x2="255.656" y2="89.6" gradientUnits="userSpaceOnUse">
<stop stop-color="#2CBDEE"/>
<stop offset="1" stop-color="#C53156"/>
</linearGradient>
</defs>
</svg>
