<svg width="1024" height="91" viewBox="0 0 1024 91" fill="none" xmlns="http://www.w3.org/2000/svg">
<path fill-rule="evenodd" clip-rule="evenodd" d="M14.2962 85.6254H2.75516V88.165H62.6457V22.6119L111.828 88.165H479.657V59.2282H500.201L520.071 88.165H949.237L998.419 22.6119V88.165H1021.24V85.6254H1009.7V4.84846H997.73L947.358 71.8736V4.84846H936.074V85.6254H910.244V4.84846H854.58V15.7613H898.959V41.2966H859.101V51.4706H898.959V77.2521H853.152V85.6254H811.655L842.946 4.84846H830.186L803.671 71.4731L777.156 4.84846H764.399L795.81 85.6254H749.086V4.84846H693.422V15.7613H737.802V41.2966H697.944V51.4706H737.802V77.2521H691.995V85.6254H671.238V4.84846H659.954V77.129H621.999V85.6254H603.847V4.84846H548.183V15.7613H592.563V41.2966H552.704V51.4706H592.563V77.2521H546.755V85.6254H532.785L513.212 57.5055L515.013 56.9498C520.752 55.1799 524.959 52.1878 527.749 48.0185C530.55 43.8334 532.008 38.3363 532.008 31.4226C532.008 21.8999 529.347 15.2713 524.309 11.1907C519.212 7.06252 510.529 4.84846 497.929 4.84846H468.372V85.6254H447.616V77.2521H401.808V51.4706H441.667V41.2966H401.808V15.7613H446.188V4.84846H390.524V85.6254H360.016L359.373 83.0292C363.275 80.972 366.595 78.4121 369.346 75.3524V47.8228H358.062V70.826L357.447 71.2347C351.857 74.9475 344.952 76.7596 336.815 76.7596C328.601 76.7596 321.549 73.8676 315.738 68.1106L315.73 68.1035C309.881 62.2223 307.001 54.5048 307.001 45.0907C307.001 35.6727 309.924 28.0967 315.886 22.5347L315.893 22.5281C321.883 17.0177 329.326 14.2837 338.123 14.2837C342.594 14.2837 346.557 14.871 349.985 16.0795C353.111 17.0839 356.162 18.8208 359.141 21.2507L365.098 12.4437C357.597 6.00308 348.241 2.75516 336.934 2.75516C325.308 2.75516 315.463 6.72438 307.318 14.6768L307.313 14.6816C299.195 22.5284 295.121 32.5042 295.121 44.7213C295.121 53.283 297.09 60.9202 301.002 67.6686C305.001 74.4319 310.327 79.5402 316.989 83.0273L316.35 85.6254H279.719V77.2521H233.912V51.4706H273.77V41.2966H233.912V15.7613H278.291V4.84846H222.627V85.6254H179.477V15.3919H204.7V4.84846H142.968V15.3919H168.192V85.6254H124.991V4.84846H113.707V71.8736L63.3354 4.84846H51.3613V85.6254H25.5807V4.84846H14.2962V85.6254ZM751.842 82.8702H791.782L760.372 2.0933H779.025L803.671 64.0221L828.318 2.0933H846.968L815.677 82.8702H850.397V74.497H896.204V54.2258H856.346V38.5414H896.204V18.5165H851.825V2.0933H912.999V82.8702H933.319V2.0933H950.113V63.6216L996.354 2.0933H1012.46V82.8702H1024V90.9202H995.664V30.8751L950.614 90.9202H518.621L498.751 61.9833H482.412V90.9202H110.451L65.4009 30.875V90.9202H0V82.8702H11.5411V2.0933H28.3359V82.8702H48.6061V2.0933H64.7113L110.952 63.6216V2.0933H127.746V82.8702H165.437V18.1471H140.213V2.0933H207.456V18.1471H182.232V82.8702H219.872V2.0933H281.047V18.5165H236.667V38.5414H276.525V54.2258H236.667V74.497H282.474V82.8702H311.384C306.233 79.3434 301.979 74.736 298.626 69.0643L298.62 69.0543C294.442 61.8482 292.366 53.7253 292.366 44.7213C292.366 31.8199 296.7 21.1097 305.396 12.7029C314.066 4.23896 324.606 0 336.934 0C349.288 0 359.627 3.71098 367.844 11.195L368.726 11.9978L359.684 25.366L358.509 24.3281C355.366 21.5516 352.237 19.6939 349.125 18.6971L349.086 18.6846C346.015 17.5992 342.369 17.0389 338.123 17.0389C329.948 17.0389 323.193 19.5577 317.762 24.5528C312.463 29.498 309.756 36.2867 309.756 45.0907C309.756 53.8988 312.428 60.8744 317.681 66.1572C322.973 71.3977 329.325 74.0044 336.815 74.0044C344.23 74.0044 350.37 72.4223 355.307 69.3363V45.0676H372.102V76.3908L371.762 76.7799C369.766 79.0693 367.491 81.0991 364.94 82.8702H387.769V2.0933H448.943V18.5165H404.564V38.5414H444.422V54.2258H404.564V74.497H450.371V82.8702H465.617V2.0933H497.929C510.712 2.0933 520.194 4.31212 526.043 9.0497C531.951 13.8349 534.763 21.4079 534.763 31.4226C534.763 38.7106 533.226 44.7883 530.039 49.551C527.15 53.8666 522.975 56.9998 517.597 58.9837L534.224 82.8702H544V74.497H589.808V54.2258H549.949V38.5414H589.808V18.5165H545.428V2.0933H606.602V82.8702H619.244V74.3738H657.199V2.0933H673.993V82.8702H689.24V74.497H735.047V54.2258H695.189V38.5414H735.047V18.5165H690.667V2.0933H751.842V82.8702ZM478.279 50.1854V13.8912H498.881C506.472 13.8912 512.487 14.9269 516.186 17.6046C520.194 20.4206 521.744 25.4064 521.744 31.4226C521.744 37.4233 520.208 42.3997 516.539 45.6699L514.706 43.6131C517.561 41.0683 518.989 37.0048 518.989 31.4226C518.989 25.7584 517.521 21.9002 514.587 19.8479C511.652 17.7136 506.417 16.6464 498.881 16.6464H481.034V47.4303H498.524C506.456 47.4303 511.85 46.1579 514.706 43.6131L516.539 45.6699C512.859 48.9495 506.524 50.1854 498.524 50.1854H478.279Z" fill="url(#paint0_linear_1252_24)"/>
<defs>
<linearGradient id="paint0_linear_1252_24" x1="0" y1="45.4601" x2="1024" y2="45.4601" gradientUnits="userSpaceOnUse">
<stop stop-color="#2CBDEE"/>
<stop offset="1" stop-color="#C53156"/>
</linearGradient>
</defs>
</svg>
