<svg width="1024" height="89" viewBox="0 0 1024 89" fill="none" xmlns="http://www.w3.org/2000/svg">
<path fill-rule="evenodd" clip-rule="evenodd" d="M11.5722 2.09895V83.0938H0V88.4029H62.8148V25.4343L110.058 88.4029H480.951V59.388H499.442L519.366 88.4029H765.237V85.6403V83.0938H751.107V2.09895H692.531V15.8039H737.03V38.6454H697.064V51.6095H737.03V74.698H691.099V83.0938H673.049V2.09895H658.972V74.5745H620.915V83.0938H605.476V2.09895H546.9V15.8039H591.399V38.6454H551.433V51.6095H591.399V74.698H545.468V83.0938H533.562L515.429 57.0421C527.438 53.338 533.443 44.3661 533.443 30.1261C533.443 20.331 530.699 13.211 525.211 8.7662C519.723 4.32137 510.617 2.09895 497.891 2.09895H466.873V83.0938H448.823V74.698H402.892V51.6095H442.858V38.6454H402.892V15.8039H447.392V2.09895H388.815V83.0938H359.606C363.821 80.8713 367.4 78.0727 370.343 74.698V45.1892H356.265V68.895C350.937 72.4344 344.295 74.2041 336.342 74.2041C328.468 74.2041 321.748 71.4466 316.18 65.9318C310.613 60.3345 307.829 52.9676 307.829 43.831C307.829 34.6944 310.653 27.4921 316.299 22.2242C322.026 16.9562 329.144 14.3223 337.654 14.3223C342.029 14.3223 345.846 14.8984 349.107 16.0508C352.448 17.1209 355.748 19.0963 359.009 21.9772L366.525 10.8652C358.572 3.62172 348.55 0 336.461 0C324.452 0 314.232 4.11559 305.801 12.3468C297.37 20.4956 293.155 30.8669 293.155 43.4606C293.155 52.268 295.183 60.1699 299.239 67.1664C303.375 74.1629 308.903 79.472 315.822 83.0938H280.474V74.698H234.543V51.6095H274.509V38.6454H234.543V15.8039H279.042V2.09895H220.465V83.0938H179.961V15.4335H205.253V2.09895H140.592V15.4335H165.883V83.0938H125.328V2.09895H111.251V66.5491L62.8148 2.09895H48.7372V83.0938H25.6497V2.09895H11.5722ZM514.713 42.3494C511.85 44.9011 506.441 46.1769 498.488 46.1769H480.951V15.31H498.846C506.402 15.31 511.651 16.38 514.594 18.5202C517.536 20.578 519.008 24.4466 519.008 30.1261C519.008 35.7233 517.576 39.7978 514.713 42.3494Z" fill="url(#paint0_linear_1243_2)"/>
<path d="M1012.43 2.09895V83.0938H1024V88.4029H998.35V25.4343L951.107 88.4029H762.703V83.0938H794.556L763.061 2.09895H778.808L804.458 66.5491L830.108 2.09895H845.856L814.48 83.0938H852.691V74.698H898.622V51.6095H858.656V38.6454H898.622V15.8039H854.123V2.09895H912.7V83.0938H935.837V2.09895H949.914V66.5491L998.35 2.09895H1012.43Z" fill="url(#paint1_linear_1243_2)"/>
<defs>
<linearGradient id="paint0_linear_1243_2" x1="1.37758" y1="44.2014" x2="1022.62" y2="44.2014" gradientUnits="userSpaceOnUse">
<stop stop-color="#2CBDEE"/>
<stop offset="1" stop-color="#C53156"/>
</linearGradient>
<linearGradient id="paint1_linear_1243_2" x1="1.37758" y1="44.2014" x2="1022.62" y2="44.2014" gradientUnits="userSpaceOnUse">
<stop stop-color="#2CBDEE"/>
<stop offset="1" stop-color="#C53156"/>
</linearGradient>
</defs>
</svg>
