<svg width="17" height="18" viewBox="0 0 17 18" fill="none" xmlns="http://www.w3.org/2000/svg">
<path d="M1 15.0682H6.64744V15.7657H4.63636H4.38636V16.0157V17V17.25H4.63636H11.9091H12.1591V17V16.0157V15.7657H11.9091H9.89802V15.0682H15.5455H15.7955V14.8182V14.1024V13.8524H15.5455H12.8577V5.17977H15.0472H15.2972V4.92977V3.18182V2.93182H15.0472H10.6836H10.4336V3.18182V13.8524H9.89802V1V0.75H9.64802H6.89744H6.64744V1V13.8524H6.11185V3.18182V2.93182H5.86185H1.49821H1.24821V3.18182V4.92977V5.17977H1.49821H3.68772V13.8524H1H0.75V14.1024V14.8182V15.0682H1Z" stroke="#010101" stroke-width="0.5"/>
</svg>
