<svg width="256" height="256" viewBox="0 0 256 256" fill="none" xmlns="http://www.w3.org/2000/svg">
<path fill-rule="evenodd" clip-rule="evenodd" d="M94.5391 5H11C7.68629 5 5 7.68629 5 11V245C5 248.314 7.68629 251 11 251H245C248.314 251 251 248.314 251 245V11C251 7.68629 248.314 5 245 5H158C154.686 5 152 7.68629 152 11V61C152 64.3137 154.686 67 158 67H186.72C198.052 67 205.793 78.4563 201.564 88.9701L144.014 232.069C138.603 245.524 119.517 245.416 114.258 231.9L68.8077 115.085C67.4299 111.543 67.3574 107.627 68.6032 104.037L100.207 12.9671C101.56 9.06879 98.6655 5 94.5391 5ZM11 0H94.5391C102.104 0 107.411 7.45945 104.931 14.6064L73.3268 105.677C72.4703 108.145 72.5202 110.837 73.4675 113.272L118.918 230.087C122.533 239.379 135.655 239.453 139.375 230.203L196.925 87.1044C199.832 79.8762 194.511 72 186.72 72H158C151.925 72 147 67.0751 147 61V11C147 4.92487 151.925 0 158 0H245C251.075 0 256 4.92487 256 11V245C256 251.075 251.075 256 245 256H11C4.92487 256 0 251.075 0 245V11C0 4.92487 4.92487 0 11 0Z" fill="url(#paint0_linear_1295_180)"/>
<defs>
<linearGradient id="paint0_linear_1295_180" x1="0.344395" y1="128" x2="255.656" y2="128" gradientUnits="userSpaceOnUse">
<stop stop-color="#2CBDEE"/>
<stop offset="1" stop-color="#C53156"/>
</linearGradient>
</defs>
</svg>
