<svg width="64" height="64" viewBox="0 0 64 64" fill="none" xmlns="http://www.w3.org/2000/svg">
<path fill-rule="evenodd" clip-rule="evenodd" d="M0 5.36126C0 2.40032 2.40032 0 5.36126 0H22.555C26.2421 0 28.8287 3.63564 27.6199 7.11895L20.7604 26.8853C20.6038 27.3364 20.6129 27.8285 20.7861 28.2734L30.42 53.0343C31.0807 54.7326 33.479 54.7462 34.1589 53.0555L46.1785 23.169C46.7098 21.8479 45.7371 20.4084 44.3132 20.4084H40.1872C37.2262 20.4084 34.8259 18.0081 34.8259 15.0471V5.36126C34.8259 2.40032 37.2262 0 40.1872 0H58.6387C61.5997 0 64 2.40032 64 5.36126V58.6387C64 61.5997 61.5997 64 58.6387 64H5.36126C2.40032 64 0 61.5997 0 58.6387V5.36126ZM5.36126 3.35079C4.2509 3.35079 3.35079 4.2509 3.35079 5.36126V58.6387C3.35079 59.7491 4.2509 60.6492 5.36126 60.6492H58.6387C59.7491 60.6492 60.6492 59.7491 60.6492 58.6387V5.36126C60.6492 4.2509 59.7491 3.35079 58.6387 3.35079H40.1872C39.0768 3.35079 38.1767 4.2509 38.1767 5.36126V15.0471C38.1767 16.1575 39.0768 17.0576 40.1872 17.0576H44.3132C48.1104 17.0576 50.7041 20.8963 49.2873 24.4193L37.2677 54.3057C35.4545 58.8142 29.0593 58.778 27.2972 54.2493L17.6633 29.4884C17.2016 28.3018 17.1773 26.9896 17.5948 25.7867L24.4543 6.02039C24.9076 4.71415 23.9377 3.35079 22.555 3.35079H5.36126Z" fill="url(#paint0_linear_1311_50)"/>
<defs>
<linearGradient id="paint0_linear_1311_50" x1="0.0860987" y1="32" x2="63.9139" y2="32" gradientUnits="userSpaceOnUse">
<stop stop-color="#2CBDEE"/>
<stop offset="1" stop-color="#C53156"/>
</linearGradient>
</defs>
</svg>
