<svg width="233" height="256" viewBox="0 0 233 256" fill="none" xmlns="http://www.w3.org/2000/svg">
<path fill-rule="evenodd" clip-rule="evenodd" d="M85.8227 4.53901H9.98582C6.97763 4.53901 4.53901 6.97763 4.53901 9.98582V222.411C4.53901 225.42 6.97763 227.858 9.98582 227.858H222.411C225.42 227.858 227.858 225.42 227.858 222.411V9.98582C227.858 6.97763 225.42 4.53901 222.411 4.53901H143.433C140.424 4.53901 137.986 6.97763 137.986 9.98582V55.3759C137.986 58.3841 140.424 60.8227 143.433 60.8227H169.505C179.792 60.8227 186.819 71.2227 182.98 80.7672L130.736 210.672C125.824 222.887 108.497 222.789 103.724 210.519L62.4638 104.474C61.2129 101.259 61.1471 97.7042 62.2781 94.4453L90.9685 11.7716C92.1966 8.23266 89.5687 4.53901 85.8227 4.53901ZM9.98582 0H85.8227C92.6903 0 97.5082 6.7717 95.2566 13.2597L66.5662 95.9334C65.7887 98.1739 65.8339 100.618 66.6939 102.828L107.954 208.874C111.236 217.309 123.147 217.376 126.525 208.979L178.769 79.0735C181.408 72.5117 176.577 65.3617 169.505 65.3617H143.433C137.918 65.3617 133.447 60.8909 133.447 55.3759V9.98582C133.447 4.4708 137.918 0 143.433 0H222.411C227.926 0 232.397 4.4708 232.397 9.98582V222.411C232.397 227.926 227.926 232.397 222.411 232.397H9.98582C4.4708 232.397 0 227.926 0 222.411V9.98582C0 4.4708 4.4708 0 9.98582 0Z" fill="url(#paint0_linear_1296_34)"/>
<path d="M227.023 254.964V239.161H229.972V254.964H232.397V256H224.598V254.964H227.023Z" fill="url(#paint1_linear_1296_34)"/>
<path d="M224.588 254.964V256H219.213V242.847L213.114 254.53H211.464L205.389 242.847V256H200.015V254.964H202.439V239.161H207.039L212.314 249.737L217.588 239.161H222.163V254.964H224.588Z" fill="url(#paint2_linear_1296_34)"/>
<path d="M200.025 254.964V256H180.826V254.964H186.001C184.018 253.631 183.026 251.519 183.026 248.629V239.161H185.976V248.508C185.976 250.05 186.376 251.27 187.176 252.17C187.976 253.069 189.059 253.519 190.426 253.519C191.792 253.519 192.876 253.069 193.676 252.17C194.475 251.27 194.875 250.05 194.875 248.508V239.161H197.825V248.629C197.825 251.535 196.825 253.647 194.825 254.964H200.025Z" fill="url(#paint3_linear_1296_34)"/>
<path d="M180.829 254.964V256H165.081V254.964H168.28C167.48 254.563 166.747 254.065 166.08 253.471L167.93 251.327C169.697 252.804 171.53 253.543 173.43 253.543C174.38 253.543 175.13 253.35 175.68 252.965C176.246 252.563 176.53 252.041 176.53 251.399C176.53 250.74 176.263 250.235 175.73 249.881C175.213 249.512 174.313 249.183 173.03 248.894C171.747 248.588 170.772 248.315 170.105 248.074C169.439 247.818 168.847 247.488 168.33 247.087C167.297 246.332 166.78 245.176 166.78 243.618C166.78 242.06 167.364 240.864 168.53 240.029C169.714 239.177 171.172 238.752 172.905 238.752C174.022 238.752 175.13 238.928 176.23 239.282C177.33 239.635 178.28 240.133 179.08 240.775L177.505 242.919C176.988 242.47 176.288 242.1 175.405 241.811C174.522 241.522 173.647 241.378 172.78 241.378C171.93 241.378 171.23 241.546 170.68 241.883C170.13 242.221 169.855 242.735 169.855 243.425C169.855 244.1 170.13 244.622 170.68 244.991C171.23 245.344 172.397 245.73 174.18 246.147C175.98 246.565 177.33 247.151 178.23 247.906C179.146 248.661 179.604 249.721 179.604 251.086C179.604 252.74 178.971 254.033 177.705 254.964H180.829Z" fill="url(#paint4_linear_1296_34)"/>
<path d="M165.093 254.964V256H149.994V254.964H156.068V241.763H150.769V239.161H164.318V241.763H159.018V254.964H165.093Z" fill="url(#paint5_linear_1296_34)"/>
<path d="M150.004 254.964V256H130.806V254.964H135.98C133.997 253.631 133.006 251.519 133.006 248.629V239.161H135.955V248.508C135.955 250.05 136.355 251.27 137.155 252.17C137.955 253.069 139.038 253.519 140.405 253.519C141.772 253.519 142.855 253.069 143.655 252.17C144.455 251.27 144.855 250.05 144.855 248.508V239.161H147.804V248.629C147.804 251.535 146.804 253.647 144.805 254.964H150.004Z" fill="url(#paint6_linear_1296_34)"/>
<path d="M115.112 254.964V253.808L125.286 241.835V241.763H115.437V239.161H129.386V241.378L119.236 253.302V253.374H129.536V254.964H131.96V256H112.687V254.964H115.112Z" fill="url(#paint7_linear_1296_34)"/>
<path d="M113.931 254.964V256H94.3825V254.964H96.8073V239.161H102.807C105.94 239.161 108.348 239.9 110.031 241.378C111.715 242.839 112.556 244.903 112.556 247.569C112.556 251.15 111.09 253.615 108.157 254.964H113.931ZM109.581 247.569C109.581 243.714 107.29 241.787 102.707 241.787H99.7571V253.326H103.032C105.148 253.326 106.765 252.844 107.882 251.881C109.015 250.901 109.581 249.464 109.581 247.569Z" fill="url(#paint8_linear_1296_34)"/>
<path d="M94.3864 254.964V256H73.3879V254.964H79.1125C77.7459 254.209 76.6627 253.173 75.8627 251.857C75.0795 250.54 74.6878 249.07 74.6878 247.448C74.6878 244.975 75.5711 242.911 77.3376 241.257C79.1042 239.587 81.2874 238.752 83.8872 238.752C86.487 238.752 88.6702 239.587 90.4367 241.257C92.2032 242.911 93.0865 244.975 93.0865 247.448C93.0865 249.054 92.6865 250.524 91.8866 251.857C91.1033 253.19 90.0284 254.225 88.6618 254.964H94.3864ZM88.2619 243.136C87.0786 241.948 85.6204 241.353 83.8872 241.353C82.154 241.353 80.6874 241.948 79.4875 243.136C78.3042 244.324 77.7126 245.77 77.7126 247.472C77.7126 249.159 78.3042 250.596 79.4875 251.784C80.6874 252.973 82.154 253.567 83.8872 253.567C85.6204 253.567 87.0786 252.973 88.2619 251.784C89.4618 250.596 90.0617 249.159 90.0617 247.472C90.0617 245.77 89.4618 244.324 88.2619 243.136Z" fill="url(#paint9_linear_1296_34)"/>
<path d="M58.2115 254.964V239.161H61.1613V247.376L69.1607 239.161H72.9104L65.8859 246.533L72.2355 254.988V254.964H74.6603V256H69.5107L63.7111 248.629L61.1613 251.278V256H55.7867V254.964H58.2115Z" fill="url(#paint10_linear_1296_34)"/>
<path d="M55.7763 254.964V256H48.9268V254.964H55.7763Z" fill="url(#paint11_linear_1296_34)"/>
<path d="M48.9164 254.964V256H42.0669V254.964H48.9164Z" fill="url(#paint12_linear_1296_34)"/>
<path d="M42.0566 254.964V256H35.2071V254.964H42.0566Z" fill="url(#paint13_linear_1296_34)"/>
<path d="M35.1967 254.964V256H28.3472V254.964H35.1967Z" fill="url(#paint14_linear_1296_34)"/>
<path d="M28.3369 254.964V256H21.4874V254.964H28.3369Z" fill="url(#paint15_linear_1296_34)"/>
<path d="M21.477 254.964V256H14.6275V254.964H21.477Z" fill="url(#paint16_linear_1296_34)"/>
<path d="M14.6172 254.964V256H7.76766V254.964H14.6172Z" fill="url(#paint17_linear_1296_34)"/>
<path d="M7.75731 254.964V256H0.907801V254.964H7.75731Z" fill="url(#paint18_linear_1296_34)"/>
<defs>
<linearGradient id="paint0_linear_1296_34" x1="0.312642" y1="128" x2="232.085" y2="128" gradientUnits="userSpaceOnUse">
<stop stop-color="#2CBDEE"/>
<stop offset="1" stop-color="#C53156"/>
</linearGradient>
<linearGradient id="paint1_linear_1296_34" x1="0.312642" y1="128" x2="232.085" y2="128" gradientUnits="userSpaceOnUse">
<stop stop-color="#2CBDEE"/>
<stop offset="1" stop-color="#C53156"/>
</linearGradient>
<linearGradient id="paint2_linear_1296_34" x1="0.312642" y1="128" x2="232.085" y2="128" gradientUnits="userSpaceOnUse">
<stop stop-color="#2CBDEE"/>
<stop offset="1" stop-color="#C53156"/>
</linearGradient>
<linearGradient id="paint3_linear_1296_34" x1="0.312642" y1="128" x2="232.085" y2="128" gradientUnits="userSpaceOnUse">
<stop stop-color="#2CBDEE"/>
<stop offset="1" stop-color="#C53156"/>
</linearGradient>
<linearGradient id="paint4_linear_1296_34" x1="0.312642" y1="128" x2="232.085" y2="128" gradientUnits="userSpaceOnUse">
<stop stop-color="#2CBDEE"/>
<stop offset="1" stop-color="#C53156"/>
</linearGradient>
<linearGradient id="paint5_linear_1296_34" x1="0.312642" y1="128" x2="232.085" y2="128" gradientUnits="userSpaceOnUse">
<stop stop-color="#2CBDEE"/>
<stop offset="1" stop-color="#C53156"/>
</linearGradient>
<linearGradient id="paint6_linear_1296_34" x1="0.312642" y1="128" x2="232.085" y2="128" gradientUnits="userSpaceOnUse">
<stop stop-color="#2CBDEE"/>
<stop offset="1" stop-color="#C53156"/>
</linearGradient>
<linearGradient id="paint7_linear_1296_34" x1="0.312642" y1="128" x2="232.085" y2="128" gradientUnits="userSpaceOnUse">
<stop stop-color="#2CBDEE"/>
<stop offset="1" stop-color="#C53156"/>
</linearGradient>
<linearGradient id="paint8_linear_1296_34" x1="0.312642" y1="128" x2="232.085" y2="128" gradientUnits="userSpaceOnUse">
<stop stop-color="#2CBDEE"/>
<stop offset="1" stop-color="#C53156"/>
</linearGradient>
<linearGradient id="paint9_linear_1296_34" x1="0.312642" y1="128" x2="232.085" y2="128" gradientUnits="userSpaceOnUse">
<stop stop-color="#2CBDEE"/>
<stop offset="1" stop-color="#C53156"/>
</linearGradient>
<linearGradient id="paint10_linear_1296_34" x1="0.312642" y1="128" x2="232.085" y2="128" gradientUnits="userSpaceOnUse">
<stop stop-color="#2CBDEE"/>
<stop offset="1" stop-color="#C53156"/>
</linearGradient>
<linearGradient id="paint11_linear_1296_34" x1="0.312642" y1="128" x2="232.085" y2="128" gradientUnits="userSpaceOnUse">
<stop stop-color="#2CBDEE"/>
<stop offset="1" stop-color="#C53156"/>
</linearGradient>
<linearGradient id="paint12_linear_1296_34" x1="0.312642" y1="128" x2="232.085" y2="128" gradientUnits="userSpaceOnUse">
<stop stop-color="#2CBDEE"/>
<stop offset="1" stop-color="#C53156"/>
</linearGradient>
<linearGradient id="paint13_linear_1296_34" x1="0.312642" y1="128" x2="232.085" y2="128" gradientUnits="userSpaceOnUse">
<stop stop-color="#2CBDEE"/>
<stop offset="1" stop-color="#C53156"/>
</linearGradient>
<linearGradient id="paint14_linear_1296_34" x1="0.312642" y1="128" x2="232.085" y2="128" gradientUnits="userSpaceOnUse">
<stop stop-color="#2CBDEE"/>
<stop offset="1" stop-color="#C53156"/>
</linearGradient>
<linearGradient id="paint15_linear_1296_34" x1="0.312642" y1="128" x2="232.085" y2="128" gradientUnits="userSpaceOnUse">
<stop stop-color="#2CBDEE"/>
<stop offset="1" stop-color="#C53156"/>
</linearGradient>
<linearGradient id="paint16_linear_1296_34" x1="0.312642" y1="128" x2="232.085" y2="128" gradientUnits="userSpaceOnUse">
<stop stop-color="#2CBDEE"/>
<stop offset="1" stop-color="#C53156"/>
</linearGradient>
<linearGradient id="paint17_linear_1296_34" x1="0.312642" y1="128" x2="232.085" y2="128" gradientUnits="userSpaceOnUse">
<stop stop-color="#2CBDEE"/>
<stop offset="1" stop-color="#C53156"/>
</linearGradient>
<linearGradient id="paint18_linear_1296_34" x1="0.312642" y1="128" x2="232.085" y2="128" gradientUnits="userSpaceOnUse">
<stop stop-color="#2CBDEE"/>
<stop offset="1" stop-color="#C53156"/>
</linearGradient>
</defs>
</svg>
