<svg width="255" height="19" viewBox="0 0 255 19" fill="none" xmlns="http://www.w3.org/2000/svg">
<path d="M249.08 17.8589V0.451102H252.329V17.8589H255V19H246.408V17.8589H249.08Z" fill="url(#paint0_linear_1296_33)"/>
<path d="M246.397 17.8589V19H240.477V4.51115L233.758 17.3813H231.94L225.249 4.51115V19H219.329V17.8589H222V0.451102H227.066L232.877 12.1005L238.687 0.451102H243.726V17.8589H246.397Z" fill="url(#paint1_linear_1296_33)"/>
<path d="M219.34 17.8589V19H198.192V17.8589H203.892C201.707 16.3906 200.615 14.0642 200.615 10.8799V0.451102H203.864V10.7472C203.864 12.4455 204.305 13.79 205.186 14.7807C206.067 15.7714 207.261 16.2667 208.766 16.2667C210.271 16.2667 211.465 15.7714 212.346 14.7807C213.227 13.79 213.667 12.4455 213.667 10.7472V0.451102H216.917V10.8799C216.917 14.0819 215.815 16.4083 213.612 17.8589H219.34Z" fill="url(#paint2_linear_1296_33)"/>
<path d="M198.195 17.8589V19H180.847V17.8589H184.371C183.49 17.4167 182.682 16.8682 181.948 16.2137L183.986 13.8519C185.932 15.4795 187.951 16.2933 190.044 16.2933C191.09 16.2933 191.916 16.081 192.522 15.6564C193.146 15.2141 193.459 14.6392 193.459 13.9316C193.459 13.2062 193.165 12.649 192.577 12.2598C192.008 11.8529 191.017 11.4902 189.603 11.1718C188.19 10.8357 187.116 10.5349 186.381 10.2695C185.647 9.98649 184.995 9.62383 184.426 9.18156C183.288 8.35009 182.719 7.07634 182.719 5.36033C182.719 3.64432 183.362 2.32635 184.647 1.40642C185.95 0.468808 187.556 0 189.466 0C190.696 0 191.916 0.1946 193.128 0.583799C194.34 0.972997 195.386 1.52141 196.267 2.22905L194.532 4.59078C193.963 4.09543 193.192 3.68854 192.219 3.37011C191.246 3.05167 190.283 2.89245 189.328 2.89245C188.392 2.89245 187.621 3.07821 187.015 3.44972C186.409 3.82123 186.106 4.38733 186.106 5.14804C186.106 5.89106 186.409 6.46601 187.015 6.8729C187.621 7.2621 188.906 7.68668 190.87 8.14664C192.853 8.6066 194.34 9.25232 195.331 10.0838C196.341 10.9153 196.846 12.0829 196.846 13.5866C196.846 15.4087 196.148 16.8329 194.753 17.8589H198.195Z" fill="url(#paint3_linear_1296_33)"/>
<path d="M180.86 17.8589V19H164.227V17.8589H170.919V3.31702H165.081V0.451102H180.006V3.31702H174.168V17.8589H180.86Z" fill="url(#paint4_linear_1296_33)"/>
<path d="M164.239 17.8589V19H143.091V17.8589H148.791C146.606 16.3906 145.514 14.0642 145.514 10.8799V0.451102H148.763V10.7472C148.763 12.4455 149.204 13.79 150.085 14.7807C150.966 15.7714 152.159 16.2667 153.665 16.2667C155.17 16.2667 156.363 15.7714 157.245 14.7807C158.126 13.79 158.566 12.4455 158.566 10.7472V0.451102H161.816V10.8799C161.816 14.0819 160.714 16.4083 158.511 17.8589H164.239Z" fill="url(#paint5_linear_1296_33)"/>
<path d="M125.803 17.8589V16.5852L137.01 3.39663V3.31702H126.161V0.451102H141.526V2.89244L130.346 16.0279V16.1075H141.692V17.8589H144.363V19H123.132V17.8589H125.803Z" fill="url(#paint6_linear_1296_33)"/>
<path d="M124.502 17.8589V19H102.968V17.8589H105.639V0.451102H112.248C115.7 0.451102 118.352 1.26488 120.206 2.89244C122.061 4.50231 122.988 6.77558 122.988 9.71227C122.988 13.6573 121.372 16.3729 118.141 17.8589H124.502ZM119.711 9.71227C119.711 5.46646 117.187 3.34356 112.138 3.34356H108.889V16.0544H112.496C114.828 16.0544 116.608 15.5237 117.838 14.4623C119.087 13.3831 119.711 11.7998 119.711 9.71227Z" fill="url(#paint7_linear_1296_33)"/>
<path d="M102.973 17.8589V19H79.8414V17.8589H86.1474C84.642 17.0275 83.4487 15.8864 82.5676 14.4357C81.7047 12.9851 81.2733 11.3664 81.2733 9.5796C81.2733 6.85521 82.2463 4.58193 84.1922 2.75977C86.1382 0.919925 88.5431 0 91.407 0C94.2708 0 96.6757 0.919925 98.6217 2.75977C100.568 4.58193 101.541 6.85521 101.541 9.5796C101.541 11.3487 101.1 12.9674 100.219 14.4357C99.356 15.9041 98.1719 17.0451 96.6665 17.8589H102.973ZM96.226 4.8296C94.9225 3.52048 93.3162 2.86592 91.407 2.86592C89.4977 2.86592 87.8822 3.52048 86.5604 4.8296C85.257 6.13873 84.6053 7.7309 84.6053 9.60614C84.6053 11.4637 85.257 13.047 86.5604 14.3561C87.8822 15.6653 89.4977 16.3198 91.407 16.3198C93.3162 16.3198 94.9225 15.6653 96.226 14.3561C97.5477 13.047 98.2086 11.4637 98.2086 9.60614C98.2086 7.7309 97.5477 6.13873 96.226 4.8296Z" fill="url(#paint8_linear_1296_33)"/>
<path d="M63.1236 17.8589V0.451102H66.373V9.49998L75.1848 0.451102H79.3154L71.5775 8.57121L78.5719 17.8854V17.8589H81.243V19H75.5703L69.1817 10.8799L66.373 13.7989V19H60.4525V17.8589H63.1236Z" fill="url(#paint9_linear_1296_33)"/>
<path d="M60.4411 17.8589V19H52.8959V17.8589H60.4411Z" fill="url(#paint10_linear_1296_33)"/>
<path d="M52.8845 17.8589V19H45.3394V17.8589H52.8845Z" fill="url(#paint11_linear_1296_33)"/>
<path d="M45.328 17.8589V19H37.7828V17.8589H45.328Z" fill="url(#paint12_linear_1296_33)"/>
<path d="M37.7714 17.8589V19H30.2262V17.8589H37.7714Z" fill="url(#paint13_linear_1296_33)"/>
<path d="M30.2148 17.8589V19H22.6697V17.8589H30.2148Z" fill="url(#paint14_linear_1296_33)"/>
<path d="M22.6583 17.8589V19H15.1131V17.8589H22.6583Z" fill="url(#paint15_linear_1296_33)"/>
<path d="M15.1017 17.8589V19H7.55656V17.8589H15.1017Z" fill="url(#paint16_linear_1296_33)"/>
<path d="M7.54516 17.8589V19H0V17.8589H7.54516Z" fill="url(#paint17_linear_1296_33)"/>
<defs>
<linearGradient id="paint0_linear_1296_33" x1="0.343049" y1="9.5" x2="254.657" y2="9.5" gradientUnits="userSpaceOnUse">
<stop stop-color="#2CBDEE"/>
<stop offset="1" stop-color="#C53156"/>
</linearGradient>
<linearGradient id="paint1_linear_1296_33" x1="0.343049" y1="9.5" x2="254.657" y2="9.5" gradientUnits="userSpaceOnUse">
<stop stop-color="#2CBDEE"/>
<stop offset="1" stop-color="#C53156"/>
</linearGradient>
<linearGradient id="paint2_linear_1296_33" x1="0.343049" y1="9.5" x2="254.657" y2="9.5" gradientUnits="userSpaceOnUse">
<stop stop-color="#2CBDEE"/>
<stop offset="1" stop-color="#C53156"/>
</linearGradient>
<linearGradient id="paint3_linear_1296_33" x1="0.343049" y1="9.5" x2="254.657" y2="9.5" gradientUnits="userSpaceOnUse">
<stop stop-color="#2CBDEE"/>
<stop offset="1" stop-color="#C53156"/>
</linearGradient>
<linearGradient id="paint4_linear_1296_33" x1="0.343049" y1="9.5" x2="254.657" y2="9.5" gradientUnits="userSpaceOnUse">
<stop stop-color="#2CBDEE"/>
<stop offset="1" stop-color="#C53156"/>
</linearGradient>
<linearGradient id="paint5_linear_1296_33" x1="0.343049" y1="9.5" x2="254.657" y2="9.5" gradientUnits="userSpaceOnUse">
<stop stop-color="#2CBDEE"/>
<stop offset="1" stop-color="#C53156"/>
</linearGradient>
<linearGradient id="paint6_linear_1296_33" x1="0.343049" y1="9.5" x2="254.657" y2="9.5" gradientUnits="userSpaceOnUse">
<stop stop-color="#2CBDEE"/>
<stop offset="1" stop-color="#C53156"/>
</linearGradient>
<linearGradient id="paint7_linear_1296_33" x1="0.343049" y1="9.5" x2="254.657" y2="9.5" gradientUnits="userSpaceOnUse">
<stop stop-color="#2CBDEE"/>
<stop offset="1" stop-color="#C53156"/>
</linearGradient>
<linearGradient id="paint8_linear_1296_33" x1="0.343049" y1="9.5" x2="254.657" y2="9.5" gradientUnits="userSpaceOnUse">
<stop stop-color="#2CBDEE"/>
<stop offset="1" stop-color="#C53156"/>
</linearGradient>
<linearGradient id="paint9_linear_1296_33" x1="0.343049" y1="9.5" x2="254.657" y2="9.5" gradientUnits="userSpaceOnUse">
<stop stop-color="#2CBDEE"/>
<stop offset="1" stop-color="#C53156"/>
</linearGradient>
<linearGradient id="paint10_linear_1296_33" x1="0.343049" y1="9.5" x2="254.657" y2="9.5" gradientUnits="userSpaceOnUse">
<stop stop-color="#2CBDEE"/>
<stop offset="1" stop-color="#C53156"/>
</linearGradient>
<linearGradient id="paint11_linear_1296_33" x1="0.343049" y1="9.5" x2="254.657" y2="9.5" gradientUnits="userSpaceOnUse">
<stop stop-color="#2CBDEE"/>
<stop offset="1" stop-color="#C53156"/>
</linearGradient>
<linearGradient id="paint12_linear_1296_33" x1="0.343049" y1="9.5" x2="254.657" y2="9.5" gradientUnits="userSpaceOnUse">
<stop stop-color="#2CBDEE"/>
<stop offset="1" stop-color="#C53156"/>
</linearGradient>
<linearGradient id="paint13_linear_1296_33" x1="0.343049" y1="9.5" x2="254.657" y2="9.5" gradientUnits="userSpaceOnUse">
<stop stop-color="#2CBDEE"/>
<stop offset="1" stop-color="#C53156"/>
</linearGradient>
<linearGradient id="paint14_linear_1296_33" x1="0.343049" y1="9.5" x2="254.657" y2="9.5" gradientUnits="userSpaceOnUse">
<stop stop-color="#2CBDEE"/>
<stop offset="1" stop-color="#C53156"/>
</linearGradient>
<linearGradient id="paint15_linear_1296_33" x1="0.343049" y1="9.5" x2="254.657" y2="9.5" gradientUnits="userSpaceOnUse">
<stop stop-color="#2CBDEE"/>
<stop offset="1" stop-color="#C53156"/>
</linearGradient>
<linearGradient id="paint16_linear_1296_33" x1="0.343049" y1="9.5" x2="254.657" y2="9.5" gradientUnits="userSpaceOnUse">
<stop stop-color="#2CBDEE"/>
<stop offset="1" stop-color="#C53156"/>
</linearGradient>
<linearGradient id="paint17_linear_1296_33" x1="0.343049" y1="9.5" x2="254.657" y2="9.5" gradientUnits="userSpaceOnUse">
<stop stop-color="#2CBDEE"/>
<stop offset="1" stop-color="#C53156"/>
</linearGradient>
</defs>
</svg>
