<svg width="44" height="26" viewBox="0 0 44 26" fill="none" xmlns="http://www.w3.org/2000/svg">
<path fill-rule="evenodd" clip-rule="evenodd" d="M41.2444 15.5157V0.5H37.7989L29.2501 11.4912V0.5H25.5491V15.5157H23.8264V0.5H17.0123V3.90343H20.2627V15.5157H15.1085V0.5H8.29453V3.90343H11.5449V15.5157H6.42132V0.5H2.72031V15.5157H0.5V17.5H29.2238L37.5434 6.78538V17.5H43.4647V15.5157H41.2444ZM42.9647 16.0157H40.7444V1H38.0434L28.7501 12.9485V1H26.0491V16.0157H23.3264V1H17.5123V3.40343H20.7627V16.0157H14.6085V1H8.79453V3.40343H12.0449V16.0157H5.92132V1H3.22031V16.0157H1V17H28.979L38.0434 5.32618V17H42.9647V16.0157Z" fill="black"/>
<path fill-rule="evenodd" clip-rule="evenodd" d="M22 25.0573L38.6843 25.0574L41.4814 21.4551V25.0574H43V24.7537H42.3149V20.1201H41.4814L38.6137 23.8072V20.1201H37.7802V24.7537L36.9985 24.7536V24.2733H34.2792V22.9525H36.6454V22.2108H34.2792V20.9041H36.9138V20.1201H33.4457V24.7536H29.4507V23.6094H30.3266C31.0517 23.6094 31.5885 23.4704 31.937 23.1926C32.2902 22.9148 32.4667 22.4769 32.4667 21.8788C32.4667 21.2808 32.2949 20.8382 31.9511 20.5509C31.6074 20.2637 31.0611 20.1201 30.3124 20.1201H28.6172V24.7536H26.3157C26.7018 24.537 27.0055 24.2333 27.2269 23.8424C27.4529 23.4516 27.5659 23.0207 27.5659 22.5499C27.5659 21.8247 27.3163 21.2196 26.8172 20.7346C26.318 20.2449 25.7012 20 24.9666 20C24.232 20 23.6151 20.2449 23.116 20.7346C22.6169 21.2196 22.3673 21.8247 22.3673 22.5499C22.3673 23.0255 22.478 23.4563 22.6993 23.8424C22.9253 24.2286 23.2314 24.5323 23.6175 24.7536H22V25.0573ZM24.9666 20.7628C25.4563 20.7628 25.8683 20.9371 26.2027 21.2855C26.5417 21.634 26.7112 22.0578 26.7112 22.5569C26.7112 23.0514 26.5417 23.4728 26.2027 23.8213C25.8683 24.1697 25.4563 24.3439 24.9666 24.3439C24.4769 24.3439 24.0625 24.1697 23.7235 23.8213C23.3891 23.4728 23.222 23.0514 23.222 22.5569C23.222 22.0578 23.3891 21.634 23.7235 21.2855C24.0625 20.9371 24.4769 20.7628 24.9666 20.7628ZM31.3578 22.5922C31.193 22.7665 30.8799 22.8536 30.4184 22.8536H29.4507V20.8759H30.2983C30.7504 20.8759 31.0823 20.9465 31.2942 21.0878C31.5061 21.229 31.6121 21.4715 31.6121 21.8153C31.6121 22.1543 31.5273 22.4133 31.3578 22.5922Z" fill="black"/>
</svg>
