<svg width="186" height="16" viewBox="0 0 186 16" fill="none" xmlns="http://www.w3.org/2000/svg">
<path fill-rule="evenodd" clip-rule="evenodd" d="M2.09445 0.379887V15.0391H0V16H11.3688V4.60335L19.9193 16H87.0471V10.7486H90.3939L93.9998 16H138V15.5V15.0391H135.943V0.379887H125.341V2.86034H133.395V6.99441H126.161V9.34078H133.395V13.5196H125.082V15.0391H121.815V0.379887H119.267V13.4972H112.379V15.0391H109.585V0.379887H98.9831V2.86034H107.037V6.99441H99.8036V9.34078H107.037V13.5196H98.724V15.0391H96.5692L93.2872 10.324C95.4608 9.65363 96.5476 8.0298 96.5476 5.45251C96.5476 3.6797 96.051 2.39106 95.0578 1.58659C94.0645 0.782122 92.4163 0.379887 90.1132 0.379887H84.4992V15.0391H81.2323V13.5196H72.9193V9.34078H80.1527V6.99441H72.9193V2.86034H80.9732V0.379887H70.3714V15.0391H65.0849C65.8478 14.6369 66.4956 14.1304 67.0282 13.5196V8.17877H64.4803V12.4693C63.5159 13.1099 62.3139 13.4302 60.8744 13.4302C59.4493 13.4302 58.233 12.9311 57.2253 11.933C56.2177 10.9199 55.7139 9.58659 55.7139 7.93296C55.7139 6.27933 56.2249 4.97579 57.2469 4.02235C58.2833 3.0689 59.5717 2.59218 61.1119 2.59218C61.9036 2.59218 62.5946 2.69646 63.1848 2.90503C63.7894 3.0987 64.3867 3.45624 64.9769 3.97765L66.3372 1.96648C64.8978 0.655493 63.084 0 60.896 0C58.7224 0 56.8726 0.744879 55.3468 2.23464C53.8209 3.7095 53.058 5.58659 53.058 7.86592C53.058 9.45996 53.4251 10.8901 54.1592 12.1564C54.9078 13.4227 55.9082 14.3836 57.1605 15.0391H50.7628V13.5196H42.4498V9.34078H49.6832V6.99441H42.4498V2.86034H50.5037V0.379887H39.9019V15.0391H32.571V2.7933H37.1486V0.379887H25.4456V2.7933H30.0232V15.0391H22.6831V0.379887H20.1353V12.0447L11.3688 0.379887H8.82093V15.0391H4.64233V0.379887H2.09445ZM93.1577 7.6648C92.6394 8.12663 91.6606 8.35754 90.2211 8.35754H87.0471V2.77095H90.2859C91.6534 2.77095 92.6035 2.96462 93.1361 3.35195C93.6687 3.72439 93.935 4.42458 93.935 5.45251C93.935 6.46555 93.6759 7.20298 93.1577 7.6648Z" fill="currentcolor"/>
<path d="M183.239 0.379887V15.0391H185.333V16H180.691V4.60335L172.14 16H138V15.5V15.0391H135.943H143.806L138.106 0.379887H140.956L145.599 12.0447L150.241 0.379887H153.091L147.412 15.0391H154.328V13.5196H162.641V9.34078H155.408V6.99441H162.641V2.86034H154.587V0.379887H165.189V15.0391H169.377V0.379887H171.925V12.0447L180.691 0.379887H183.239Z" fill="currentcolor"/>
</svg>
