<svg width="187" height="18" viewBox="0 0 187 18" fill="none" xmlns="http://www.w3.org/2000/svg">
<path fill-rule="evenodd" clip-rule="evenodd" d="M3.34445 16.2891H1.25V16.75H12.1188V4.85356L21.0443 16.75H87.7971V11.4986H91.5255L95.1314 16.75H173.015L181.941 4.85356V16.75H186.083V16.2891H183.989V1.62989H181.816L172.675 13.7935V1.62989H170.627V16.2891H165.939V1.62989H155.837V3.61034H163.891V8.24441H156.658V10.0908H163.891V14.7696H155.578V16.2891H148.047L153.726 1.62989H151.41L146.599 13.7208L141.787 1.62989H139.471L145.172 16.2891H136.693V1.62989H126.591V3.61034H134.645V8.24441H127.411V10.0908H134.645V14.7696H126.332V16.2891H122.565V1.62989H120.517V14.7472H113.629V16.2891H110.335V1.62989H100.233V3.61034H108.287V8.24441H101.054V10.0908H108.287V14.7696H99.974V16.2891H97.4387L93.8865 11.186L94.2135 11.0851C95.255 10.7639 96.0184 10.2209 96.5248 9.4643C97.0331 8.70478 97.2976 7.70719 97.2976 6.45251C97.2976 4.72434 96.8147 3.5214 95.9004 2.78086C94.9755 2.03169 93.3998 1.62989 91.1132 1.62989H85.7492V16.2891H81.9823V14.7696H73.6693V10.0908H80.9027V8.24441H73.6693V3.61034H81.7232V1.62989H71.6214V16.2891H66.0849L65.9683 15.818C66.6764 15.4446 67.2789 14.9801 67.7782 14.4248V9.42877H65.7303V13.6033L65.6186 13.6775C64.6042 14.3513 63.3511 14.6802 61.8744 14.6802C60.3838 14.6802 59.1041 14.1553 58.0494 13.1106L58.0481 13.1093C56.9865 12.042 56.4639 10.6414 56.4639 8.93296C56.4639 7.22381 56.9944 5.84892 58.0764 4.83954L58.0776 4.83835C59.1647 3.83833 60.5154 3.34218 62.1119 3.34218C62.9233 3.34218 63.6424 3.44876 64.2645 3.66807C64.8318 3.85036 65.3856 4.16557 65.9261 4.60653L67.0072 3.00826C65.646 1.83943 63.948 1.25 61.896 1.25C59.7862 1.25 57.9996 1.97033 56.5214 3.41352L56.5205 3.41439C55.0473 4.8384 54.308 6.64879 54.308 8.86592C54.308 10.4197 54.6653 11.8057 55.3751 13.0304C56.1009 14.2577 57.0674 15.1848 58.2765 15.8176L58.1605 16.2891H51.5128V14.7696H43.1998V10.0908H50.4332V8.24441H43.1998V3.61034H51.2537V1.62989H41.1519V16.2891H33.321V3.5433H37.8986V1.62989H26.6956V3.5433H31.2732V16.2891H23.4331V1.62989H21.3853V13.7935L12.244 1.62989H10.0709V16.2891H5.39233V1.62989H3.34445V16.2891ZM137.193 15.7891H144.441L138.741 1.12989H142.126L146.599 12.3686L151.071 1.12989H154.456L148.777 15.7891H155.078V14.2696H163.391V10.5908H156.158V7.74441H163.391V4.11034H155.337V1.12989H166.439V15.7891H170.127V1.12989H173.175V12.2959L181.566 1.12989H184.489V15.7891H186.583V17.25H181.441V6.35315L173.265 17.25H94.8682L91.2623 11.9986H88.2971V17.25H20.7944L12.6188 6.35314V17.25H0.75V15.7891H2.84445V1.12989H5.89233V15.7891H9.57093V1.12989H12.4937L20.8853 12.2959V1.12989H23.9331V15.7891H30.7732V4.0433H26.1956V1.12989H38.3986V4.0433H33.821V15.7891H40.6519V1.12989H51.7537V4.11034H43.6998V7.74441H50.9332V10.5908H43.6998V14.2696H52.0128V15.7891H57.2594C56.3245 15.1491 55.5524 14.3129 54.944 13.2836L54.9429 13.2818C54.1848 11.9741 53.808 10.5 53.808 8.86592C53.808 6.52461 54.5944 4.58094 56.1726 3.0553C57.7461 1.51928 59.6587 0.75 61.896 0.75C64.138 0.75 66.0143 1.42346 67.5056 2.78165L67.6655 2.92733L66.0246 5.35337L65.8114 5.16501C65.2411 4.66115 64.6732 4.32401 64.1085 4.14311L64.1014 4.14085C63.544 3.94386 62.8824 3.84218 62.1119 3.84218C60.6283 3.84218 59.4025 4.29928 58.4168 5.20578C57.4552 6.10324 56.9639 7.33523 56.9639 8.93296C56.9639 10.5314 57.4487 11.7974 58.402 12.7561C59.3624 13.7071 60.5152 14.1802 61.8744 14.1802C63.2202 14.1802 64.3344 13.893 65.2303 13.333V8.92877H68.2782V14.6132L68.2166 14.6839C67.8543 15.0993 67.4414 15.4677 66.9786 15.7891H71.1214V1.12989H82.2232V4.11034H74.1693V7.74441H81.4027V10.5908H74.1693V14.2696H82.4823V15.7891H85.2492V1.12989H91.1132C93.4329 1.12989 95.1536 1.53255 96.2151 2.39232C97.2873 3.26073 97.7976 4.63506 97.7976 6.45251C97.7976 7.77512 97.5188 8.87808 96.9403 9.7424C96.4161 10.5256 95.6584 11.0942 94.6825 11.4542L97.6998 15.7891H99.474V14.2696H107.787V10.5908H100.554V7.74441H107.787V4.11034H99.7331V1.12989H110.835V15.7891H113.129V14.2472H120.017V1.12989H123.065V15.7891H125.832V14.2696H134.145V10.5908H126.911V7.74441H134.145V4.11034H126.091V1.12989H137.193V15.7891ZM87.5471 9.85754V3.27095H91.2859C92.6634 3.27095 93.7551 3.45891 94.4264 3.94484C95.1537 4.45589 95.435 5.3607 95.435 6.45251C95.435 7.5415 95.1563 8.44461 94.4903 9.03808L94.1577 8.6648C94.6759 8.20298 94.935 7.46555 94.935 6.45251C94.935 5.42458 94.6687 4.72439 94.1361 4.35195C93.6035 3.96462 92.6534 3.77095 91.2859 3.77095H88.0471V9.35754H91.2211C92.6606 9.35754 93.6394 9.12663 94.1577 8.6648L94.4903 9.03808C93.8225 9.63325 92.6728 9.85754 91.2211 9.85754H87.5471Z" fill="black"/>
</svg>
