<svg width="343" height="256" viewBox="0 0 343 256" fill="none" xmlns="http://www.w3.org/2000/svg">
<path fill-rule="evenodd" clip-rule="evenodd" d="M118.954 45.9541C113.682 51.2261 113.682 59.7739 118.954 65.0459C124.226 70.318 132.774 70.318 138.046 65.0459C143.318 59.7739 143.318 51.2261 138.046 45.9541C132.774 40.682 124.226 40.682 118.954 45.9541ZM141.581 42.4185C134.357 35.1938 122.643 35.1938 115.419 42.4185C108.194 49.6432 108.194 61.3568 115.419 68.5815C122.643 75.8062 134.357 75.8062 141.581 68.5815C148.806 61.3568 148.806 49.6432 141.581 42.4185Z" fill="url(#paint0_linear_1295_161)"/>
<path fill-rule="evenodd" clip-rule="evenodd" d="M78 94.8259V127.5C78 134.956 84.0442 141 91.5 141C98.9558 141 105 134.956 105 127.5C105 114.521 115.521 104 128.5 104C141.479 104 152 114.521 152 127.5V146C152 169.196 133.196 188 110 188H91.5C84.0442 188 78 194.044 78 201.5C78 208.956 84.0442 215 91.5 215H128.5C156.39 215 179 192.39 179 164.5V94.8259C179 84.9809 171.019 77 161.174 77C156.457 77 151.887 78.9037 148.536 82.2544C137.516 93.2747 119.484 93.2747 108.464 82.2544C105.113 78.9037 100.543 77 95.8259 77C85.9809 77 78 84.9809 78 94.8259ZM95.8259 72C101.88 72 107.719 74.4382 112 78.7189C121.067 87.7866 135.933 87.7866 145 78.7189C149.281 74.4382 155.12 72 161.174 72C173.781 72 184 82.2195 184 94.8259V164.5C184 195.152 159.152 220 128.5 220H91.5C81.2827 220 73 211.717 73 201.5C73 191.283 81.2827 183 91.5 183H110C130.435 183 147 166.435 147 146V127.5C147 117.283 138.717 109 128.5 109C118.283 109 110 117.283 110 127.5C110 137.717 101.717 146 91.5 146C81.2827 146 73 137.717 73 127.5V94.8259C73 82.2195 83.2195 72 95.8259 72Z" fill="url(#paint1_linear_1295_161)"/>
<path d="M238.048 183C217.858 223.32 176.162 251 128 251C60.069 251 5 195.931 5 128C5 60.069 60.069 5 128 5C175.762 5 217.166 32.2234 237.542 72H243.132C222.36 29.3722 178.61 0 128 0C57.3076 0 0 57.3076 0 128C0 198.692 57.3076 256 128 256C179.005 256 223.042 226.168 243.614 183H238.048Z" fill="url(#paint2_linear_1295_161)"/>
<path d="M307.086 126.989V96.7828H312.486L331.064 120.819V96.7828H336.463V126.989H340.901V128.969H330.606L312.486 105.485V128.969H302.648V126.989H307.086Z" fill="url(#paint3_linear_1295_161)"/>
<path d="M277.147 126.989V96.7828H299.614V101.894H282.547V110.412H297.876V115.247H282.547V123.858H300.164V126.989H304.602V128.969H272.709V126.989H277.147Z" fill="url(#paint4_linear_1295_161)"/>
<path d="M272.728 126.989V128.969H241.429V126.989H245.868V96.7828H256.85C261.7 96.7828 265.239 97.719 267.465 99.5916C269.692 101.464 270.806 104.35 270.806 108.248C270.806 112.147 269.662 115.002 267.374 116.813C265.116 118.624 261.639 119.53 256.941 119.53H251.267V126.989H272.728ZM257.536 114.603C260.525 114.603 262.554 114.035 263.622 112.899C264.72 111.732 265.269 110.044 265.269 107.834C265.269 105.593 264.583 104.012 263.21 103.091C261.837 102.17 259.687 101.71 256.758 101.71H251.267V114.603H257.536Z" fill="url(#paint5_linear_1295_161)"/>
<path d="M241.436 126.989V128.969H203V126.989H213.479C210.977 125.546 208.994 123.566 207.53 121.049C206.096 118.532 205.379 115.723 205.379 112.623C205.379 107.895 206.996 103.951 210.23 100.789C213.463 97.5963 217.459 96 222.218 96C226.977 96 230.973 97.5963 234.207 100.789C237.44 103.951 239.057 107.895 239.057 112.623C239.057 115.692 238.325 118.501 236.861 121.049C235.427 123.597 233.459 125.577 230.958 126.989H241.436ZM230.226 104.38C228.06 102.109 225.391 100.973 222.218 100.973C219.046 100.973 216.361 102.109 214.165 104.38C211.999 106.652 210.916 109.415 210.916 112.669C210.916 115.892 211.999 118.639 214.165 120.911C216.361 123.183 219.046 124.318 222.218 124.318C225.391 124.318 228.06 123.183 230.226 120.911C232.422 118.639 233.52 115.892 233.52 112.669C233.52 109.415 232.422 106.652 230.226 104.38Z" fill="url(#paint6_linear_1295_161)"/>
<path d="M323.901 158.623V137.61H339.53V141.165H327.657V147.091H338.321V150.454H327.657V156.444H339.912V158.623H343V160H320.814V158.623H323.901Z" fill="url(#paint7_linear_1295_161)"/>
<path d="M320.803 158.623V160H297.375V158.623H304.442C302.765 157.619 301.439 156.252 300.463 154.523C299.508 152.793 299.03 150.839 299.03 148.661C299.03 145.372 300.155 142.617 302.405 140.396C304.675 138.176 307.529 137.065 310.967 137.065C314.426 137.065 317.312 138.346 319.625 140.909L317.238 143.536C316.177 142.511 315.169 141.795 314.214 141.389C313.28 140.984 312.177 140.781 310.904 140.781C308.654 140.781 306.765 141.518 305.238 142.991C303.71 144.443 302.946 146.312 302.946 148.597C302.946 150.86 303.699 152.761 305.206 154.298C306.734 155.814 308.537 156.573 310.617 156.573C311.911 156.573 313.026 156.359 313.959 155.932C314.893 155.483 315.869 154.779 316.888 153.818L319.307 156.316C318.373 157.341 317.482 158.11 316.633 158.623H320.803Z" fill="url(#paint8_linear_1295_161)"/>
<path d="M298.186 158.623V160H291.31L285.994 152.472H281.06V160H274.217V158.623H277.304V137.61H285.58C288.976 137.61 291.406 138.186 292.87 139.339C294.334 140.492 295.066 142.34 295.066 144.881C295.066 148.575 293.464 150.903 290.26 151.864L295.098 158.623H298.186ZM285.74 149.045C287.862 149.045 289.305 148.714 290.069 148.052C290.833 147.39 291.215 146.333 291.215 144.881C291.215 143.407 290.822 142.404 290.037 141.87C289.252 141.315 287.851 141.037 285.835 141.037H281.06V149.045H285.74Z" fill="url(#paint9_linear_1295_161)"/>
<path d="M274.23 158.623V160H249.783V158.623H256.373C253.847 156.85 252.585 154.042 252.585 150.198V137.61H256.341V150.038C256.341 152.088 256.85 153.711 257.869 154.907C258.887 156.103 260.267 156.701 262.007 156.701C263.747 156.701 265.126 156.103 266.145 154.907C267.163 153.711 267.673 152.088 267.673 150.038V137.61H271.429V150.198C271.429 154.063 270.156 156.872 267.609 158.623H274.23Z" fill="url(#paint10_linear_1295_161)"/>
<path d="M249.788 158.623V160H223.05V158.623H230.339C228.599 157.619 227.22 156.242 226.201 154.49C225.204 152.739 224.705 150.785 224.705 148.629C224.705 145.34 225.83 142.596 228.079 140.396C230.329 138.176 233.109 137.065 236.419 137.065C239.73 137.065 242.51 138.176 244.759 140.396C247.008 142.596 248.133 145.34 248.133 148.629C248.133 150.764 247.624 152.718 246.605 154.49C245.608 156.263 244.239 157.64 242.499 158.623H249.788ZM241.99 142.895C240.483 141.315 238.626 140.525 236.419 140.525C234.212 140.525 232.345 141.315 230.817 142.895C229.31 144.475 228.557 146.397 228.557 148.661C228.557 150.903 229.31 152.814 230.817 154.394C232.345 155.975 234.212 156.765 236.419 156.765C238.626 156.765 240.483 155.975 241.99 154.394C243.518 152.814 244.282 150.903 244.282 148.661C244.282 146.397 243.518 144.475 241.99 142.895Z" fill="url(#paint11_linear_1295_161)"/>
<path d="M223.054 158.623V160H203V158.623H207.074C206.056 158.089 205.122 157.427 204.273 156.637L206.629 153.786C208.878 155.75 211.212 156.733 213.632 156.733C214.841 156.733 215.796 156.476 216.497 155.964C217.218 155.43 217.579 154.736 217.579 153.882C217.579 153.006 217.239 152.334 216.56 151.864C215.902 151.373 214.756 150.935 213.122 150.551C211.488 150.145 210.247 149.782 209.398 149.461C208.549 149.12 207.796 148.682 207.138 148.148C205.822 147.144 205.165 145.607 205.165 143.536C205.165 141.464 205.907 139.873 207.393 138.763C208.899 137.631 210.756 137.065 212.963 137.065C214.385 137.065 215.796 137.3 217.197 137.77C218.597 138.24 219.807 138.902 220.826 139.756L218.82 142.607C218.162 142.009 217.271 141.518 216.146 141.133C215.022 140.749 213.908 140.557 212.804 140.557C211.722 140.557 210.831 140.781 210.13 141.229C209.43 141.678 209.08 142.361 209.08 143.279C209.08 144.176 209.43 144.87 210.13 145.361C210.831 145.831 212.316 146.344 214.587 146.899C216.878 147.454 218.597 148.234 219.743 149.237C220.91 150.241 221.494 151.65 221.494 153.465C221.494 155.665 220.688 157.384 219.075 158.623H223.054Z" fill="url(#paint12_linear_1295_161)"/>
<defs>
<linearGradient id="paint0_linear_1295_161" x1="0.461435" y1="128" x2="342.539" y2="128" gradientUnits="userSpaceOnUse">
<stop stop-color="#2CBDEE"/>
<stop offset="1" stop-color="#C53156"/>
</linearGradient>
<linearGradient id="paint1_linear_1295_161" x1="0.461435" y1="128" x2="342.539" y2="128" gradientUnits="userSpaceOnUse">
<stop stop-color="#2CBDEE"/>
<stop offset="1" stop-color="#C53156"/>
</linearGradient>
<linearGradient id="paint2_linear_1295_161" x1="0.461435" y1="128" x2="342.539" y2="128" gradientUnits="userSpaceOnUse">
<stop stop-color="#2CBDEE"/>
<stop offset="1" stop-color="#C53156"/>
</linearGradient>
<linearGradient id="paint3_linear_1295_161" x1="0.461435" y1="128" x2="342.539" y2="128" gradientUnits="userSpaceOnUse">
<stop stop-color="#2CBDEE"/>
<stop offset="1" stop-color="#C53156"/>
</linearGradient>
<linearGradient id="paint4_linear_1295_161" x1="0.461435" y1="128" x2="342.539" y2="128" gradientUnits="userSpaceOnUse">
<stop stop-color="#2CBDEE"/>
<stop offset="1" stop-color="#C53156"/>
</linearGradient>
<linearGradient id="paint5_linear_1295_161" x1="0.461435" y1="128" x2="342.539" y2="128" gradientUnits="userSpaceOnUse">
<stop stop-color="#2CBDEE"/>
<stop offset="1" stop-color="#C53156"/>
</linearGradient>
<linearGradient id="paint6_linear_1295_161" x1="0.461435" y1="128" x2="342.539" y2="128" gradientUnits="userSpaceOnUse">
<stop stop-color="#2CBDEE"/>
<stop offset="1" stop-color="#C53156"/>
</linearGradient>
<linearGradient id="paint7_linear_1295_161" x1="0.461435" y1="128" x2="342.539" y2="128" gradientUnits="userSpaceOnUse">
<stop stop-color="#2CBDEE"/>
<stop offset="1" stop-color="#C53156"/>
</linearGradient>
<linearGradient id="paint8_linear_1295_161" x1="0.461435" y1="128" x2="342.539" y2="128" gradientUnits="userSpaceOnUse">
<stop stop-color="#2CBDEE"/>
<stop offset="1" stop-color="#C53156"/>
</linearGradient>
<linearGradient id="paint9_linear_1295_161" x1="0.461435" y1="128" x2="342.539" y2="128" gradientUnits="userSpaceOnUse">
<stop stop-color="#2CBDEE"/>
<stop offset="1" stop-color="#C53156"/>
</linearGradient>
<linearGradient id="paint10_linear_1295_161" x1="0.461435" y1="128" x2="342.539" y2="128" gradientUnits="userSpaceOnUse">
<stop stop-color="#2CBDEE"/>
<stop offset="1" stop-color="#C53156"/>
</linearGradient>
<linearGradient id="paint11_linear_1295_161" x1="0.461435" y1="128" x2="342.539" y2="128" gradientUnits="userSpaceOnUse">
<stop stop-color="#2CBDEE"/>
<stop offset="1" stop-color="#C53156"/>
</linearGradient>
<linearGradient id="paint12_linear_1295_161" x1="0.461435" y1="128" x2="342.539" y2="128" gradientUnits="userSpaceOnUse">
<stop stop-color="#2CBDEE"/>
<stop offset="1" stop-color="#C53156"/>
</linearGradient>
</defs>
</svg>
