<svg width="143" height="156" viewBox="0 0 143 156" fill="none" xmlns="http://www.w3.org/2000/svg">
  <path fill-rule="evenodd" clip-rule="evenodd" d="M78.03 109.669C78.0156 109.684 78.0175 109.68 78.0346 109.665C78.0331 109.666 78.0315 109.668 78.03 109.669ZM85.3253 98.4939C90.6898 90.4174 95.9113 82.2573 101.052 74.0435C97.8924 78.132 94.7899 82.268 91.678 86.4165L91.4025 86.7838C91.1808 87.0794 90.959 87.375 90.7371 87.6707C89.1412 90.6353 87.6048 93.6219 86.1736 96.6647C85.8889 97.27 85.6054 97.88 85.3253 98.4939ZM117.947 53.726C107.423 71.0071 96.7637 88.2185 85.43 105.043C85.0786 105.564 84.5756 106.383 83.9993 107.325L83.88 107.52C83.3486 108.389 82.774 109.329 82.2547 110.136C81.7363 110.943 81.1544 111.809 80.6893 112.286C80.5785 112.399 80.3443 112.63 80.0197 112.8C79.8547 112.886 79.5256 113.032 79.0903 113.032C78.5767 113.032 78.0539 112.827 77.6698 112.408C77.3422 112.051 77.2304 111.665 77.1872 111.458C77.1407 111.236 77.1369 111.039 77.1404 110.908C77.1473 110.645 77.1923 110.387 77.2377 110.175C77.8149 107.48 78.6897 104.799 79.6986 102.202C79.3681 102.583 78.9674 102.976 78.4751 103.31C78.4307 103.341 78.3372 103.403 78.2181 103.463C78.1613 103.491 78.0442 103.547 77.8891 103.592C77.7927 103.62 77.3757 103.742 76.8636 103.599C76.5606 103.515 76.2146 103.334 75.9357 103.001C75.7655 102.798 75.6588 102.584 75.5935 102.387C74.6675 103.501 73.8031 104.639 73.0364 105.826C72.4761 106.694 71.3223 106.942 70.4593 106.381C69.5964 105.82 69.351 104.661 69.9114 103.794C71.2914 101.657 72.9983 99.6203 74.7431 97.6873C74.7701 97.6427 74.803 97.59 74.8356 97.5384C74.9883 97.2965 75.2876 96.8344 75.6431 96.2937C75.7335 96.1563 75.8285 96.0121 75.9268 95.8637C76.516 94.898 77.0814 93.8983 77.6597 92.8685C77.7138 92.7722 77.768 92.6756 77.8223 92.5788C78.0845 92.1116 78.3501 91.6382 78.6213 91.1624C78.2234 91.5686 77.8307 91.9692 77.4418 92.3659C74.8299 95.03 72.3939 97.5148 69.7803 100.286C69.5261 100.556 69.2813 100.831 69.016 101.129C68.9588 101.193 68.9006 101.258 68.8412 101.325C68.5196 101.685 68.1691 102.073 67.7919 102.451C67.7908 102.452 67.775 102.47 67.7257 102.526L67.7241 102.528C67.6741 102.585 67.5681 102.706 67.445 102.822L67.4389 102.828C67.3589 102.904 67.0451 103.201 66.5731 103.349C66.283 103.439 65.8032 103.513 65.2733 103.302C64.7326 103.087 64.4218 102.688 64.2633 102.383C63.8297 101.548 64.0377 100.756 64.1449 100.428C64.2055 100.243 64.2768 100.08 64.3188 99.9854C64.3372 99.9439 64.3507 99.9137 64.3609 99.8908C64.3816 99.8446 64.389 99.8279 64.3971 99.8073C64.8565 98.636 65.3809 97.506 65.9223 96.416C68.3473 91.5341 70.3015 88.2596 73.1709 83.4773C78.7187 74.2312 84.4791 65.1 90.5019 56.1452C90.4501 55.9387 90.4314 55.7316 90.4405 55.5357C90.4617 55.0797 90.6269 54.7265 90.693 54.5905C90.7618 54.4487 90.845 54.3084 90.8798 54.2496C90.8838 54.2427 90.8872 54.237 90.8899 54.2325C90.8958 54.2223 90.9008 54.2138 90.9048 54.2068C91.2223 53.4283 91.5687 52.6664 91.9355 51.9214C95.811 44.0518 100.367 36.5495 104.919 29.1809C104.919 29.1809 104.924 29.174 104.935 29.1553L104.976 29.0866C105.01 29.0292 105.054 28.9541 105.109 28.8603L105.11 28.8584C105.22 28.6721 105.368 28.4195 105.55 28.1125C105.916 27.4964 106.416 26.6607 107.012 25.6895C108.203 23.7508 109.785 21.258 111.452 18.8867C113.1 16.5414 114.899 14.2145 116.525 12.6753C117.315 11.927 118.218 11.213 119.163 10.8574C119.655 10.6721 120.268 10.5421 120.93 10.6529C121.103 10.6818 121.269 10.7255 121.429 10.7828C123.02 8.76645 124.665 6.78547 126.381 4.8573C126.738 4.4557 127.291 3.7734 127.876 3.05199C128.188 2.66776 128.508 2.27244 128.813 1.90252C129.206 1.425 129.625 0.925674 129.907 0.6492C129.966 0.591667 130.117 0.444052 130.312 0.317154L130.317 0.313576C130.383 0.270757 130.697 0.0646487 131.146 0.0122986C131.421 -0.0196226 131.888 -0.00936824 132.357 0.285675C132.846 0.592451 133.073 1.03962 133.166 1.36652C133.308 1.86829 133.198 2.2906 133.178 2.36797L133.176 2.37498C133.14 2.51858 133.094 2.63561 133.066 2.70287C133.007 2.84424 132.935 2.98321 132.873 3.09875C132.045 4.62463 131.244 6.16256 130.473 7.71382C130.916 7.07158 131.368 6.4374 131.83 5.81335C132.148 5.38279 132.483 4.98377 132.806 4.66119C132.967 4.50058 133.147 4.33726 133.339 4.19367C133.506 4.06875 133.796 3.87153 134.169 3.75708C134.528 3.64724 135.437 3.49508 136.184 4.2318C136.801 4.84069 136.801 5.60167 136.793 5.8391C136.773 6.41834 136.551 7.04442 136.331 7.57475C134.701 11.5041 133.124 15.4459 131.62 19.4139C132.066 18.8404 132.523 18.2426 132.991 17.6312C134.913 15.1194 137.01 12.3789 139.249 10.1548C139.3 10.1045 139.409 9.99925 139.56 9.89661C139.636 9.84517 139.775 9.75835 139.963 9.68716C140.136 9.62166 140.5 9.5124 140.958 9.5943C141.495 9.69046 141.932 10.009 142.199 10.4222C142.424 10.7714 142.476 11.1045 142.492 11.2645C142.522 11.5743 142.468 11.8217 142.453 11.8876L142.453 11.8896C142.395 12.1515 142.273 12.4307 142.23 12.5306L142.223 12.5473C142.189 12.624 142.154 12.7045 142.122 12.7762L142.12 12.7798C142.086 12.8558 142.056 12.9237 142.028 12.988C141.974 13.1135 141.955 13.1625 141.955 13.1625C141.955 13.1625 141.956 13.1594 141.958 13.1538C141.872 13.4408 141.79 13.7295 141.706 14.0209C141.416 15.0349 141.115 16.0829 140.668 17.2164C137.669 24.8184 133.297 32.006 128.559 38.5947C127.681 39.9609 126.739 41.2923 125.784 42.587C125.776 42.6758 125.765 42.7544 125.753 42.8199C125.648 43.4312 125.372 43.9852 125.135 44.3957C124.882 44.8321 124.579 45.2619 124.296 45.6417C124.034 45.9941 123.808 46.2846 123.614 46.533C123.327 46.9017 123.112 47.1774 122.96 47.4245C121.556 49.7059 119.77 51.8395 117.947 53.726ZM124.124 29.1763C124.183 29.0078 124.241 28.8398 124.299 28.6723C124.216 28.8752 124.132 29.0777 124.048 29.2798C124.073 29.2453 124.099 29.2108 124.124 29.1763ZM126.291 22.7062C126.281 22.9124 126.252 23.1109 126.212 23.2965C126.686 21.9794 127.169 20.6663 127.659 19.3569C127.433 19.7486 127.207 20.1411 126.981 20.5343C126.938 20.609 126.895 20.6838 126.851 20.7587C126.853 20.7742 126.854 20.7897 126.855 20.8049C126.895 21.3443 126.729 21.8049 126.618 22.0683C126.529 22.2782 126.417 22.4916 126.291 22.7062ZM120.972 20.1137C121.733 18.2123 122.508 16.3174 123.306 14.4368C123.128 14.6672 122.951 14.8981 122.774 15.1294C122.765 15.1515 122.756 15.1734 122.747 15.1952C122.509 15.767 122.191 16.3916 121.848 17.0099C121.836 17.1092 121.821 17.184 121.815 17.2148L121.814 17.2192C121.797 17.3047 121.776 17.3897 121.758 17.4619C121.72 17.6074 121.67 17.7863 121.617 17.9727C121.414 18.6902 121.199 19.4038 120.972 20.1137ZM75.2843 87.2025C74.2045 89.0096 73.2575 90.6157 72.3438 92.2401C73.1555 91.4088 73.9718 90.5762 74.803 89.7283C75.2271 89.2958 75.655 88.8593 76.0882 88.417C75.5651 88.0751 75.3581 87.5702 75.2843 87.2025ZM74.8141 97.5901C74.8141 97.5901 74.8178 97.5848 74.8237 97.5768C74.8167 97.5867 74.8141 97.5901 74.8141 97.5901ZM119.499 13.199C119.502 13.1455 119.51 13.1363 119.501 13.1898C119.501 13.1926 119.5 13.1957 119.499 13.199ZM132.508 3.32463C132.523 3.30974 132.521 3.31245 132.506 3.32655L132.508 3.32463ZM135.561 7.194C135.569 7.18751 135.568 7.18958 135.556 7.19743C135.558 7.19584 135.561 7.194 135.561 7.194Z" fill="#7ECEFD"/>
  <path fill-rule="evenodd" clip-rule="evenodd" d="M64.4707 3.58333C64.4851 3.56856 64.4832 3.57231 64.4661 3.58811C64.4677 3.58648 64.4692 3.58488 64.4707 3.58333ZM57.1755 14.7587C51.8109 22.8353 46.5895 30.9954 41.4488 39.2092C44.6083 35.1207 47.7108 30.9847 50.8227 26.8362L51.0982 26.4689C51.3199 26.1733 51.5417 25.8777 51.7636 25.582C53.3595 22.6174 54.8959 19.6308 56.3271 16.588C56.6118 15.9827 56.8954 15.3727 57.1755 14.7587ZM24.5541 59.5267C35.0773 42.2456 45.737 25.0342 57.0707 8.20991C57.4221 7.68824 57.9251 6.8701 58.5014 5.92786L58.6207 5.73276C59.1521 4.86368 59.7267 3.9239 60.246 3.11631C60.7644 2.31002 61.3464 1.44356 61.8115 0.966767C61.9222 0.853265 62.1564 0.622462 62.4811 0.453047C62.6461 0.366939 62.9751 0.221091 63.4105 0.220704C63.924 0.220248 64.4469 0.425916 64.8309 0.844404C65.1585 1.20134 65.2704 1.58804 65.3135 1.79426C65.3601 2.01713 65.3639 2.21327 65.3604 2.34491C65.3534 2.60798 65.3084 2.86616 65.263 3.07809C64.6858 5.77295 63.811 8.45411 62.8022 11.0509C63.1327 10.67 63.5333 10.2767 64.0256 9.94225C64.0701 9.91205 64.1635 9.84995 64.2826 9.79013C64.3394 9.76161 64.4565 9.70566 64.6117 9.66046C64.708 9.6324 65.125 9.5109 65.6371 9.65353C65.9401 9.73793 66.2861 9.91903 66.565 10.252C66.7352 10.4551 66.842 10.6689 66.9072 10.8662C67.8332 9.75179 68.6976 8.6139 69.4643 7.42652C70.0247 6.55881 71.1784 6.31037 72.0414 6.87161C72.9044 7.43286 73.1497 8.59125 72.5894 9.45896C71.2093 11.5961 69.5024 13.6324 67.7577 15.5654C67.7307 15.61 67.6978 15.6626 67.6651 15.7143C67.5124 15.9562 67.2131 16.4182 66.8576 16.959C66.7673 17.0964 66.6722 17.2406 66.574 17.389C65.9848 18.3547 65.4193 19.3543 64.841 20.3842C64.7869 20.4805 64.7328 20.5771 64.6784 20.6739C64.4162 21.1411 64.1506 21.6145 63.8795 22.0902C64.2773 21.6841 64.6701 21.2835 65.0589 20.8868C67.6708 18.2227 70.1069 15.7379 72.7205 12.9664C72.9746 12.6969 73.2195 12.422 73.4847 12.1242C73.5419 12.0599 73.6001 11.9946 73.6595 11.9281C73.9811 11.5678 74.3316 11.1801 74.7088 10.8019C74.7099 10.8003 74.7257 10.7825 74.7751 10.7262L74.7767 10.7244C74.8266 10.6674 74.9326 10.5465 75.0558 10.4303L75.0618 10.4246C75.1418 10.3488 75.4557 10.0515 75.9276 9.90406C76.2177 9.81343 76.6975 9.73968 77.2274 9.95055C77.7682 10.1657 78.0789 10.5644 78.2375 10.8698C78.6711 11.7049 78.463 12.4967 78.3558 12.8246C78.2953 13.0099 78.2239 13.1726 78.182 13.2673C78.1635 13.3088 78.1501 13.339 78.1398 13.3619C78.1192 13.4081 78.1117 13.4248 78.1037 13.4454C77.6442 14.6167 77.1199 15.7467 76.5785 16.8367C74.1535 21.7186 72.1992 24.9931 69.3298 29.7754C63.782 39.0215 58.0217 48.1527 51.9988 57.1075C52.0507 57.3139 52.0693 57.5211 52.0602 57.717C52.039 58.1729 51.8739 58.5262 51.8078 58.6622C51.7389 58.8039 51.6558 58.9443 51.621 59.0031C51.6169 59.01 51.6135 59.0157 51.6108 59.0202C51.6049 59.0304 51.6 59.0389 51.5959 59.0459C51.2785 59.8244 50.9321 60.5863 50.5652 61.3313C46.6897 69.2009 42.1338 76.7032 37.5814 84.0718C37.5814 84.0718 37.5772 84.0786 37.566 84.0974L37.5252 84.166C37.4912 84.2235 37.447 84.2985 37.3918 84.3924L37.3907 84.3943C37.281 84.5806 37.1323 84.8332 36.9502 85.1402C36.5848 85.7563 36.0846 86.592 35.4883 87.5632C34.2979 89.5019 32.7155 91.9947 31.049 94.366C29.4009 96.7113 27.6013 99.0382 25.9762 100.577C25.1859 101.326 24.2823 102.04 23.3376 102.395C22.8456 102.581 22.2331 102.711 21.5709 102.6C21.398 102.571 21.2315 102.527 21.0722 102.47C19.4804 104.486 17.836 106.467 16.1199 108.395C15.7625 108.797 15.2094 109.479 14.6246 110.201C14.3131 110.585 13.9926 110.98 13.6879 111.35C13.2946 111.828 12.8754 112.327 12.5935 112.603C12.5348 112.661 12.3836 112.809 12.1889 112.936L12.1834 112.939C12.1182 112.982 11.8042 113.188 11.3543 113.24C11.08 113.272 10.6132 113.262 10.1433 112.967C9.65477 112.66 9.42773 112.213 9.33521 111.886C9.19321 111.384 9.30269 110.962 9.32276 110.885L9.32456 110.878C9.36082 110.734 9.40683 110.617 9.43485 110.55C9.49371 110.408 9.56542 110.269 9.62807 110.154C10.4554 108.628 11.2566 107.09 12.0281 105.539C11.5846 106.181 11.1326 106.815 10.6709 107.439C10.3523 107.87 10.0179 108.269 9.69454 108.591C9.53356 108.752 9.35377 108.915 9.16175 109.059C8.99467 109.184 8.7049 109.381 8.33135 109.496C7.97286 109.605 7.06324 109.758 6.31645 109.021C5.69925 108.412 5.69968 107.651 5.7077 107.414C5.72727 106.834 5.95003 106.208 6.16995 105.678C7.79935 101.749 9.37697 97.8068 10.8812 93.8388C10.4346 94.4123 9.97727 95.0101 9.50955 95.6215C7.58779 98.1333 5.49113 100.874 3.2513 103.098C3.20065 103.148 3.09147 103.253 2.94024 103.356C2.86445 103.408 2.72604 103.494 2.53782 103.566C2.36467 103.631 2.00101 103.74 1.54323 103.658C1.00574 103.562 0.568255 103.244 0.301852 102.83C0.0767452 102.481 0.0248475 102.148 0.00911383 101.988C-0.0213437 101.678 0.0330937 101.431 0.0476028 101.365L0.0480402 101.363C0.105629 101.101 0.22736 100.822 0.270921 100.722L0.278172 100.705C0.311392 100.629 0.347195 100.548 0.379098 100.476L0.380667 100.473C0.414473 100.397 0.444702 100.329 0.472589 100.265C0.527061 100.139 0.54553 100.09 0.54553 100.09C0.54553 100.09 0.544767 100.093 0.543096 100.099C0.628281 99.8118 0.711013 99.5232 0.794551 99.2318C1.08519 98.2178 1.38556 97.1698 1.83272 96.0363C4.83155 88.4343 9.20372 81.2467 13.9413 74.658C14.8197 73.2918 15.7618 71.9604 16.7172 70.6656C16.7248 70.5768 16.7362 70.4983 16.7475 70.4328C16.853 69.8215 17.1284 69.2675 17.366 68.857C17.6186 68.4206 17.9218 67.9908 18.2044 67.611C18.4666 67.2586 18.6929 66.9681 18.8864 66.7197C19.1736 66.351 19.3883 66.0753 19.5404 65.8282C20.9445 63.5468 22.7304 61.4131 24.5541 59.5267ZM18.3764 84.0764C18.3182 84.2449 18.2598 84.4128 18.2013 84.5804C18.2846 84.3775 18.3686 84.175 18.4532 83.9729C18.4276 84.0074 18.402 84.0419 18.3764 84.0764ZM16.2099 90.5465C16.2195 90.3403 16.2488 90.1418 16.2884 89.9562C15.8145 91.2733 15.3318 92.5864 14.8413 93.8958C15.0674 93.5041 15.2935 93.1116 15.52 92.7184C15.5631 92.6436 15.6061 92.5688 15.6492 92.494C15.6477 92.4784 15.6464 92.463 15.6453 92.4478C15.6054 91.9084 15.7715 91.4478 15.883 91.1844C15.9719 90.9745 16.0834 90.7611 16.2099 90.5465ZM21.5289 93.1389C20.7676 95.0403 19.9923 96.9353 19.1948 98.8159C19.3728 98.5855 19.5501 98.3546 19.7269 98.1233C19.736 98.1012 19.745 98.0792 19.7541 98.0575C19.9921 97.4857 20.3097 96.8611 20.6528 96.2428C20.6645 96.1435 20.6796 96.0687 20.6858 96.0379L20.6867 96.0335C20.7039 95.948 20.7246 95.8629 20.7431 95.7907C20.7803 95.6453 20.8305 95.4664 20.8833 95.28C21.0867 94.5625 21.3022 93.8489 21.5289 93.1389ZM67.2165 26.0501C68.2962 24.243 69.2432 22.637 70.1569 21.0125C69.3452 21.8439 68.5289 22.6765 67.6977 23.5244C67.2736 23.9569 66.8457 24.3934 66.4126 24.8356C66.9356 25.1776 67.1426 25.6825 67.2165 26.0501ZM67.6866 15.6625C67.6866 15.6625 67.6829 15.6679 67.6771 15.6759C67.684 15.666 67.6866 15.6625 67.6866 15.6625ZM23.0013 100.054C22.9985 100.107 22.9911 100.116 22.9997 100.063C23.0002 100.06 23.0007 100.057 23.0013 100.054ZM9.99295 109.928C9.97777 109.943 9.97933 109.94 9.99491 109.926L9.99295 109.928ZM6.94009 106.059C6.93141 106.065 6.93308 106.063 6.9445 106.055C6.9425 106.057 6.94009 106.059 6.94009 106.059Z" fill="#7ECEFD"/>
  <path d="M17.4945 136.26C16.2412 136.26 15.1812 136.007 14.3145 135.5C13.4479 134.993 12.8012 134.3 12.3745 133.42C11.9479 132.54 11.7345 131.54 11.7345 130.42C11.7345 129.273 11.9479 128.26 12.3745 127.38C12.8012 126.487 13.4479 125.793 14.3145 125.3C15.1812 124.793 16.2412 124.54 17.4945 124.54C18.7479 124.54 19.8079 124.807 20.6745 125.34C21.5412 125.873 22.1879 126.587 22.6145 127.48C23.0545 128.36 23.2745 129.327 23.2745 130.38C23.2745 131.433 23.0545 132.407 22.6145 133.3C22.1879 134.193 21.5412 134.913 20.6745 135.46C19.8079 135.993 18.7479 136.26 17.4945 136.26ZM17.5145 134.06C19.2879 134.06 20.1745 132.84 20.1745 130.4C20.1745 127.973 19.2879 126.76 17.5145 126.76C15.7279 126.76 14.8345 127.973 14.8345 130.4C14.8345 132.84 15.7279 134.06 17.5145 134.06ZM31.5777 124.54C32.5777 124.54 33.4643 124.773 34.2377 125.24C35.011 125.693 35.611 126.367 36.0377 127.26C36.4777 128.14 36.6977 129.193 36.6977 130.42C36.6977 132.42 36.1243 133.893 34.9777 134.84C33.8443 135.787 32.3377 136.26 30.4577 136.26C29.8177 136.26 29.2777 136.2 28.8377 136.08V140.66H25.7777V124.8H28.0577L28.3577 125.64C29.3177 124.907 30.391 124.54 31.5777 124.54ZM30.2577 134.06C32.4977 134.06 33.6177 132.82 33.6177 130.34C33.6177 129.047 33.391 128.127 32.9377 127.58C32.4977 127.033 31.931 126.76 31.2377 126.76C30.7577 126.76 30.331 126.82 29.9577 126.94C29.5843 127.047 29.211 127.227 28.8377 127.48V133.88C29.3443 134 29.8177 134.06 30.2577 134.06ZM44.1352 134.06C44.7752 134.06 45.3618 133.94 45.8952 133.7C46.4285 133.46 47.0018 133.107 47.6152 132.64L48.4952 134.58C47.8285 135.153 47.1485 135.58 46.4552 135.86C45.7752 136.127 45.0018 136.26 44.1352 136.26C42.8552 136.26 41.7818 136.007 40.9152 135.5C40.0618 134.98 39.4218 134.287 38.9952 133.42C38.5818 132.54 38.3752 131.54 38.3752 130.42C38.3752 129.273 38.5885 128.26 39.0152 127.38C39.4418 126.487 40.0818 125.793 40.9352 125.3C41.8018 124.793 42.8685 124.54 44.1352 124.54C45.5885 124.54 46.7085 124.94 47.4952 125.74C48.2952 126.54 48.7018 127.667 48.7152 129.12C48.7152 129.653 48.6352 130.193 48.4752 130.74H41.3952C41.4352 131.833 41.6752 132.66 42.1152 133.22C42.5552 133.78 43.2285 134.06 44.1352 134.06ZM43.9552 126.6C42.6885 126.6 41.8885 127.313 41.5552 128.74H45.7352C45.7485 128.673 45.7552 128.58 45.7552 128.46C45.7418 127.86 45.5685 127.4 45.2352 127.08C44.9152 126.76 44.4885 126.6 43.9552 126.6ZM57.5869 124.54C59.0002 124.54 59.9735 124.913 60.5069 125.66C61.0402 126.393 61.3069 127.467 61.3069 128.88V136H58.2469V129.24C58.2469 128.333 58.1269 127.7 57.8869 127.34C57.6602 126.98 57.2335 126.8 56.6069 126.8C55.8602 126.8 55.0869 127.08 54.2869 127.64V136H51.2269V124.8H53.5069L53.8469 125.78C55.1402 124.953 56.3869 124.54 57.5869 124.54ZM67.7067 136.26C66.9601 136.26 66.2401 136.187 65.5467 136.04C64.8534 135.893 64.2467 135.7 63.7267 135.46L64.3467 133.34C65.5334 133.82 66.6401 134.06 67.6667 134.06C68.2801 134.06 68.7734 133.967 69.1467 133.78C69.5334 133.58 69.7267 133.28 69.7267 132.88C69.7267 132.547 69.5467 132.273 69.1867 132.06C68.8401 131.847 68.2867 131.607 67.5267 131.34C66.7801 131.073 66.1734 130.827 65.7067 130.6C65.2401 130.36 64.8334 130.04 64.4867 129.64C64.1534 129.227 63.9867 128.72 63.9867 128.12C63.9867 126.947 64.4134 126.06 65.2667 125.46C66.1201 124.847 67.2801 124.54 68.7467 124.54C69.3601 124.54 69.9801 124.607 70.6067 124.74C71.2334 124.86 71.7867 125.033 72.2667 125.26L71.6267 127.4C70.6667 126.973 69.7334 126.76 68.8267 126.76C68.2534 126.76 67.8067 126.847 67.4867 127.02C67.1667 127.18 67.0067 127.427 67.0067 127.76C67.0067 128.093 67.1734 128.36 67.5067 128.56C67.8401 128.747 68.3667 128.96 69.0867 129.2C69.8334 129.44 70.4534 129.68 70.9467 129.92C71.4401 130.16 71.8601 130.507 72.2067 130.96C72.5667 131.413 72.7467 131.987 72.7467 132.68C72.7467 133.8 72.3134 134.68 71.4467 135.32C70.5801 135.947 69.3334 136.26 67.7067 136.26ZM80.1703 136.26C78.917 136.26 77.857 136.007 76.9903 135.5C76.1236 134.993 75.477 134.3 75.0503 133.42C74.6236 132.54 74.4103 131.54 74.4103 130.42C74.4103 129.273 74.6236 128.26 75.0503 127.38C75.477 126.487 76.1236 125.793 76.9903 125.3C77.857 124.793 78.917 124.54 80.1703 124.54C81.4236 124.54 82.4836 124.807 83.3503 125.34C84.217 125.873 84.8636 126.587 85.2903 127.48C85.7303 128.36 85.9503 129.327 85.9503 130.38C85.9503 131.433 85.7303 132.407 85.2903 133.3C84.8636 134.193 84.217 134.913 83.3503 135.46C82.4836 135.993 81.4236 136.26 80.1703 136.26ZM80.1903 134.06C81.9636 134.06 82.8503 132.84 82.8503 130.4C82.8503 127.973 81.9636 126.76 80.1903 126.76C78.4036 126.76 77.5103 127.973 77.5103 130.4C77.5103 132.84 78.4036 134.06 80.1903 134.06ZM98.4534 124.8V136H96.1734L95.8334 135.04C94.5668 135.853 93.3134 136.26 92.0734 136.26C90.6601 136.26 89.6868 135.893 89.1534 135.16C88.6201 134.413 88.3534 133.34 88.3534 131.94V124.8H91.4134V131.56C91.4134 132.48 91.5268 133.12 91.7534 133.48C91.9934 133.84 92.4268 134.02 93.0534 134.02C93.8001 134.02 94.5801 133.733 95.3934 133.16V124.8H98.4534ZM108.613 127.48C107.933 127.48 107.307 127.533 106.733 127.64C106.173 127.747 105.547 127.96 104.853 128.28V136H101.793V124.8H104.073L104.553 126.16C105.247 125.573 105.913 125.16 106.553 124.92C107.207 124.68 107.893 124.56 108.613 124.56V127.48ZM115.795 136.26C114.515 136.26 113.442 136.007 112.575 135.5C111.722 134.98 111.082 134.287 110.655 133.42C110.242 132.54 110.035 131.54 110.035 130.42C110.035 129.34 110.249 128.36 110.675 127.48C111.102 126.587 111.769 125.873 112.675 125.34C113.582 124.807 114.722 124.54 116.095 124.54C116.655 124.54 117.235 124.613 117.835 124.76C118.435 124.907 118.915 125.1 119.275 125.34L118.615 127.46C117.815 126.993 116.975 126.76 116.095 126.76C115.149 126.76 114.415 127.08 113.895 127.72C113.389 128.347 113.135 129.24 113.135 130.4C113.135 131.56 113.369 132.46 113.835 133.1C114.302 133.74 114.955 134.06 115.795 134.06C116.355 134.06 116.862 133.967 117.315 133.78C117.782 133.58 118.282 133.3 118.815 132.94L119.695 134.88C119.215 135.28 118.635 135.613 117.955 135.88C117.289 136.133 116.569 136.26 115.795 136.26ZM126.694 134.06C127.334 134.06 127.92 133.94 128.454 133.7C128.987 133.46 129.56 133.107 130.174 132.64L131.054 134.58C130.387 135.153 129.707 135.58 129.014 135.86C128.334 136.127 127.56 136.26 126.694 136.26C125.414 136.26 124.34 136.007 123.474 135.5C122.62 134.98 121.98 134.287 121.554 133.42C121.14 132.54 120.934 131.54 120.934 130.42C120.934 129.273 121.147 128.26 121.574 127.38C122 126.487 122.64 125.793 123.494 125.3C124.36 124.793 125.427 124.54 126.694 124.54C128.147 124.54 129.267 124.94 130.054 125.74C130.854 126.54 131.26 127.667 131.274 129.12C131.274 129.653 131.194 130.193 131.034 130.74H123.954C123.994 131.833 124.234 132.66 124.674 133.22C125.114 133.78 125.787 134.06 126.694 134.06ZM126.514 126.6C125.247 126.6 124.447 127.313 124.114 128.74H128.294C128.307 128.673 128.314 128.58 128.314 128.46C128.3 127.86 128.127 127.4 127.794 127.08C127.474 126.76 127.047 126.6 126.514 126.6Z" fill="#7ECEFD"/>
</svg>
