<svg width="128" height="128" viewBox="0 0 128 128" fill="none" xmlns="http://www.w3.org/2000/svg">
<path d="M75.1304 36.1739H83.7955C87.6811 36.1739 90.3707 40.0549 89.0063 43.6932L63.9543 110.499C62.1128 115.409 55.1223 115.28 53.4638 110.304L36.8186 60.3688C36.4023 59.12 36.4422 57.7641 36.931 56.542L55.3819 10.4147C56.8442 6.7591 54.152 2.78261 50.2148 2.78261H8.34783C5.27424 2.78261 2.78261 5.27424 2.78261 8.34783V119.652C2.78261 122.726 5.27424 125.217 8.34783 125.217H119.652C122.726 125.217 125.217 122.726 125.217 119.652V8.34783C125.217 5.27424 122.726 2.78261 119.652 2.78261H75.1304C72.0568 2.78261 69.5652 5.27424 69.5652 8.34783V30.6087C69.5652 33.6823 72.0568 36.1739 75.1304 36.1739Z" fill="url(#paint0_linear_1252_40)"/>
<path fill-rule="evenodd" clip-rule="evenodd" d="M8.34783 5.56522C6.81104 5.56522 5.56522 6.81103 5.56522 8.34783V119.652C5.56522 121.189 6.81104 122.435 8.34783 122.435H119.652C121.189 122.435 122.435 121.189 122.435 119.652V8.34783C122.435 6.81103 121.189 5.56522 119.652 5.56522H75.1304C73.5936 5.56522 72.3478 6.81103 72.3478 8.34783V30.6087C72.3478 32.1455 73.5936 33.3913 75.1304 33.3913H83.7955C89.624 33.3913 93.6583 39.2129 91.6118 44.6703L66.5597 111.476C63.7975 118.842 53.3117 118.648 50.824 111.184L34.1788 61.2487C33.5544 59.3756 33.6142 57.3418 34.3474 55.5086L52.7984 9.38126C53.5295 7.55346 52.1834 5.56522 50.2148 5.56522H8.34783ZM0 8.34783C0 3.73745 3.73745 0 8.34783 0H50.2148C56.1206 0 60.1589 5.96474 57.9655 11.4481L39.5146 57.5754C39.2702 58.1865 39.2503 58.8644 39.4584 59.4888L56.1036 109.425C56.9329 111.912 60.4281 111.977 61.3489 109.522L86.4009 42.7162C87.0831 40.897 85.7383 38.9565 83.7955 38.9565H75.1304C70.5201 38.9565 66.7826 35.2191 66.7826 30.6087V8.34783C66.7826 3.73745 70.5201 0 75.1304 0H119.652C124.263 0 128 3.73745 128 8.34783V119.652C128 124.263 124.263 128 119.652 128H8.34783C3.73745 128 0 124.263 0 119.652V8.34783Z" fill="url(#paint1_linear_1252_40)"/>
<defs>
<linearGradient id="paint0_linear_1252_40" x1="0.172197" y1="64" x2="127.828" y2="64" gradientUnits="userSpaceOnUse">
<stop stop-color="#2CBDEE"/>
<stop offset="1" stop-color="#C53156"/>
</linearGradient>
<linearGradient id="paint1_linear_1252_40" x1="0.172197" y1="64" x2="127.828" y2="64" gradientUnits="userSpaceOnUse">
<stop stop-color="#2CBDEE"/>
<stop offset="1" stop-color="#C53156"/>
</linearGradient>
</defs>
</svg>
