<svg width="130" height="133" viewBox="0 0 130 133" fill="none" xmlns="http://www.w3.org/2000/svg">
<mask id="path-1-outside-1_1252_12" maskUnits="userSpaceOnUse" x="0" y="0" width="130" height="133" fill="black">
<rect fill="white" width="130" height="133"/>
<path fill-rule="evenodd" clip-rule="evenodd" d="M1 9.7848C1 4.93862 4.85119 1 9.6141 1H51.2807C57.3828 1 61.5379 7.28358 59.2795 13.0455L40.9168 59.8932C40.6996 60.4475 40.6818 61.0627 40.8669 61.6292L57.4324 112.345C58.1677 114.596 61.2584 114.653 62.0742 112.433L87.0063 44.584C87.6147 42.9285 86.4128 41.1781 84.7008 41.1781H76.0772C71.3143 41.1781 67.4631 37.2395 67.4631 32.3933V9.7848C67.4631 4.93862 71.3143 1 76.0772 1H120.386C125.149 1 129 4.93862 129 9.7848V122.827C129 127.674 125.149 131.612 120.386 131.612H9.61411C4.8512 131.612 1 127.674 1 122.827V9.7848ZM9.6141 1.6132C5.20038 1.6132 1.61244 5.26622 1.61244 9.7848V122.827C1.61244 127.346 5.20038 130.999 9.61411 130.999H120.386C124.8 130.999 128.388 127.346 128.388 122.827V9.7848C128.388 5.26622 124.8 1.6132 120.386 1.6132H76.0772C71.6634 1.6132 68.0755 5.26622 68.0755 9.7848V32.3933C68.0755 36.9119 71.6634 40.5649 76.0772 40.5649H84.7008C86.8558 40.5649 88.3306 42.7561 87.5811 44.7958L62.6489 112.645C61.632 115.412 57.7656 115.338 56.8503 112.535L40.2848 61.8198C40.0555 61.118 40.0774 60.3562 40.3467 59.6692L58.7094 12.8215C60.8166 7.44542 56.9338 1.6132 51.2807 1.6132H9.6141ZM9.6141 4.43927C6.72982 4.43927 4.38173 6.82701 4.38173 9.7848V122.827C4.38173 125.785 6.72982 128.173 9.61411 128.173H120.386C123.27 128.173 125.618 125.785 125.618 122.827V9.7848C125.618 6.82701 123.27 4.43927 120.386 4.43927H76.0772C73.1929 4.43927 70.8448 6.82701 70.8448 9.7848V32.3933C70.8448 35.3511 73.1929 37.7389 76.0772 37.7389H84.7008C88.7894 37.7389 91.6025 41.9009 90.1741 45.7881L65.2419 113.637C63.3087 118.898 55.9637 118.758 54.2232 113.429L37.6576 62.7135C37.2212 61.3776 37.263 59.9272 37.7755 58.6196L56.1381 11.7719C57.5177 8.25219 54.9746 4.43927 51.2807 4.43927H9.6141ZM3.76929 9.7848C3.76929 6.49942 6.38063 3.82607 9.6141 3.82607H51.2807C55.4236 3.82607 58.2391 8.09034 56.7082 11.996L38.3456 58.8437C37.8851 60.0185 37.8475 61.3223 38.2397 62.5229L54.8053 113.238C56.3658 118.016 62.935 118.139 64.6671 113.425L89.5993 45.5763C90.8866 42.0733 88.3463 38.3521 84.7008 38.3521H76.0772C72.8437 38.3521 70.2324 35.6787 70.2324 32.3933V9.7848C70.2324 6.49942 72.8437 3.82607 76.0772 3.82607H120.386C123.619 3.82607 126.231 6.49941 126.231 9.7848V122.827C126.231 126.113 123.619 128.786 120.386 128.786H9.61411C6.38063 128.786 3.76929 126.113 3.76929 122.827V9.7848ZM9.6141 7.26534C8.25926 7.26534 7.15103 8.38781 7.15103 9.7848V122.827C7.15103 124.224 8.25926 125.347 9.61411 125.347H120.386C121.741 125.347 122.849 124.224 122.849 122.827V9.7848C122.849 8.38781 121.741 7.26534 120.386 7.26534H76.0772C74.7223 7.26534 73.6141 8.38781 73.6141 9.7848V32.3933C73.6141 33.7903 74.7223 34.9128 76.0772 34.9128H84.7008C90.7229 34.9128 94.8744 41.0457 92.7671 46.7804L67.8349 114.629C64.9853 122.384 54.1618 122.178 51.596 114.323L35.0304 63.6071C34.3869 61.6371 34.4485 59.4983 35.2043 57.5701L53.5669 10.7224C54.2189 9.05896 53.0154 7.26534 51.2807 7.26534H9.6141ZM6.53859 9.7848C6.53859 8.06021 7.91007 6.65213 9.6141 6.65213H51.2807C53.4644 6.65213 54.9403 8.89711 54.137 10.9464L35.7744 57.7941C35.0706 59.5896 35.0132 61.5818 35.6125 63.4165L52.1781 114.132C54.5639 121.436 64.6116 121.625 67.2601 114.417L92.1923 46.5686C94.1584 41.2181 90.2799 35.526 84.7008 35.526H76.0772C74.3731 35.526 73.0017 34.1179 73.0017 32.3933V9.7848C73.0017 8.06021 74.3731 6.65213 76.0772 6.65213H120.386C122.09 6.65213 123.461 8.06021 123.461 9.7848V122.827C123.461 124.552 122.09 125.96 120.386 125.96H9.61411C7.91007 125.96 6.53859 124.552 6.53859 122.827V9.7848Z"/>
</mask>
<path fill-rule="evenodd" clip-rule="evenodd" d="M1 9.7848C1 4.93862 4.85119 1 9.6141 1H51.2807C57.3828 1 61.5379 7.28358 59.2795 13.0455L40.9168 59.8932C40.6996 60.4475 40.6818 61.0627 40.8669 61.6292L57.4324 112.345C58.1677 114.596 61.2584 114.653 62.0742 112.433L87.0063 44.584C87.6147 42.9285 86.4128 41.1781 84.7008 41.1781H76.0772C71.3143 41.1781 67.4631 37.2395 67.4631 32.3933V9.7848C67.4631 4.93862 71.3143 1 76.0772 1H120.386C125.149 1 129 4.93862 129 9.7848V122.827C129 127.674 125.149 131.612 120.386 131.612H9.61411C4.8512 131.612 1 127.674 1 122.827V9.7848ZM9.6141 1.6132C5.20038 1.6132 1.61244 5.26622 1.61244 9.7848V122.827C1.61244 127.346 5.20038 130.999 9.61411 130.999H120.386C124.8 130.999 128.388 127.346 128.388 122.827V9.7848C128.388 5.26622 124.8 1.6132 120.386 1.6132H76.0772C71.6634 1.6132 68.0755 5.26622 68.0755 9.7848V32.3933C68.0755 36.9119 71.6634 40.5649 76.0772 40.5649H84.7008C86.8558 40.5649 88.3306 42.7561 87.5811 44.7958L62.6489 112.645C61.632 115.412 57.7656 115.338 56.8503 112.535L40.2848 61.8198C40.0555 61.118 40.0774 60.3562 40.3467 59.6692L58.7094 12.8215C60.8166 7.44542 56.9338 1.6132 51.2807 1.6132H9.6141ZM9.6141 4.43927C6.72982 4.43927 4.38173 6.82701 4.38173 9.7848V122.827C4.38173 125.785 6.72982 128.173 9.61411 128.173H120.386C123.27 128.173 125.618 125.785 125.618 122.827V9.7848C125.618 6.82701 123.27 4.43927 120.386 4.43927H76.0772C73.1929 4.43927 70.8448 6.82701 70.8448 9.7848V32.3933C70.8448 35.3511 73.1929 37.7389 76.0772 37.7389H84.7008C88.7894 37.7389 91.6025 41.9009 90.1741 45.7881L65.2419 113.637C63.3087 118.898 55.9637 118.758 54.2232 113.429L37.6576 62.7135C37.2212 61.3776 37.263 59.9272 37.7755 58.6196L56.1381 11.7719C57.5177 8.25219 54.9746 4.43927 51.2807 4.43927H9.6141ZM3.76929 9.7848C3.76929 6.49942 6.38063 3.82607 9.6141 3.82607H51.2807C55.4236 3.82607 58.2391 8.09034 56.7082 11.996L38.3456 58.8437C37.8851 60.0185 37.8475 61.3223 38.2397 62.5229L54.8053 113.238C56.3658 118.016 62.935 118.139 64.6671 113.425L89.5993 45.5763C90.8866 42.0733 88.3463 38.3521 84.7008 38.3521H76.0772C72.8437 38.3521 70.2324 35.6787 70.2324 32.3933V9.7848C70.2324 6.49942 72.8437 3.82607 76.0772 3.82607H120.386C123.619 3.82607 126.231 6.49941 126.231 9.7848V122.827C126.231 126.113 123.619 128.786 120.386 128.786H9.61411C6.38063 128.786 3.76929 126.113 3.76929 122.827V9.7848ZM9.6141 7.26534C8.25926 7.26534 7.15103 8.38781 7.15103 9.7848V122.827C7.15103 124.224 8.25926 125.347 9.61411 125.347H120.386C121.741 125.347 122.849 124.224 122.849 122.827V9.7848C122.849 8.38781 121.741 7.26534 120.386 7.26534H76.0772C74.7223 7.26534 73.6141 8.38781 73.6141 9.7848V32.3933C73.6141 33.7903 74.7223 34.9128 76.0772 34.9128H84.7008C90.7229 34.9128 94.8744 41.0457 92.7671 46.7804L67.8349 114.629C64.9853 122.384 54.1618 122.178 51.596 114.323L35.0304 63.6071C34.3869 61.6371 34.4485 59.4983 35.2043 57.5701L53.5669 10.7224C54.2189 9.05896 53.0154 7.26534 51.2807 7.26534H9.6141ZM6.53859 9.7848C6.53859 8.06021 7.91007 6.65213 9.6141 6.65213H51.2807C53.4644 6.65213 54.9403 8.89711 54.137 10.9464L35.7744 57.7941C35.0706 59.5896 35.0132 61.5818 35.6125 63.4165L52.1781 114.132C54.5639 121.436 64.6116 121.625 67.2601 114.417L92.1923 46.5686C94.1584 41.2181 90.2799 35.526 84.7008 35.526H76.0772C74.3731 35.526 73.0017 34.1179 73.0017 32.3933V9.7848C73.0017 8.06021 74.3731 6.65213 76.0772 6.65213H120.386C122.09 6.65213 123.461 8.06021 123.461 9.7848V122.827C123.461 124.552 122.09 125.96 120.386 125.96H9.61411C7.91007 125.96 6.53859 124.552 6.53859 122.827V9.7848Z" fill="url(#paint0_linear_1252_12)"/>
<path fill-rule="evenodd" clip-rule="evenodd" d="M1 9.7848C1 4.93862 4.85119 1 9.6141 1H51.2807C57.3828 1 61.5379 7.28358 59.2795 13.0455L40.9168 59.8932C40.6996 60.4475 40.6818 61.0627 40.8669 61.6292L57.4324 112.345C58.1677 114.596 61.2584 114.653 62.0742 112.433L87.0063 44.584C87.6147 42.9285 86.4128 41.1781 84.7008 41.1781H76.0772C71.3143 41.1781 67.4631 37.2395 67.4631 32.3933V9.7848C67.4631 4.93862 71.3143 1 76.0772 1H120.386C125.149 1 129 4.93862 129 9.7848V122.827C129 127.674 125.149 131.612 120.386 131.612H9.61411C4.8512 131.612 1 127.674 1 122.827V9.7848ZM9.6141 1.6132C5.20038 1.6132 1.61244 5.26622 1.61244 9.7848V122.827C1.61244 127.346 5.20038 130.999 9.61411 130.999H120.386C124.8 130.999 128.388 127.346 128.388 122.827V9.7848C128.388 5.26622 124.8 1.6132 120.386 1.6132H76.0772C71.6634 1.6132 68.0755 5.26622 68.0755 9.7848V32.3933C68.0755 36.9119 71.6634 40.5649 76.0772 40.5649H84.7008C86.8558 40.5649 88.3306 42.7561 87.5811 44.7958L62.6489 112.645C61.632 115.412 57.7656 115.338 56.8503 112.535L40.2848 61.8198C40.0555 61.118 40.0774 60.3562 40.3467 59.6692L58.7094 12.8215C60.8166 7.44542 56.9338 1.6132 51.2807 1.6132H9.6141ZM9.6141 4.43927C6.72982 4.43927 4.38173 6.82701 4.38173 9.7848V122.827C4.38173 125.785 6.72982 128.173 9.61411 128.173H120.386C123.27 128.173 125.618 125.785 125.618 122.827V9.7848C125.618 6.82701 123.27 4.43927 120.386 4.43927H76.0772C73.1929 4.43927 70.8448 6.82701 70.8448 9.7848V32.3933C70.8448 35.3511 73.1929 37.7389 76.0772 37.7389H84.7008C88.7894 37.7389 91.6025 41.9009 90.1741 45.7881L65.2419 113.637C63.3087 118.898 55.9637 118.758 54.2232 113.429L37.6576 62.7135C37.2212 61.3776 37.263 59.9272 37.7755 58.6196L56.1381 11.7719C57.5177 8.25219 54.9746 4.43927 51.2807 4.43927H9.6141ZM3.76929 9.7848C3.76929 6.49942 6.38063 3.82607 9.6141 3.82607H51.2807C55.4236 3.82607 58.2391 8.09034 56.7082 11.996L38.3456 58.8437C37.8851 60.0185 37.8475 61.3223 38.2397 62.5229L54.8053 113.238C56.3658 118.016 62.935 118.139 64.6671 113.425L89.5993 45.5763C90.8866 42.0733 88.3463 38.3521 84.7008 38.3521H76.0772C72.8437 38.3521 70.2324 35.6787 70.2324 32.3933V9.7848C70.2324 6.49942 72.8437 3.82607 76.0772 3.82607H120.386C123.619 3.82607 126.231 6.49941 126.231 9.7848V122.827C126.231 126.113 123.619 128.786 120.386 128.786H9.61411C6.38063 128.786 3.76929 126.113 3.76929 122.827V9.7848ZM9.6141 7.26534C8.25926 7.26534 7.15103 8.38781 7.15103 9.7848V122.827C7.15103 124.224 8.25926 125.347 9.61411 125.347H120.386C121.741 125.347 122.849 124.224 122.849 122.827V9.7848C122.849 8.38781 121.741 7.26534 120.386 7.26534H76.0772C74.7223 7.26534 73.6141 8.38781 73.6141 9.7848V32.3933C73.6141 33.7903 74.7223 34.9128 76.0772 34.9128H84.7008C90.7229 34.9128 94.8744 41.0457 92.7671 46.7804L67.8349 114.629C64.9853 122.384 54.1618 122.178 51.596 114.323L35.0304 63.6071C34.3869 61.6371 34.4485 59.4983 35.2043 57.5701L53.5669 10.7224C54.2189 9.05896 53.0154 7.26534 51.2807 7.26534H9.6141ZM6.53859 9.7848C6.53859 8.06021 7.91007 6.65213 9.6141 6.65213H51.2807C53.4644 6.65213 54.9403 8.89711 54.137 10.9464L35.7744 57.7941C35.0706 59.5896 35.0132 61.5818 35.6125 63.4165L52.1781 114.132C54.5639 121.436 64.6116 121.625 67.2601 114.417L92.1923 46.5686C94.1584 41.2181 90.2799 35.526 84.7008 35.526H76.0772C74.3731 35.526 73.0017 34.1179 73.0017 32.3933V9.7848C73.0017 8.06021 74.3731 6.65213 76.0772 6.65213H120.386C122.09 6.65213 123.461 8.06021 123.461 9.7848V122.827C123.461 124.552 122.09 125.96 120.386 125.96H9.61411C7.91007 125.96 6.53859 124.552 6.53859 122.827V9.7848Z" stroke="url(#paint1_linear_1252_12)" mask="url(#path-1-outside-1_1252_12)"/>
<defs>
<linearGradient id="paint0_linear_1252_12" x1="1.1722" y1="66.3061" x2="128.828" y2="66.3061" gradientUnits="userSpaceOnUse">
<stop stop-color="#2CBDEE"/>
<stop offset="1" stop-color="#C53156"/>
</linearGradient>
<linearGradient id="paint1_linear_1252_12" x1="1.1722" y1="66.3061" x2="128.828" y2="66.3061" gradientUnits="userSpaceOnUse">
<stop stop-color="#2CBDEE"/>
<stop offset="1" stop-color="#C53156"/>
</linearGradient>
</defs>
</svg>
