<svg width="38" height="16" viewBox="0 0 38 16" fill="none" xmlns="http://www.w3.org/2000/svg">
<path d="M1.61548 0V11.4406H0V12.1905H21.2412L28.1473 3.29614V12.1905H31.8969V11.4406H30.2052V0H28.1473L21.0668 9.10362V0H19.0088V11.4406H16.9344V0H12.5046V1.83119H14.9811V11.4406H10.2922V0H5.8625V1.83119H8.33896V11.4406H3.67338V0H1.61548Z" fill="#010101"/>
<path fill-rule="evenodd" clip-rule="evenodd" d="M35.4041 16H26.5905V15.817H27.4633C27.2549 15.6836 27.0898 15.5006 26.9678 15.2679C26.8484 15.0352 26.7887 14.7756 26.7887 14.489C26.7887 14.052 26.9234 13.6873 27.1927 13.3951C27.462 13.0999 27.7949 12.9524 28.1913 12.9524C28.5876 12.9524 28.9205 13.0999 29.1898 13.3951C29.4592 13.6873 29.5938 14.052 29.5938 14.489C29.5938 14.7727 29.5329 15.0324 29.4109 15.2679C29.2915 15.5034 29.1276 15.6864 28.9192 15.817H29.8944V13.0247H30.8091C31.2131 13.0247 31.5078 13.1113 31.6933 13.2844C31.8788 13.4575 31.9715 13.7242 31.9715 14.0846C31.9715 14.445 31.8763 14.7089 31.6857 14.8763C31.4977 15.0437 31.208 15.1274 30.8167 15.1274H30.3441V15.817H31.8546V15.8125H32.2587V15.516H33.8628V14.7007H32.467V14.2429H33.8628V13.4363H32.3087V12.9524H34.3544V15.8125H34.8708V12.9524H35.3624V15.2283L37.054 12.9524H37.5457V15.8125H37.9498V16H37.054V13.7764L35.4041 16ZM28.8583 13.7271C28.6779 13.5171 28.4555 13.4121 28.1913 13.4121C27.927 13.4121 27.7034 13.5171 27.5205 13.7271C27.3401 13.937 27.2499 14.1924 27.2499 14.4932C27.2499 14.7912 27.3401 15.0451 27.5205 15.2551C27.7034 15.4651 27.927 15.5701 28.1913 15.5701C28.4555 15.5701 28.6779 15.4651 28.8583 15.2551C29.0412 15.0451 29.1327 14.7912 29.1327 14.4932C29.1327 14.1924 29.0412 13.937 28.8583 13.7271ZM30.8662 14.672C31.1153 14.672 31.2842 14.6195 31.3732 14.5145C31.4646 14.4067 31.5104 14.2506 31.5104 14.0463C31.5104 13.8391 31.4532 13.693 31.3389 13.6079C31.2245 13.5227 31.0454 13.4802 30.8015 13.4802H30.3441V14.672H30.8662Z" fill="#010101"/>
</svg>
