<svg width="446" height="69" viewBox="0 0 446 69" fill="none" xmlns="http://www.w3.org/2000/svg">
  <path d="M182.74 41.0892V22.549H173.148V36.5168C171.183 36.8091 169.344 36.9553 167.63 36.9553C163.367 36.9553 160.065 35.5773 157.724 32.8213C155.425 30.0235 154.275 26.4324 154.275 22.0479C154.275 19.2501 154.819 16.7447 155.906 14.5316C156.992 12.2767 158.581 10.502 160.671 9.2075C162.802 7.87126 165.331 7.20315 168.257 7.20315C172.312 7.20315 175.906 8.24708 179.041 10.3349L181.361 3.44498C179.689 2.35929 177.725 1.52414 175.467 0.93954C173.21 0.31318 170.807 0 168.257 0C163.158 0 158.811 1.00218 155.216 3.00653C151.621 5.01088 148.904 7.68336 147.065 11.0239C145.268 14.3645 144.369 18.0183 144.369 21.9853C144.369 25.994 145.226 29.6895 146.94 33.0718C148.695 36.4124 151.308 39.1058 154.777 41.1519C158.288 43.1562 162.572 44.1584 167.63 44.1584C170.472 44.1584 173.21 43.887 175.844 43.3441C178.477 42.7595 180.776 42.0079 182.74 41.0892Z" fill="#FF7F66"/>
  <path d="M0 0.751634H9.9063V43.3441H0V0.751634Z" fill="#FF7F66"/>
  <path d="M60.5433 0.751634V43.3441L51.7029 43.4068L31.0125 14.97L31.7649 29.1258V43.3441H21.8586V0.751634H30.7617L51.3894 29.0005L50.637 14.5942V0.751634H60.5433Z" fill="#FF7F66"/>
  <path d="M90.1755 7.82951H102.527V0.751634H68.0431V7.82951H80.2692V43.3441H90.1755V7.82951Z" fill="#FF7F66"/>
  <path d="M138.119 36.3915V43.3441H109.905V0.751634H136.865V7.70423H119.812V17.3502H134.358V24.3028H119.812V36.3915H138.119Z" fill="#FF7F66"/>
  <path d="M220.166 36.3915V43.3441H191.952V0.751634H218.912V7.70423H201.858V17.3502H216.404V24.3028H201.858V36.3915H220.166Z" fill="#FF7F66"/>
  <path d="M230.271 0.751426H268.758V7.704H251.704V17.3502H266.25V24.3028H251.704V36.3913H270.012V43.3439H252.403L239.989 24.9291C244.754 23.0915 247.137 19.2083 247.137 13.2788C247.137 9.06132 245.778 5.92947 243.062 3.88327C240.345 1.79555 236.081 0.751426 230.271 0.751426Z" fill="#FF7F66"/>
  <path d="M223.813 43.3439H240.992L230.334 26.9333H223.813V43.3439Z" fill="#FF7F66"/>
  <path d="M307.422 36.3913V43.3439H279.208V0.751426H289.114V36.3913H307.422Z" fill="#FF7F66"/>
  <path d="M342.568 43.3439V36.3913H324.26V24.3028H338.806V17.3502H324.26V7.704H341.314V0.751426H314.353V43.3439H342.568Z" fill="#FF7F66"/>
  <path d="M230.271 19.9807H223.813V7.704H230.271C232.695 7.704 234.451 8.20532 235.538 9.2074C236.666 10.2095 237.23 11.7544 237.23 13.8426C237.23 15.9303 236.666 17.4752 235.538 18.4773C234.451 19.4794 232.695 19.9807 230.271 19.9807Z" fill="#FF7F66"/>
  <path d="M362.319 43.3197L378.469 0.751426H396.865V7.704H379.811V17.3502H394.357V24.3028H379.811V36.3913H398.119V43.3439H369.905V43.3197H362.319Z" fill="#FF7F66"/>
  <path d="M357.151 34.3241L345.74 0.751426H368.5L357.151 34.3241Z" fill="#FF7F66"/>
  <path d="M446 0.751426V43.3439L437.16 43.4065L416.469 14.9698L417.222 29.1256V43.3439H407.315V0.751426H416.218L436.846 29.0005L436.094 14.5941V0.751426H446Z" fill="#FF7F66"/>
  <path d="M182.74 41.0892V22.549H173.148V36.5168C171.183 36.8091 169.344 36.9553 167.63 36.9553C163.367 36.9553 160.065 35.5773 157.724 32.8213C155.425 30.0235 154.275 26.4324 154.275 22.0479C154.275 19.2501 154.819 16.7447 155.906 14.5316C156.992 12.2767 158.581 10.502 160.671 9.2075C162.802 7.87126 165.331 7.20315 168.257 7.20315C172.312 7.20315 175.906 8.24708 179.041 10.3349L181.361 3.44498C179.689 2.35929 177.725 1.52414 175.467 0.93954C173.21 0.31318 170.807 0 168.257 0C163.158 0 158.811 1.00218 155.216 3.00653C151.621 5.01088 148.904 7.68336 147.065 11.0239C145.268 14.3645 144.369 18.0183 144.369 21.9853C144.369 25.994 145.226 29.6895 146.94 33.0718C148.695 36.4124 151.308 39.1058 154.777 41.1519C158.288 43.1562 162.572 44.1584 167.63 44.1584C170.472 44.1584 173.21 43.887 175.844 43.3441C178.477 42.7595 180.776 42.0079 182.74 41.0892Z" fill="#FF7F66"/>
  <path d="M0 0.751634H9.9063V43.3441H0V0.751634Z" fill="#FF7F66"/>
  <path d="M60.5433 0.751634V43.3441L51.7029 43.4068L31.0125 14.97L31.7649 29.1258V43.3441H21.8586V0.751634H30.7617L51.3894 29.0005L50.637 14.5942V0.751634H60.5433Z" fill="#FF7F66"/>
  <path d="M90.1755 7.82951H102.527V0.751634H68.0431V7.82951H80.2692V43.3441H90.1755V7.82951Z" fill="#FF7F66"/>
  <path d="M138.119 36.3915V43.3441H109.905V0.751634H136.865V7.70423H119.812V17.3502H134.358V24.3028H119.812V36.3915H138.119Z" fill="#FF7F66"/>
  <path d="M220.166 36.3915V43.3441H191.952V0.751634H218.912V7.70423H201.858V17.3502H216.404V24.3028H201.858V36.3915H220.166Z" fill="#FF7F66"/>
  <path d="M230.271 0.751426H268.758V7.704H251.704V17.3502H266.25V24.3028H251.704V36.3913H270.012V43.3439H252.403L239.989 24.9291C244.754 23.0915 247.137 19.2083 247.137 13.2788C247.137 9.06132 245.778 5.92947 243.062 3.88327C240.345 1.79555 236.081 0.751426 230.271 0.751426Z" fill="#FF7F66"/>
  <path d="M223.813 43.3439H240.992L230.334 26.9333H223.813V43.3439Z" fill="#FF7F66"/>
  <path d="M307.422 36.3913V43.3439H279.208V0.751426H289.114V36.3913H307.422Z" fill="#FF7F66"/>
  <path d="M342.568 43.3439V36.3913H324.26V24.3028H338.806V17.3502H324.26V7.704H341.314V0.751426H314.353V43.3439H342.568Z" fill="#FF7F66"/>
  <path d="M230.271 19.9807H223.813V7.704H230.271C232.695 7.704 234.451 8.20532 235.538 9.2074C236.666 10.2095 237.23 11.7544 237.23 13.8426C237.23 15.9303 236.666 17.4752 235.538 18.4773C234.451 19.4794 232.695 19.9807 230.271 19.9807Z" fill="#FF7F66"/>
  <path d="M362.319 43.3197L378.469 0.751426H396.865V7.704H379.811V17.3502H394.357V24.3028H379.811V36.3913H398.119V43.3439H369.905V43.3197H362.319Z" fill="#FF7F66"/>
  <path d="M357.151 34.3241L345.74 0.751426H368.5L357.151 34.3241Z" fill="#FF7F66"/>
  <path d="M446 0.751426V43.3439L437.16 43.4065L416.469 14.9698L417.222 29.1256V43.3439H407.315V0.751426H416.218L436.846 29.0005L436.094 14.5941V0.751426H446Z" fill="#FF7F66"/>
  <path d="M13.1267 54.83H8.0776V68.2797H6.04913V54.83H1V53.2866H13.1267V54.83Z" fill="#FF7F66"/>
  <path d="M21.0899 61.6871H18.3559V68.2797H16.3274V53.2866H21.3545C23.0595 53.2866 24.3531 53.6541 25.235 54.3891C26.117 55.124 26.5579 56.1309 26.5579 57.4097C26.5579 58.4827 26.2713 59.3647 25.698 60.0555C25.1248 60.7317 24.2796 61.18 23.1624 61.4005L28.0572 68.2797H25.698L21.0899 61.6871ZM18.3559 60.1437H21.3545C23.4711 60.1437 24.5295 59.2544 24.5295 57.4759C24.5295 56.638 24.2575 55.9839 23.7137 55.5135C23.1698 55.0432 22.3834 54.808 21.3545 54.808H18.3559V60.1437Z" fill="#FF7F66"/>
  <path d="M39.0521 63.6274H33.0328L31.3351 68.2797H29.3066L35.1274 53.0882H37.0015L42.8444 68.2797H40.7719L39.0521 63.6274ZM38.5008 62.1061L36.0535 55.4474L33.6061 62.1061H38.5008Z" fill="#FF7F66"/>
  <path d="M57.8671 53.2866V68.2797L56.1032 68.3017L47.6365 56.5278L47.7468 61.7533V68.2797H45.7183V53.2866H47.4822L55.9489 65.0826L55.8386 59.2397V53.2866H57.8671Z" fill="#FF7F66"/>
  <path d="M66.6956 68.6324C65.5932 68.6324 64.6304 68.5149 63.8073 68.2797C62.9841 68.0445 62.2271 67.6917 61.5363 67.2213L62.2418 65.722C63.4766 66.604 64.9612 67.0449 66.6956 67.0449C67.6952 67.0449 68.5257 66.8024 69.1871 66.3173C69.8486 65.8323 70.1793 65.1708 70.1793 64.333C70.1793 63.8185 70.025 63.3849 69.7163 63.0321C69.4076 62.6793 69.0181 62.4 68.5477 62.1943C68.0921 61.9738 67.4526 61.7165 66.6295 61.4226C65.6447 61.0698 64.8509 60.7464 64.2483 60.4524C63.6603 60.1584 63.1532 59.7469 62.7269 59.2177C62.3153 58.6738 62.1095 57.983 62.1095 57.1451C62.1095 55.8222 62.5799 54.8006 63.5206 54.0804C64.4614 53.3601 65.6667 53 67.1366 53C68.9005 53 70.4366 53.463 71.7448 54.3891L71.0392 55.8443C69.8633 54.9917 68.5771 54.5654 67.1807 54.5654C66.2841 54.5654 65.5491 54.7786 64.9759 55.2049C64.4026 55.6311 64.116 56.2485 64.116 57.0569C64.116 57.5567 64.2703 57.9756 64.579 58.3137C64.8877 58.6518 65.2698 58.9311 65.7255 59.1516C66.1812 59.3573 66.8132 59.6072 67.6217 59.9012C68.6065 60.254 69.4003 60.5847 70.0029 60.8934C70.6056 61.1874 71.1201 61.6136 71.5463 62.1722C71.9726 62.7161 72.1857 63.4069 72.1857 64.2448C72.1857 65.1414 71.9579 65.9205 71.5022 66.5819C71.0466 67.2434 70.3998 67.7505 69.562 68.1033C68.7388 68.4561 67.7834 68.6324 66.6956 68.6324Z" fill="#FF7F66"/>
  <path d="M77.8483 54.83V59.9894H83.6911V61.5328H77.8483V68.2797H75.8198V53.2866H84.5731V54.83H77.8483Z" fill="#FF7F66"/>
  <path d="M93.7487 68.6324C92.1906 68.6324 90.853 68.287 89.7359 67.5962C88.6335 66.8906 87.803 65.9425 87.2444 64.7519C86.6858 63.5613 86.4066 62.2457 86.4066 60.8052C86.4066 59.3647 86.6858 58.0565 87.2444 56.8806C87.803 55.6899 88.6335 54.7492 89.7359 54.0583C90.853 53.3528 92.1906 53 93.7487 53C95.3068 53 96.6371 53.3528 97.7395 54.0583C98.8567 54.7492 99.6945 55.6899 100.253 56.8806C100.812 58.0565 101.091 59.3573 101.091 60.7831C101.091 62.2384 100.812 63.5613 100.253 64.7519C99.6945 65.9425 98.8567 66.8906 97.7395 67.5962C96.6371 68.287 95.3068 68.6324 93.7487 68.6324ZM93.7487 67.0449C94.8659 67.0449 95.8213 66.7804 96.6151 66.2512C97.4088 65.7073 98.0115 64.965 98.423 64.0243C98.8346 63.0689 99.0404 61.9958 99.0404 60.8052C99.0404 59.6146 98.8346 58.5489 98.423 57.6082C98.0115 56.6674 97.4015 55.9251 96.593 55.3812C95.7993 54.8374 94.8512 54.5654 93.7487 54.5654C92.6316 54.5654 91.6688 54.8374 90.8604 55.3812C90.0666 55.9251 89.464 56.6674 89.0524 57.6082C88.6408 58.5489 88.435 59.6146 88.435 60.8052C88.435 61.9958 88.6408 63.0689 89.0524 64.0243C89.464 64.965 90.0666 65.7073 90.8604 66.2512C91.6688 66.7804 92.6316 67.0449 93.7487 67.0449Z" fill="#FF7F66"/>
  <path d="M109.521 61.6871H106.787V68.2797H104.759V53.2866H109.786C111.491 53.2866 112.784 53.6541 113.666 54.3891C114.548 55.124 114.989 56.1309 114.989 57.4097C114.989 58.4827 114.702 59.3647 114.129 60.0555C113.556 60.7317 112.711 61.18 111.594 61.4005L116.488 68.2797H114.129L109.521 61.6871ZM106.787 60.1437H109.786C111.902 60.1437 112.961 59.2544 112.961 57.4759C112.961 56.638 112.689 55.9839 112.145 55.5135C111.601 55.0432 110.815 54.808 109.786 54.808H106.787V60.1437Z" fill="#FF7F66"/>
  <path d="M134.186 53.2866V68.2797H132.18V63.0542L132.29 56.5719L127.682 63.451H126.293L121.64 56.5057L121.773 63.0542V68.2797H119.766V53.2866H121.574L126.976 61.3123L132.378 53.2866H134.186Z" fill="#FF7F66"/>
  <path d="M139.102 53.2866H141.13V68.2797H139.102V53.2866Z" fill="#FF7F66"/>
  <path d="M158.205 53.2866V68.2797L156.441 68.3017L147.975 56.5278L148.085 61.7533V68.2797H146.057V53.2866H147.82L156.287 65.0826L156.177 59.2397V53.2866H158.205Z" fill="#FF7F66"/>
  <path d="M174.795 61.2682V67.4198C174.222 67.7726 173.472 68.0592 172.546 68.2797C171.62 68.5002 170.598 68.6104 169.481 68.6104C167.835 68.6104 166.446 68.2503 165.314 67.53C164.182 66.8098 163.33 65.8543 162.756 64.6637C162.198 63.4731 161.919 62.1722 161.919 60.7611C161.919 59.35 162.213 58.0565 162.801 56.8806C163.389 55.7046 164.27 54.7639 165.446 54.0583C166.622 53.3528 168.055 53 169.746 53C170.731 53 171.649 53.1617 172.502 53.4851C173.369 53.7937 174.104 54.2347 174.707 54.808L173.869 56.1529C173.399 55.6679 172.796 55.2857 172.061 55.0064C171.326 54.7124 170.554 54.5654 169.746 54.5654C168.511 54.5654 167.46 54.8374 166.593 55.3812C165.726 55.9251 165.064 56.6674 164.609 57.6082C164.168 58.5489 163.947 59.6072 163.947 60.7831C163.947 61.9885 164.16 63.0615 164.587 64.0022C165.013 64.943 165.638 65.6853 166.461 66.2291C167.299 66.773 168.305 67.0449 169.481 67.0449C170.716 67.0449 171.833 66.898 172.833 66.604V61.2682H174.795Z" fill="#FF7F66"/>
  <path d="M191.594 60.3642C192.637 60.5847 193.431 61.033 193.975 61.7092C194.533 62.3706 194.813 63.1791 194.813 64.1345C194.813 65.3987 194.342 66.4055 193.402 67.1552C192.476 67.9048 191.138 68.2797 189.389 68.2797H184.362V53.2866H189.389C190.932 53.2866 192.108 53.6247 192.917 54.3009C193.74 54.9623 194.151 55.8957 194.151 57.101C194.151 57.8801 193.931 58.5636 193.49 59.1516C193.049 59.7395 192.417 60.1437 191.594 60.3642ZM186.39 54.808V59.6366H189.389C190.256 59.6366 190.925 59.4235 191.395 58.9972C191.88 58.5709 192.123 57.983 192.123 57.2333C192.123 56.4249 191.888 55.8222 191.417 55.4253C190.947 55.0138 190.271 54.808 189.389 54.808H186.39ZM189.389 66.7583C190.477 66.7583 191.314 66.5158 191.902 66.0307C192.49 65.5309 192.784 64.8401 192.784 63.9581C192.784 63.0174 192.49 62.3192 191.902 61.8635C191.329 61.3932 190.491 61.158 189.389 61.158H186.39V66.7583H189.389Z" fill="#FF7F66"/>
  <path d="M204.179 68.6324C202.224 68.6324 200.718 68.0886 199.659 67.0008C198.616 65.9131 198.094 64.4726 198.094 62.6793V53.2866H200.122V62.6573C200.122 64.0537 200.475 65.1341 201.181 65.8984C201.886 66.6628 202.886 67.0449 204.179 67.0449C205.473 67.0449 206.465 66.6628 207.156 65.8984C207.861 65.1341 208.214 64.0537 208.214 62.6573V53.2866H210.243V62.6352C210.243 64.4579 209.721 65.9131 208.677 67.0008C207.634 68.0886 206.134 68.6324 204.179 68.6324Z" fill="#FF7F66"/>
  <path d="M218.839 68.6324C217.737 68.6324 216.774 68.5149 215.951 68.2797C215.128 68.0445 214.371 67.6917 213.68 67.2213L214.386 65.722C215.62 66.604 217.105 67.0449 218.839 67.0449C219.839 67.0449 220.67 66.8024 221.331 66.3173C221.992 65.8323 222.323 65.1708 222.323 64.333C222.323 63.8185 222.169 63.3849 221.86 63.0321C221.551 62.6793 221.162 62.4 220.692 62.1943C220.236 61.9738 219.596 61.7165 218.773 61.4226C217.788 61.0698 216.995 60.7464 216.392 60.4524C215.804 60.1584 215.297 59.7469 214.871 59.2177C214.459 58.6738 214.253 57.983 214.253 57.1451C214.253 55.8222 214.724 54.8006 215.664 54.0804C216.605 53.3601 217.811 53 219.28 53C221.044 53 222.58 53.463 223.889 54.3891L223.183 55.8443C222.007 54.9917 220.721 54.5654 219.325 54.5654C218.428 54.5654 217.693 54.7786 217.12 55.2049C216.546 55.6311 216.26 56.2485 216.26 57.0569C216.26 57.5567 216.414 57.9756 216.723 58.3137C217.031 58.6518 217.414 58.9311 217.869 59.1516C218.325 59.3573 218.957 59.6072 219.766 59.9012C220.75 60.254 221.544 60.5847 222.147 60.8934C222.749 61.1874 223.264 61.6136 223.69 62.1722C224.116 62.7161 224.33 63.4069 224.33 64.2448C224.33 65.1414 224.102 65.9205 223.646 66.5819C223.19 67.2434 222.544 67.7505 221.706 68.1033C220.883 68.4561 219.927 68.6324 218.839 68.6324Z" fill="#FF7F66"/>
  <path d="M227.964 53.2866H229.992V68.2797H227.964V53.2866Z" fill="#FF7F66"/>
  <path d="M247.067 53.2866V68.2797L245.303 68.3017L236.837 56.5278L236.947 61.7533V68.2797H234.918V53.2866H236.682L245.149 65.0826L245.039 59.2397V53.2866H247.067Z" fill="#FF7F66"/>
  <path d="M261.187 66.7583V68.2797H251.993V53.2866H260.746V54.808H254.022V59.5925H259.864V61.1139H254.022V66.7583H261.187Z" fill="#FF7F66"/>
  <path d="M268.793 68.6324C267.691 68.6324 266.728 68.5149 265.905 68.2797C265.082 68.0445 264.325 67.6917 263.634 67.2213L264.339 65.722C265.574 66.604 267.059 67.0449 268.793 67.0449C269.793 67.0449 270.623 66.8024 271.285 66.3173C271.946 65.8323 272.277 65.1708 272.277 64.333C272.277 63.8185 272.123 63.3849 271.814 63.0321C271.505 62.6793 271.116 62.4 270.645 62.1943C270.19 61.9738 269.55 61.7165 268.727 61.4226C267.742 61.0698 266.949 60.7464 266.346 60.4524C265.758 60.1584 265.251 59.7469 264.825 59.2177C264.413 58.6738 264.207 57.983 264.207 57.1451C264.207 55.8222 264.678 54.8006 265.618 54.0804C266.559 53.3601 267.764 53 269.234 53C270.998 53 272.534 53.463 273.842 54.3891L273.137 55.8443C271.961 54.9917 270.675 54.5654 269.278 54.5654C268.382 54.5654 267.647 54.7786 267.074 55.2049C266.5 55.6311 266.214 56.2485 266.214 57.0569C266.214 57.5567 266.368 57.9756 266.677 58.3137C266.985 58.6518 267.367 58.9311 267.823 59.1516C268.279 59.3573 268.911 59.6072 269.719 59.9012C270.704 60.254 271.498 60.5847 272.101 60.8934C272.703 61.1874 273.218 61.6136 273.644 62.1722C274.07 62.7161 274.283 63.4069 274.283 64.2448C274.283 65.1414 274.056 65.9205 273.6 66.5819C273.144 67.2434 272.497 67.7505 271.66 68.1033C270.836 68.4561 269.881 68.6324 268.793 68.6324Z" fill="#FF7F66"/>
  <path d="M281.82 68.6324C280.718 68.6324 279.755 68.5149 278.932 68.2797C278.109 68.0445 277.352 67.6917 276.661 67.2213L277.366 65.722C278.601 66.604 280.086 67.0449 281.82 67.0449C282.82 67.0449 283.65 66.8024 284.312 66.3173C284.973 65.8323 285.304 65.1708 285.304 64.333C285.304 63.8185 285.149 63.3849 284.841 63.0321C284.532 62.6793 284.142 62.4 283.672 62.1943C283.216 61.9738 282.577 61.7165 281.754 61.4226C280.769 61.0698 279.975 60.7464 279.373 60.4524C278.785 60.1584 278.278 59.7469 277.851 59.2177C277.44 58.6738 277.234 57.983 277.234 57.1451C277.234 55.8222 277.704 54.8006 278.645 54.0804C279.586 53.3601 280.791 53 282.261 53C284.025 53 285.561 53.463 286.869 54.3891L286.164 55.8443C284.988 54.9917 283.702 54.5654 282.305 54.5654C281.408 54.5654 280.674 54.7786 280.1 55.2049C279.527 55.6311 279.24 56.2485 279.24 57.0569C279.24 57.5567 279.395 57.9756 279.703 58.3137C280.012 58.6518 280.394 58.9311 280.85 59.1516C281.306 59.3573 281.938 59.6072 282.746 59.9012C283.731 60.254 284.525 60.5847 285.127 60.8934C285.73 61.1874 286.244 61.6136 286.671 62.1722C287.097 62.7161 287.31 63.4069 287.31 64.2448C287.31 65.1414 287.082 65.9205 286.627 66.5819C286.171 67.2434 285.524 67.7505 284.686 68.1033C283.863 68.4561 282.908 68.6324 281.82 68.6324Z" fill="#FF7F66"/>
  <path d="M306.885 54.83H301.836V68.2797H299.808V54.83H294.759V53.2866H306.885V54.83Z" fill="#FF7F66"/>
  <path d="M319.28 66.7583V68.2797H310.086V53.2866H318.839V54.808H312.114V59.5925H317.957V61.1139H312.114V66.7583H319.28Z" fill="#FF7F66"/>
  <path d="M329.334 68.6104C327.687 68.6104 326.298 68.2503 325.166 67.53C324.035 66.8098 323.182 65.8543 322.609 64.6637C322.05 63.4731 321.771 62.1722 321.771 60.7611C321.771 59.35 322.065 58.0565 322.653 56.8806C323.241 55.7046 324.123 54.7639 325.299 54.0583C326.475 53.3528 327.908 53 329.598 53C330.583 53 331.502 53.1617 332.354 53.4851C333.221 53.7937 333.956 54.2347 334.559 54.808L333.721 56.1529C333.251 55.6679 332.648 55.2857 331.913 55.0064C331.178 54.7124 330.407 54.5654 329.598 54.5654C328.363 54.5654 327.312 54.8374 326.445 55.3812C325.578 55.9251 324.916 56.6674 324.461 57.6082C324.02 58.5489 323.799 59.6072 323.799 60.7831C323.799 61.9885 324.012 63.0615 324.439 64.0022C324.865 64.943 325.49 65.6853 326.313 66.2291C327.151 66.773 328.158 67.0449 329.334 67.0449C331.142 67.0449 332.707 66.3541 334.03 64.9724L334.78 66.2953C334.118 66.9715 333.324 67.53 332.398 67.971C331.472 68.3973 330.451 68.6104 329.334 68.6104Z" fill="#FF7F66"/>
  <path d="M350.42 53.2866V68.2797H348.391V61.1139H340.3V68.2797H338.271V53.2866H340.3V59.5705H348.391V53.2866H350.42Z" fill="#FF7F66"/>
  <path d="M367.495 53.2866V68.2797L365.731 68.3017L357.264 56.5278L357.374 61.7533V68.2797H355.346V53.2866H357.11L365.576 65.0826L365.466 59.2397V53.2866H367.495Z" fill="#FF7F66"/>
  <path d="M378.55 68.6324C376.992 68.6324 375.654 68.287 374.537 67.5962C373.435 66.8906 372.604 65.9425 372.046 64.7519C371.487 63.5613 371.208 62.2457 371.208 60.8052C371.208 59.3647 371.487 58.0565 372.046 56.8806C372.604 55.6899 373.435 54.7492 374.537 54.0583C375.654 53.3528 376.992 53 378.55 53C380.108 53 381.438 53.3528 382.541 54.0583C383.658 54.7492 384.496 55.6899 385.054 56.8806C385.613 58.0565 385.892 59.3573 385.892 60.7831C385.892 62.2384 385.613 63.5613 385.054 64.7519C384.496 65.9425 383.658 66.8906 382.541 67.5962C381.438 68.287 380.108 68.6324 378.55 68.6324ZM378.55 67.0449C379.667 67.0449 380.623 66.7804 381.416 66.2512C382.21 65.7073 382.813 64.965 383.224 64.0243C383.636 63.0689 383.842 61.9958 383.842 60.8052C383.842 59.6146 383.636 58.5489 383.224 57.6082C382.813 56.6674 382.203 55.9251 381.394 55.3812C380.601 54.8374 379.653 54.5654 378.55 54.5654C377.433 54.5654 376.47 54.8374 375.662 55.3812C374.868 55.9251 374.265 56.6674 373.854 57.6082C373.442 58.5489 373.236 59.6146 373.236 60.8052C373.236 61.9958 373.442 63.0689 373.854 64.0243C374.265 64.965 374.868 65.7073 375.662 66.2512C376.47 66.7804 377.433 67.0449 378.55 67.0449Z" fill="#FF7F66"/>
  <path d="M398.754 66.7583V68.2797H389.56V53.2866H391.588V66.7583H398.754Z" fill="#FF7F66"/>
  <path d="M408.027 68.6324C406.469 68.6324 405.131 68.287 404.014 67.5962C402.912 66.8906 402.081 65.9425 401.523 64.7519C400.964 63.5613 400.685 62.2457 400.685 60.8052C400.685 59.3647 400.964 58.0565 401.523 56.8806C402.081 55.6899 402.912 54.7492 404.014 54.0583C405.131 53.3528 406.469 53 408.027 53C409.585 53 410.916 53.3528 412.018 54.0583C413.135 54.7492 413.973 55.6899 414.532 56.8806C415.09 58.0565 415.369 59.3573 415.369 60.7831C415.369 62.2384 415.09 63.5613 414.532 64.7519C413.973 65.9425 413.135 66.8906 412.018 67.5962C410.916 68.287 409.585 68.6324 408.027 68.6324ZM408.027 67.0449C409.144 67.0449 410.1 66.7804 410.893 66.2512C411.687 65.7073 412.29 64.965 412.701 64.0243C413.113 63.0689 413.319 61.9958 413.319 60.8052C413.319 59.6146 413.113 58.5489 412.701 57.6082C412.29 56.6674 411.68 55.9251 410.871 55.3812C410.078 54.8374 409.13 54.5654 408.027 54.5654C406.91 54.5654 405.947 54.8374 405.139 55.3812C404.345 55.9251 403.742 56.6674 403.331 57.6082C402.919 58.5489 402.713 59.6146 402.713 60.8052C402.713 61.9958 402.919 63.0689 403.331 64.0243C403.742 64.965 404.345 65.7073 405.139 66.2512C405.947 66.7804 406.91 67.0449 408.027 67.0449Z" fill="#FF7F66"/>
  <path d="M430.701 61.2682V67.4198C430.127 67.7726 429.378 68.0592 428.452 68.2797C427.526 68.5002 426.504 68.6104 425.387 68.6104C423.741 68.6104 422.352 68.2503 421.22 67.53C420.088 66.8098 419.235 65.8543 418.662 64.6637C418.104 63.4731 417.824 62.1722 417.824 60.7611C417.824 59.35 418.118 58.0565 418.706 56.8806C419.294 55.7046 420.176 54.7639 421.352 54.0583C422.528 53.3528 423.961 53 425.652 53C426.636 53 427.555 53.1617 428.408 53.4851C429.275 53.7937 430.01 54.2347 430.612 54.808L429.775 56.1529C429.304 55.6679 428.702 55.2857 427.967 55.0064C427.232 54.7124 426.46 54.5654 425.652 54.5654C424.417 54.5654 423.366 54.8374 422.499 55.3812C421.631 55.9251 420.97 56.6674 420.514 57.6082C420.073 58.5489 419.853 59.6072 419.853 60.7831C419.853 61.9885 420.066 63.0615 420.492 64.0022C420.918 64.943 421.543 65.6853 422.366 66.2291C423.204 66.773 424.211 67.0449 425.387 67.0449C426.622 67.0449 427.739 66.898 428.738 66.604V61.2682H430.701Z" fill="#FF7F66"/>
  <path d="M440.444 62.1943V68.2797H438.415V62.2163L432.881 53.2866H435.108L439.452 60.6068L443.795 53.2866H446L440.444 62.1943Z" fill="#FF7F66"/>
</svg>
