<svg width="446" height="45" viewBox="0 0 446 45" fill="none" xmlns="http://www.w3.org/2000/svg">
  <path d="M182.74 41.0892V22.549H173.148V36.5168C171.183 36.8091 169.344 36.9553 167.63 36.9553C163.367 36.9553 160.065 35.5773 157.724 32.8213C155.425 30.0235 154.275 26.4324 154.275 22.0479C154.275 19.2501 154.819 16.7447 155.906 14.5316C156.992 12.2767 158.581 10.502 160.671 9.2075C162.802 7.87126 165.331 7.20315 168.257 7.20315C172.312 7.20315 175.906 8.24708 179.041 10.3349L181.361 3.44498C179.689 2.35929 177.725 1.52414 175.467 0.93954C173.21 0.31318 170.807 0 168.257 0C163.158 0 158.811 1.00218 155.216 3.00653C151.621 5.01088 148.904 7.68336 147.065 11.0239C145.268 14.3645 144.369 18.0183 144.369 21.9853C144.369 25.994 145.226 29.6895 146.94 33.0718C148.695 36.4124 151.308 39.1058 154.777 41.1519C158.288 43.1562 162.572 44.1584 167.63 44.1584C170.472 44.1584 173.21 43.887 175.844 43.3441C178.477 42.7595 180.776 42.0079 182.74 41.0892Z" fill="#FF7F66"/>
  <path d="M0 0.751634H9.9063V43.3441H0V0.751634Z" fill="#FF7F66"/>
  <path d="M60.5433 0.751634V43.3441L51.7029 43.4068L31.0125 14.97L31.7649 29.1258V43.3441H21.8586V0.751634H30.7617L51.3894 29.0005L50.637 14.5942V0.751634H60.5433Z" fill="#FF7F66"/>
  <path d="M90.1755 7.82951H102.527V0.751634H68.0431V7.82951H80.2692V43.3441H90.1755V7.82951Z" fill="#FF7F66"/>
  <path d="M138.119 36.3915V43.3441H109.905V0.751634H136.865V7.70423H119.812V17.3502H134.358V24.3028H119.812V36.3915H138.119Z" fill="#FF7F66"/>
  <path d="M220.166 36.3915V43.3441H191.952V0.751634H218.912V7.70423H201.858V17.3502H216.404V24.3028H201.858V36.3915H220.166Z" fill="#FF7F66"/>
  <path d="M230.271 0.751426H268.758V7.704H251.704V17.3502H266.25V24.3028H251.704V36.3913H270.012V43.3439H252.403L239.989 24.9291C244.754 23.0915 247.137 19.2083 247.137 13.2788C247.137 9.06132 245.778 5.92947 243.062 3.88327C240.345 1.79555 236.081 0.751426 230.271 0.751426Z" fill="#FF7F66"/>
  <path d="M223.813 43.3439H240.992L230.334 26.9333H223.813V43.3439Z" fill="#FF7F66"/>
  <path d="M307.422 36.3913V43.3439H279.208V0.751426H289.114V36.3913H307.422Z" fill="#FF7F66"/>
  <path d="M342.568 43.3439V36.3913H324.26V24.3028H338.806V17.3502H324.26V7.704H341.314V0.751426H314.353V43.3439H342.568Z" fill="#FF7F66"/>
  <path d="M230.271 19.9807H223.813V7.704H230.271C232.695 7.704 234.451 8.20532 235.538 9.2074C236.666 10.2095 237.23 11.7544 237.23 13.8426C237.23 15.9303 236.666 17.4752 235.538 18.4773C234.451 19.4794 232.695 19.9807 230.271 19.9807Z" fill="#FF7F66"/>
  <path d="M362.319 43.3197L378.469 0.751426H396.865V7.704H379.811V17.3502H394.357V24.3028H379.811V36.3913H398.119V43.3439H369.905V43.3197H362.319Z" fill="#FF7F66"/>
  <path d="M357.151 34.3241L345.74 0.751426H368.5L357.151 34.3241Z" fill="#FF7F66"/>
  <path d="M446 0.751426V43.3439L437.16 43.4065L416.469 14.9698L417.222 29.1256V43.3439H407.315V0.751426H416.218L436.846 29.0005L436.094 14.5941V0.751426H446Z" fill="#FF7F66"/>
</svg>
