<svg width="594" height="121" viewBox="0 0 594 121" fill="none" xmlns="http://www.w3.org/2000/svg">
  <path fill-rule="evenodd" clip-rule="evenodd" d="M0 0H121V3.11095C120.661 2.98823 120.351 2.98864 120.146 3.01238C119.697 3.06473 119.383 3.27084 119.317 3.31366L119.312 3.31724C119.117 3.44414 118.966 3.59175 118.907 3.64928C118.625 3.92576 118.206 4.42509 117.813 4.9026C117.508 5.27252 117.188 5.66784 116.876 6.05207L116.876 6.0524C116.291 6.77369 115.738 7.45584 115.381 7.85738C113.665 9.78555 112.02 11.7665 110.429 13.7829C110.269 13.7256 110.103 13.6819 109.93 13.653C109.268 13.5422 108.655 13.6722 108.163 13.8574C107.218 14.2131 106.315 14.927 105.525 15.6754C103.899 17.2145 102.1 19.5415 100.452 21.8868C98.7853 24.258 97.2029 26.7509 96.0125 28.6896C95.4162 29.6607 94.916 30.4964 94.5506 31.1126C94.3704 31.4164 94.2229 31.6669 94.1136 31.8526L94.1101 31.8585L94.109 31.8604L94.1077 31.8625L93.9756 32.0867L93.9348 32.1553L93.9194 32.181C89.367 39.5496 84.8111 47.0519 80.9356 54.9215C80.5687 55.6665 80.2223 56.4284 79.9049 57.2068L79.89 57.2325L79.8798 57.2497C79.845 57.3084 79.7619 57.4488 79.693 57.5906C79.6269 57.7266 79.4618 58.0798 79.4406 58.5358C79.4315 58.7317 79.4501 58.9388 79.502 59.1453C73.4791 68.1001 67.7188 77.2313 62.171 86.4774C59.3016 91.2596 57.3473 94.5342 54.9223 99.4161C54.3809 100.506 53.8566 101.636 53.3971 102.807C53.3891 102.828 53.3816 102.845 53.361 102.891L53.3188 102.986C53.2769 103.08 53.2055 103.243 53.145 103.428C53.0378 103.756 52.8297 104.548 53.2633 105.383C53.4219 105.688 53.7326 106.087 54.2734 106.302C54.8033 106.513 55.2831 106.439 55.5732 106.349C56.0451 106.201 56.359 105.904 56.439 105.828L56.445 105.822C56.5682 105.706 56.6742 105.585 56.7241 105.528L56.7257 105.527L56.7757 105.47C56.7816 105.463 56.7856 105.458 56.7882 105.455C56.7905 105.453 56.7917 105.451 56.792 105.451C57.1692 105.073 57.5197 104.685 57.8413 104.325L58.0161 104.129C58.2813 103.831 58.5262 103.556 58.7803 103.286C61.3939 100.515 63.83 98.0301 66.4418 95.366C66.8307 94.9693 67.2235 94.5687 67.6213 94.1625C67.3502 94.6383 67.0846 95.1117 66.8224 95.5789L66.6598 95.8685C66.0815 96.8984 65.516 97.898 64.9268 98.8638C64.8286 99.0122 64.7335 99.1564 64.6432 99.2937C64.2877 99.8345 63.9884 100.297 63.8357 100.538C63.803 100.59 63.7701 100.643 63.7431 100.687C61.9984 102.62 60.2915 104.657 58.9114 106.794C58.3511 107.662 58.5964 108.82 59.4594 109.381C60.3223 109.942 61.4761 109.694 62.0365 108.826C62.8032 107.639 63.6676 106.501 64.5936 105.387C64.6588 105.584 64.7655 105.798 64.9358 106.001C65.2147 106.334 65.5607 106.515 65.8637 106.599C66.3758 106.742 66.7928 106.62 66.8891 106.592C67.0443 106.547 67.1614 106.491 67.2182 106.463C67.3373 106.403 67.4307 106.341 67.4752 106.311C67.9675 105.976 68.3681 105.583 68.6986 105.202C67.6898 107.799 66.815 110.48 66.2378 113.175C66.1924 113.387 66.1474 113.645 66.1404 113.908C66.1369 114.04 66.1407 114.236 66.1873 114.459C66.2304 114.665 66.3423 115.051 66.6699 115.408C67.0539 115.827 67.5768 116.033 68.0903 116.032C68.5257 116.032 68.8547 115.886 69.0197 115.8C69.3444 115.63 69.5786 115.4 69.6893 115.286C70.1544 114.809 70.7364 113.943 71.2548 113.136C71.7741 112.329 72.3487 111.389 72.8801 110.52L72.9994 110.325C73.5757 109.383 74.0787 108.565 74.4301 108.043C85.7638 91.2186 96.4234 74.0072 106.947 56.7261C108.77 54.8396 110.556 52.706 111.96 50.4246C112.112 50.1775 112.327 49.9018 112.614 49.5332L112.614 49.5331L112.615 49.533L112.616 49.5315C112.809 49.2835 113.035 48.9934 113.296 48.6418C113.579 48.2619 113.882 47.8322 114.135 47.3958C114.372 46.9853 114.648 46.4313 114.753 45.82C114.765 45.7545 114.776 45.6759 114.784 45.5871C115.739 44.2924 116.681 42.961 117.56 41.5948C118.734 39.9615 119.886 38.2914 121 36.5874V121H0V116.248C0.136549 116.258 0.257436 116.252 0.354321 116.24C0.804206 116.188 1.11818 115.982 1.18341 115.939L1.18886 115.936C1.3836 115.809 1.53482 115.661 1.5935 115.604C1.87544 115.327 2.29461 114.828 2.68793 114.35C2.99239 113.981 3.3126 113.586 3.62385 113.202L3.62458 113.201L3.62468 113.201C4.20947 112.479 4.76255 111.797 5.11994 111.395C6.83598 109.467 8.4804 107.486 10.0722 105.47C10.2315 105.527 10.398 105.571 10.5709 105.6C11.2331 105.711 11.8456 105.581 12.3376 105.395C13.2823 105.04 14.1859 104.326 14.9762 103.577C16.6013 102.038 18.4009 99.7114 20.049 97.3661C21.7155 94.9948 23.2979 92.502 24.4883 90.5633C25.0846 89.5921 25.5848 88.7564 25.9502 88.1402C26.1323 87.8333 26.281 87.5807 26.3907 87.3944L26.3918 87.3925L26.4618 87.2735C26.486 87.2326 26.507 87.1968 26.5252 87.1661L26.566 87.0975L26.5814 87.0719C31.1338 79.7033 35.6897 72.2009 39.5652 64.3313C39.9321 63.5864 40.2785 62.8244 40.5959 62.046L40.6108 62.0203L40.621 62.0032C40.6558 61.9444 40.7389 61.804 40.8078 61.6623C40.8739 61.5262 41.039 61.173 41.0602 60.7171C41.0693 60.5212 41.0507 60.314 40.9988 60.1075C47.0217 51.1528 52.782 42.0216 58.3298 32.7754C61.1992 27.9932 63.1535 24.7186 65.5785 19.8368C66.1199 18.7468 66.6442 17.6168 67.1037 16.4454C67.1082 16.4337 67.1126 16.4232 67.1194 16.4078C67.1245 16.3962 67.131 16.3818 67.1398 16.362L67.182 16.2673C67.2239 16.1727 67.2953 16.01 67.3558 15.8247C67.463 15.4968 67.6711 14.705 67.2375 13.8699C67.0789 13.5645 66.7682 13.1658 66.2274 12.9506C65.6975 12.7398 65.2177 12.8135 64.9276 12.9041C64.4557 13.0516 64.1418 13.3489 64.0618 13.4247L64.0558 13.4304C63.9326 13.5466 63.8266 13.6675 63.7767 13.7245L63.7751 13.7263C63.7257 13.7826 63.7099 13.8004 63.7088 13.802C63.3316 14.1801 62.9811 14.5679 62.6595 14.9281L62.4847 15.1243C62.2195 15.4221 61.9746 15.697 61.7205 15.9665C59.1069 18.738 56.6708 21.2228 54.0589 23.8869C53.6701 24.2836 53.2773 24.6842 52.8795 25.0903C53.1506 24.6146 53.4162 24.1412 53.6784 23.674L53.841 23.3843C54.4193 22.3544 54.9848 21.3548 55.574 20.3891C55.6722 20.2406 55.7673 20.0965 55.8576 19.9591C56.2131 19.4183 56.5124 18.9563 56.6651 18.7144C56.6978 18.6627 56.7307 18.6101 56.7577 18.5654C58.5024 16.6325 60.2093 14.5962 61.5894 12.459C62.1497 11.5913 61.9044 10.4329 61.0414 9.8717C60.1784 9.31045 59.0247 9.55889 58.4643 10.4266C57.6976 11.614 56.8332 12.7519 55.9072 13.8663C55.842 13.669 55.7352 13.4552 55.565 13.252C55.2861 12.9191 54.9401 12.738 54.6371 12.6536C54.125 12.511 53.708 12.6325 53.6117 12.6605C53.4565 12.7057 53.3394 12.7617 53.2826 12.7902C53.1635 12.85 53.0701 12.9121 53.0256 12.9423C52.5333 13.2768 52.1327 13.6701 51.8022 14.051C52.811 11.4542 53.6858 8.77303 54.263 6.07818C54.3084 5.86624 54.3534 5.60807 54.3604 5.345C54.3639 5.21335 54.3601 5.01722 54.3135 4.79435C54.2704 4.58813 54.1585 4.20143 53.8309 3.84449C53.4469 3.426 52.924 3.22033 52.4105 3.22079C51.9751 3.22117 51.6461 3.36702 51.4811 3.45313C51.1564 3.62255 50.9222 3.85335 50.8115 3.96685C50.3464 4.44364 49.7644 5.3101 49.246 6.1164C48.7267 6.92399 48.1521 7.86377 47.6207 8.73284L47.5014 8.92794C46.9251 9.87018 46.4221 10.6883 46.0707 11.21C34.737 28.0343 24.0773 45.2457 13.5541 62.5268C11.7304 64.4132 9.94453 66.5469 8.54041 68.8283C8.38832 69.0754 8.17356 69.3511 7.88637 69.7198L7.88615 69.7201C7.69274 69.9684 7.46649 70.2588 7.20441 70.6111C6.92185 70.9909 6.61862 71.4207 6.36604 71.8571C6.12843 72.2676 5.85303 72.8216 5.7475 73.4329C5.7362 73.4984 5.7248 73.5769 5.7172 73.6657C4.76179 74.9604 3.81967 76.2919 2.94127 77.6581C1.94142 79.0486 0.957832 80.4658 0 81.908V0ZM0 109.991V110.565C0.348186 109.892 0.691001 109.217 1.02815 108.539C0.690549 109.028 0.348007 109.512 0 109.991ZM119.473 10.7139C119.97 9.7144 120.479 8.72043 121 7.73165V8.58857C120.943 8.66238 120.886 8.73741 120.83 8.81343C120.368 9.43749 119.916 10.0717 119.473 10.7139ZM120.62 22.414C120.746 22.0809 120.873 21.7479 121 21.4152V21.9232C120.872 22.0886 120.746 22.2522 120.62 22.414ZM67.0301 112.669C67.0156 112.684 67.0176 112.68 67.0347 112.665L67.0301 112.669ZM74.3253 101.494C79.6898 93.4175 84.9113 85.2573 90.052 77.0436C86.8925 81.1321 83.79 85.2681 80.6781 89.4166L80.4026 89.7839L79.7372 90.6708C78.1413 93.6354 76.6049 96.622 75.1737 99.6648C74.889 100.27 74.6054 100.88 74.3253 101.494ZM113.124 32.1763C113.183 32.0079 113.241 31.8399 113.3 31.6724C113.216 31.8753 113.132 32.0778 113.048 32.2799L113.124 32.1763ZM115.291 25.7063C115.281 25.9125 115.252 26.111 115.212 26.2966C115.686 24.9795 116.169 23.6664 116.659 22.357C116.433 22.7487 116.207 23.1412 115.981 23.5344L115.852 23.7587C115.852 23.7672 115.853 23.7755 115.854 23.7838C115.854 23.7909 115.855 23.798 115.855 23.805C115.895 24.3444 115.729 24.805 115.618 25.0684C115.529 25.2783 115.417 25.4916 115.291 25.7063ZM109.972 23.1138C110.733 21.2124 111.508 19.3174 112.306 17.4369C112.128 17.6673 111.951 17.8981 111.774 18.1295L111.747 18.1953C111.509 18.7671 111.191 19.3917 110.848 20.01C110.836 20.1093 110.821 20.1841 110.815 20.2149L110.814 20.2193C110.797 20.3047 110.776 20.3898 110.758 20.462C110.721 20.6074 110.67 20.7864 110.617 20.9728C110.414 21.6903 110.199 22.4039 109.972 23.1138ZM64.2843 90.2026C63.2046 92.0097 62.2576 93.6158 61.3439 95.2402C62.1555 94.4089 62.9719 93.5763 63.8031 92.7284C64.2271 92.2959 64.6551 91.8594 65.0882 91.4171C64.5652 91.0752 64.3582 90.5703 64.2843 90.2026ZM63.8142 100.59C63.8142 100.59 63.8179 100.585 63.8237 100.577C63.8168 100.587 63.8142 100.59 63.8142 100.59ZM108.499 16.1991C108.501 16.1721 108.503 16.1564 108.505 16.1543C108.506 16.1523 108.505 16.1634 108.501 16.1899L108.499 16.1991ZM53.4782 6.5766C53.4827 6.57196 53.4803 6.5736 53.4707 6.58342L53.4661 6.58819C53.4719 6.58289 53.4759 6.57894 53.4782 6.5766ZM30.4488 42.2093C35.5895 33.9955 40.8109 25.8354 46.1755 17.7588C45.8954 18.3728 45.6118 18.9828 45.3271 19.5881C43.8959 22.6309 42.3595 25.6175 40.7636 28.5821L40.0982 29.469L39.8227 29.8363C36.7108 33.9847 33.6083 38.1208 30.4488 42.2093ZM7.20127 87.5805C7.25976 87.4129 7.31815 87.2449 7.37638 87.0765L7.45322 86.973C7.3686 87.175 7.28457 87.3775 7.20127 87.5805ZM5.28841 92.9563C5.2488 93.1418 5.21947 93.3404 5.20991 93.5466C5.08342 93.7612 4.97195 93.9746 4.88305 94.1844C4.77145 94.4479 4.60536 94.9084 4.64531 95.4479C4.64644 95.4631 4.64775 95.4785 4.64924 95.4941L4.51999 95.7185L4.51928 95.7197C4.29305 96.1125 4.0672 96.5046 3.84133 96.8959C4.33183 95.5865 4.81445 94.2734 5.28841 92.9563ZM8.19483 101.816C8.99233 99.9354 9.76763 98.0404 10.5289 96.139C10.3022 96.849 10.0867 97.5626 9.88333 98.28C9.83048 98.4665 9.78025 98.6454 9.74308 98.7908C9.72462 98.863 9.7039 98.9481 9.6867 99.0335L9.6858 99.038C9.67957 99.0688 9.66445 99.1435 9.65279 99.2429C9.30974 99.8612 8.99206 100.486 8.75409 101.058L8.72695 101.123C8.55013 101.355 8.37277 101.586 8.19483 101.816ZM59.1569 24.0126C58.2432 25.637 57.2962 27.2431 56.2165 29.0502C56.1426 28.6826 55.9356 28.1776 55.4126 27.8357C55.8457 27.3934 56.2736 26.957 56.6977 26.5244L56.7012 26.5208C57.5312 25.6742 58.3464 24.8428 59.1569 24.0126ZM56.6866 18.6626C56.6866 18.6626 56.6829 18.668 56.6771 18.6759C56.684 18.6661 56.6866 18.6626 56.6866 18.6626ZM11.9997 103.063L12.0013 103.054C11.9985 103.107 11.9911 103.116 11.9997 103.063Z" fill="#1E77B1"/>
  <path d="M330.74 67.0892V48.549H321.148V62.5168C319.183 62.8091 317.344 62.9553 315.63 62.9553C311.367 62.9553 308.065 61.5773 305.724 58.8213C303.425 56.0235 302.275 52.4324 302.275 48.0479C302.275 45.2501 302.819 42.7447 303.906 40.5316C304.992 38.2767 306.581 36.502 308.671 35.2075C310.802 33.8713 313.331 33.2031 316.257 33.2031C320.312 33.2031 323.906 34.2471 327.041 36.3349L329.361 29.445C327.689 28.3593 325.725 27.5241 323.467 26.9395C321.21 26.3132 318.807 26 316.257 26C311.158 26 306.811 27.0022 303.216 29.0065C299.621 31.0109 296.904 33.6834 295.065 37.0239C293.268 40.3645 292.369 44.0183 292.369 47.9853C292.369 51.994 293.226 55.6895 294.94 59.0718C296.695 62.4124 299.308 65.1058 302.777 67.1519C306.288 69.1562 310.572 70.1584 315.63 70.1584C318.472 70.1584 321.21 69.887 323.844 69.3441C326.477 68.7595 328.776 68.0079 330.74 67.0892Z" fill="#1E77B1"/>
  <path d="M148 26.7516H157.906V69.3441H148V26.7516Z" fill="#1E77B1"/>
  <path d="M208.543 26.7516V69.3441L199.703 69.4068L179.013 40.97L179.765 55.1258V69.3441H169.859V26.7516H178.762L199.389 55.0005L198.637 40.5942V26.7516H208.543Z" fill="#1E77B1"/>
  <path d="M238.175 33.8295H250.527V26.7516H216.043V33.8295H228.269V69.3441H238.175V33.8295Z" fill="#1E77B1"/>
  <path d="M286.119 62.3915V69.3441H257.905V26.7516H284.865V33.7042H267.812V43.3502H282.358V50.3028H267.812V62.3915H286.119Z" fill="#1E77B1"/>
  <path d="M368.166 62.3915V69.3441H339.952V26.7516H366.912V33.7042H349.858V43.3502H364.404V50.3028H349.858V62.3915H368.166Z" fill="#1E77B1"/>
  <path d="M378.271 26.7514H416.758V33.704H399.704V43.3502H414.25V50.3028H399.704V62.3913H418.012V69.3439H400.403L387.989 50.9291C392.754 49.0915 395.137 45.2083 395.137 39.2788C395.137 35.0613 393.778 31.9295 391.062 29.8833C388.345 27.7956 384.081 26.7514 378.271 26.7514Z" fill="#1E77B1"/>
  <path d="M371.813 69.3439H388.992L378.334 52.9333H371.813V69.3439Z" fill="#1E77B1"/>
  <path d="M455.422 62.3913V69.3439H427.208V26.7514H437.114V62.3913H455.422Z" fill="#1E77B1"/>
  <path d="M490.568 69.3439V62.3913H472.26V50.3028H486.806V43.3502H472.26V33.704H489.314V26.7514H462.353V69.3439H490.568Z" fill="#1E77B1"/>
  <path d="M378.271 45.9807H371.813V33.704H378.271C380.695 33.704 382.451 34.2053 383.538 35.2074C384.666 36.2095 385.23 37.7544 385.23 39.8426C385.23 41.9303 384.666 43.4752 383.538 44.4773C382.451 45.4794 380.695 45.9807 378.271 45.9807Z" fill="#1E77B1"/>
  <path d="M510.319 69.3197L526.469 26.7514H544.865V33.704H527.811V43.3502H542.357V50.3028H527.811V62.3913H546.119V69.3439H517.905V69.3197H510.319Z" fill="#1E77B1"/>
  <path d="M505.151 60.3241L493.74 26.7514H516.5L505.151 60.3241Z" fill="#1E77B1"/>
  <path d="M594 26.7514V69.3439L585.16 69.4065L564.469 40.9698L565.222 55.1256V69.3439H555.315V26.7514H564.218L584.846 55.0005L584.094 40.5941V26.7514H594Z" fill="#1E77B1"/>
  <path d="M330.74 67.0892V48.549H321.148V62.5168C319.183 62.8091 317.344 62.9553 315.63 62.9553C311.367 62.9553 308.065 61.5773 305.724 58.8213C303.425 56.0235 302.275 52.4324 302.275 48.0479C302.275 45.2501 302.819 42.7447 303.906 40.5316C304.992 38.2767 306.581 36.502 308.671 35.2075C310.802 33.8713 313.331 33.2031 316.257 33.2031C320.312 33.2031 323.906 34.2471 327.041 36.3349L329.361 29.445C327.689 28.3593 325.725 27.5241 323.467 26.9395C321.21 26.3132 318.807 26 316.257 26C311.158 26 306.811 27.0022 303.216 29.0065C299.621 31.0109 296.904 33.6834 295.065 37.0239C293.268 40.3645 292.369 44.0183 292.369 47.9853C292.369 51.994 293.226 55.6895 294.94 59.0718C296.695 62.4124 299.308 65.1058 302.777 67.1519C306.288 69.1562 310.572 70.1584 315.63 70.1584C318.472 70.1584 321.21 69.887 323.844 69.3441C326.477 68.7595 328.776 68.0079 330.74 67.0892Z" fill="#1E77B1"/>
  <path d="M148 26.7516H157.906V69.3441H148V26.7516Z" fill="#1E77B1"/>
  <path d="M208.543 26.7516V69.3441L199.703 69.4068L179.013 40.97L179.765 55.1258V69.3441H169.859V26.7516H178.762L199.389 55.0005L198.637 40.5942V26.7516H208.543Z" fill="#1E77B1"/>
  <path d="M238.175 33.8295H250.527V26.7516H216.043V33.8295H228.269V69.3441H238.175V33.8295Z" fill="#1E77B1"/>
  <path d="M286.119 62.3915V69.3441H257.905V26.7516H284.865V33.7042H267.812V43.3502H282.358V50.3028H267.812V62.3915H286.119Z" fill="#1E77B1"/>
  <path d="M368.166 62.3915V69.3441H339.952V26.7516H366.912V33.7042H349.858V43.3502H364.404V50.3028H349.858V62.3915H368.166Z" fill="#1E77B1"/>
  <path d="M378.271 26.7514H416.758V33.704H399.704V43.3502H414.25V50.3028H399.704V62.3913H418.012V69.3439H400.403L387.989 50.9291C392.754 49.0915 395.137 45.2083 395.137 39.2788C395.137 35.0613 393.778 31.9295 391.062 29.8833C388.345 27.7956 384.081 26.7514 378.271 26.7514Z" fill="#1E77B1"/>
  <path d="M371.813 69.3439H388.992L378.334 52.9333H371.813V69.3439Z" fill="#1E77B1"/>
  <path d="M455.422 62.3913V69.3439H427.208V26.7514H437.114V62.3913H455.422Z" fill="#1E77B1"/>
  <path d="M490.568 69.3439V62.3913H472.26V50.3028H486.806V43.3502H472.26V33.704H489.314V26.7514H462.353V69.3439H490.568Z" fill="#1E77B1"/>
  <path d="M378.271 45.9807H371.813V33.704H378.271C380.695 33.704 382.451 34.2053 383.538 35.2074C384.666 36.2095 385.23 37.7544 385.23 39.8426C385.23 41.9303 384.666 43.4752 383.538 44.4773C382.451 45.4794 380.695 45.9807 378.271 45.9807Z" fill="#1E77B1"/>
  <path d="M510.319 69.3197L526.469 26.7514H544.865V33.704H527.811V43.3502H542.357V50.3028H527.811V62.3913H546.119V69.3439H517.905V69.3197H510.319Z" fill="#1E77B1"/>
  <path d="M505.151 60.3241L493.74 26.7514H516.5L505.151 60.3241Z" fill="#1E77B1"/>
  <path d="M594 26.7514V69.3439L585.16 69.4065L564.469 40.9698L565.222 55.1256V69.3439H555.315V26.7514H564.218L584.846 55.0005L584.094 40.5941V26.7514H594Z" fill="#1E77B1"/>
  <path d="M161.127 80.83H156.078V94.2797H154.049V80.83H149V79.2866H161.127V80.83Z" fill="#1E77B1"/>
  <path d="M169.09 87.6871H166.356V94.2797H164.327V79.2866H169.354C171.06 79.2866 172.353 79.6541 173.235 80.3891C174.117 81.124 174.558 82.1309 174.558 83.4097C174.558 84.4827 174.271 85.3647 173.698 86.0555C173.125 86.7317 172.28 87.18 171.162 87.4005L176.057 94.2797H173.698L169.09 87.6871ZM166.356 86.1437H169.354C171.471 86.1437 172.529 85.2544 172.529 83.4759C172.529 82.638 172.258 81.9839 171.714 81.5135C171.17 81.0432 170.383 80.808 169.354 80.808H166.356V86.1437Z" fill="#1E77B1"/>
  <path d="M187.052 89.6274H181.033L179.335 94.2797H177.307L183.127 79.0882H185.002L190.844 94.2797H188.772L187.052 89.6274ZM186.501 88.1061L184.053 81.4474L181.606 88.1061H186.501Z" fill="#1E77B1"/>
  <path d="M205.867 79.2866V94.2797L204.103 94.3017L195.637 82.5278L195.747 87.7533V94.2797H193.718V79.2866H195.482L203.949 91.0826L203.839 85.2397V79.2866H205.867Z" fill="#1E77B1"/>
  <path d="M214.696 94.6324C213.593 94.6324 212.63 94.5149 211.807 94.2797C210.984 94.0445 210.227 93.6917 209.536 93.2213L210.242 91.722C211.477 92.604 212.961 93.0449 214.696 93.0449C215.695 93.0449 216.526 92.8024 217.187 92.3173C217.849 91.8323 218.179 91.1708 218.179 90.333C218.179 89.8185 218.025 89.3849 217.716 89.0321C217.408 88.6793 217.018 88.4 216.548 88.1943C216.092 87.9738 215.453 87.7165 214.63 87.4226C213.645 87.0698 212.851 86.7464 212.248 86.4524C211.66 86.1584 211.153 85.7469 210.727 85.2177C210.315 84.6738 210.11 83.983 210.11 83.1451C210.11 81.8222 210.58 80.8006 211.521 80.0804C212.461 79.3601 213.667 79 215.137 79C216.901 79 218.437 79.463 219.745 80.3891L219.039 81.8443C217.863 80.9917 216.577 80.5654 215.181 80.5654C214.284 80.5654 213.549 80.7786 212.976 81.2049C212.403 81.6311 212.116 82.2485 212.116 83.0569C212.116 83.5567 212.27 83.9756 212.579 84.3137C212.888 84.6518 213.27 84.9311 213.726 85.1516C214.181 85.3573 214.813 85.6072 215.622 85.9012C216.607 86.254 217.4 86.5847 218.003 86.8934C218.606 87.1874 219.12 87.6136 219.546 88.1722C219.973 88.7161 220.186 89.4069 220.186 90.2448C220.186 91.1414 219.958 91.9205 219.502 92.5819C219.047 93.2434 218.4 93.7505 217.562 94.1033C216.739 94.4561 215.783 94.6324 214.696 94.6324Z" fill="#1E77B1"/>
  <path d="M225.848 80.83V85.9894H231.691V87.5328H225.848V94.2797H223.82V79.2866H232.573V80.83H225.848Z" fill="#1E77B1"/>
  <path d="M241.749 94.6324C240.191 94.6324 238.853 94.287 237.736 93.5962C236.633 92.8906 235.803 91.9425 235.244 90.7519C234.686 89.5613 234.407 88.2457 234.407 86.8052C234.407 85.3647 234.686 84.0565 235.244 82.8806C235.803 81.6899 236.633 80.7492 237.736 80.0583C238.853 79.3528 240.191 79 241.749 79C243.307 79 244.637 79.3528 245.74 80.0583C246.857 80.7492 247.695 81.6899 248.253 82.8806C248.812 84.0565 249.091 85.3573 249.091 86.7831C249.091 88.2384 248.812 89.5613 248.253 90.7519C247.695 91.9425 246.857 92.8906 245.74 93.5962C244.637 94.287 243.307 94.6324 241.749 94.6324ZM241.749 93.0449C242.866 93.0449 243.821 92.7804 244.615 92.2512C245.409 91.7073 246.011 90.965 246.423 90.0243C246.835 89.0689 247.04 87.9958 247.04 86.8052C247.04 85.6146 246.835 84.5489 246.423 83.6082C246.011 82.6674 245.401 81.9251 244.593 81.3812C243.799 80.8374 242.851 80.5654 241.749 80.5654C240.632 80.5654 239.669 80.8374 238.86 81.3812C238.067 81.9251 237.464 82.6674 237.052 83.6082C236.641 84.5489 236.435 85.6146 236.435 86.8052C236.435 87.9958 236.641 89.0689 237.052 90.0243C237.464 90.965 238.067 91.7073 238.86 92.2512C239.669 92.7804 240.632 93.0449 241.749 93.0449Z" fill="#1E77B1"/>
  <path d="M257.521 87.6871H254.787V94.2797H252.759V79.2866H257.786C259.491 79.2866 260.784 79.6541 261.666 80.3891C262.548 81.124 262.989 82.1309 262.989 83.4097C262.989 84.4827 262.702 85.3647 262.129 86.0555C261.556 86.7317 260.711 87.18 259.594 87.4005L264.488 94.2797H262.129L257.521 87.6871ZM254.787 86.1437H257.786C259.902 86.1437 260.961 85.2544 260.961 83.4759C260.961 82.638 260.689 81.9839 260.145 81.5135C259.601 81.0432 258.815 80.808 257.786 80.808H254.787V86.1437Z" fill="#1E77B1"/>
  <path d="M282.186 79.2866V94.2797H280.18V89.0542L280.29 82.5719L275.682 89.451H274.293L269.64 82.5057L269.773 89.0542V94.2797H267.766V79.2866H269.574L274.976 87.3123L280.378 79.2866H282.186Z" fill="#1E77B1"/>
  <path d="M287.102 79.2866H289.13V94.2797H287.102V79.2866Z" fill="#1E77B1"/>
  <path d="M306.205 79.2866V94.2797L304.441 94.3017L295.975 82.5278L296.085 87.7533V94.2797H294.057V79.2866H295.82L304.287 91.0826L304.177 85.2397V79.2866H306.205Z" fill="#1E77B1"/>
  <path d="M322.795 87.2682V93.4198C322.222 93.7726 321.472 94.0592 320.546 94.2797C319.62 94.5002 318.598 94.6104 317.481 94.6104C315.835 94.6104 314.446 94.2503 313.314 93.53C312.182 92.8098 311.33 91.8543 310.756 90.6637C310.198 89.4731 309.919 88.1722 309.919 86.7611C309.919 85.35 310.213 84.0565 310.801 82.8806C311.389 81.7046 312.27 80.7639 313.446 80.0583C314.622 79.3528 316.055 79 317.746 79C318.731 79 319.649 79.1617 320.502 79.4851C321.369 79.7937 322.104 80.2347 322.707 80.808L321.869 82.1529C321.399 81.6679 320.796 81.2857 320.061 81.0064C319.326 80.7124 318.554 80.5654 317.746 80.5654C316.511 80.5654 315.46 80.8374 314.593 81.3812C313.726 81.9251 313.064 82.6674 312.609 83.6082C312.168 84.5489 311.947 85.6072 311.947 86.7831C311.947 87.9885 312.16 89.0615 312.587 90.0022C313.013 90.943 313.638 91.6853 314.461 92.2291C315.299 92.773 316.305 93.0449 317.481 93.0449C318.716 93.0449 319.833 92.898 320.833 92.604V87.2682H322.795Z" fill="#1E77B1"/>
  <path d="M339.594 86.3642C340.637 86.5847 341.431 87.033 341.975 87.7092C342.533 88.3706 342.813 89.1791 342.813 90.1345C342.813 91.3987 342.342 92.4055 341.402 93.1552C340.476 93.9048 339.138 94.2797 337.389 94.2797H332.362V79.2866H337.389C338.932 79.2866 340.108 79.6247 340.917 80.3009C341.74 80.9623 342.151 81.8957 342.151 83.101C342.151 83.8801 341.931 84.5636 341.49 85.1516C341.049 85.7395 340.417 86.1437 339.594 86.3642ZM334.39 80.808V85.6366H337.389C338.256 85.6366 338.925 85.4235 339.395 84.9972C339.88 84.5709 340.123 83.983 340.123 83.2333C340.123 82.4249 339.888 81.8222 339.417 81.4253C338.947 81.0138 338.271 80.808 337.389 80.808H334.39ZM337.389 92.7583C338.477 92.7583 339.314 92.5158 339.902 92.0307C340.49 91.5309 340.784 90.8401 340.784 89.9581C340.784 89.0174 340.49 88.3192 339.902 87.8635C339.329 87.3932 338.491 87.158 337.389 87.158H334.39V92.7583H337.389Z" fill="#1E77B1"/>
  <path d="M352.179 94.6324C350.224 94.6324 348.718 94.0886 347.659 93.0008C346.616 91.9131 346.094 90.4726 346.094 88.6793V79.2866H348.122V88.6573C348.122 90.0537 348.475 91.1341 349.181 91.8984C349.886 92.6628 350.886 93.0449 352.179 93.0449C353.473 93.0449 354.465 92.6628 355.156 91.8984C355.861 91.1341 356.214 90.0537 356.214 88.6573V79.2866H358.243V88.6352C358.243 90.4579 357.721 91.9131 356.677 93.0008C355.634 94.0886 354.134 94.6324 352.179 94.6324Z" fill="#1E77B1"/>
  <path d="M366.839 94.6324C365.737 94.6324 364.774 94.5149 363.951 94.2797C363.128 94.0445 362.371 93.6917 361.68 93.2213L362.386 91.722C363.62 92.604 365.105 93.0449 366.839 93.0449C367.839 93.0449 368.67 92.8024 369.331 92.3173C369.992 91.8323 370.323 91.1708 370.323 90.333C370.323 89.8185 370.169 89.3849 369.86 89.0321C369.551 88.6793 369.162 88.4 368.692 88.1943C368.236 87.9738 367.596 87.7165 366.773 87.4226C365.788 87.0698 364.995 86.7464 364.392 86.4524C363.804 86.1584 363.297 85.7469 362.871 85.2177C362.459 84.6738 362.253 83.983 362.253 83.1451C362.253 81.8222 362.724 80.8006 363.664 80.0804C364.605 79.3601 365.811 79 367.28 79C369.044 79 370.58 79.463 371.889 80.3891L371.183 81.8443C370.007 80.9917 368.721 80.5654 367.325 80.5654C366.428 80.5654 365.693 80.7786 365.12 81.2049C364.546 81.6311 364.26 82.2485 364.26 83.0569C364.26 83.5567 364.414 83.9756 364.723 84.3137C365.031 84.6518 365.414 84.9311 365.869 85.1516C366.325 85.3573 366.957 85.6072 367.766 85.9012C368.75 86.254 369.544 86.5847 370.147 86.8934C370.749 87.1874 371.264 87.6136 371.69 88.1722C372.116 88.7161 372.33 89.4069 372.33 90.2448C372.33 91.1414 372.102 91.9205 371.646 92.5819C371.19 93.2434 370.544 93.7505 369.706 94.1033C368.883 94.4561 367.927 94.6324 366.839 94.6324Z" fill="#1E77B1"/>
  <path d="M375.964 79.2866H377.992V94.2797H375.964V79.2866Z" fill="#1E77B1"/>
  <path d="M395.067 79.2866V94.2797L393.303 94.3017L384.837 82.5278L384.947 87.7533V94.2797H382.918V79.2866H384.682L393.149 91.0826L393.039 85.2397V79.2866H395.067Z" fill="#1E77B1"/>
  <path d="M409.187 92.7583V94.2797H399.993V79.2866H408.746V80.808H402.022V85.5925H407.864V87.1139H402.022V92.7583H409.187Z" fill="#1E77B1"/>
  <path d="M416.793 94.6324C415.691 94.6324 414.728 94.5149 413.905 94.2797C413.082 94.0445 412.325 93.6917 411.634 93.2213L412.339 91.722C413.574 92.604 415.059 93.0449 416.793 93.0449C417.793 93.0449 418.623 92.8024 419.285 92.3173C419.946 91.8323 420.277 91.1708 420.277 90.333C420.277 89.8185 420.123 89.3849 419.814 89.0321C419.505 88.6793 419.116 88.4 418.645 88.1943C418.19 87.9738 417.55 87.7165 416.727 87.4226C415.742 87.0698 414.949 86.7464 414.346 86.4524C413.758 86.1584 413.251 85.7469 412.825 85.2177C412.413 84.6738 412.207 83.983 412.207 83.1451C412.207 81.8222 412.678 80.8006 413.618 80.0804C414.559 79.3601 415.764 79 417.234 79C418.998 79 420.534 79.463 421.842 80.3891L421.137 81.8443C419.961 80.9917 418.675 80.5654 417.278 80.5654C416.382 80.5654 415.647 80.7786 415.074 81.2049C414.5 81.6311 414.214 82.2485 414.214 83.0569C414.214 83.5567 414.368 83.9756 414.677 84.3137C414.985 84.6518 415.367 84.9311 415.823 85.1516C416.279 85.3573 416.911 85.6072 417.719 85.9012C418.704 86.254 419.498 86.5847 420.101 86.8934C420.703 87.1874 421.218 87.6136 421.644 88.1722C422.07 88.7161 422.283 89.4069 422.283 90.2448C422.283 91.1414 422.056 91.9205 421.6 92.5819C421.144 93.2434 420.497 93.7505 419.66 94.1033C418.836 94.4561 417.881 94.6324 416.793 94.6324Z" fill="#1E77B1"/>
  <path d="M429.82 94.6324C428.718 94.6324 427.755 94.5149 426.932 94.2797C426.109 94.0445 425.352 93.6917 424.661 93.2213L425.366 91.722C426.601 92.604 428.086 93.0449 429.82 93.0449C430.82 93.0449 431.65 92.8024 432.312 92.3173C432.973 91.8323 433.304 91.1708 433.304 90.333C433.304 89.8185 433.149 89.3849 432.841 89.0321C432.532 88.6793 432.142 88.4 431.672 88.1943C431.216 87.9738 430.577 87.7165 429.754 87.4226C428.769 87.0698 427.975 86.7464 427.373 86.4524C426.785 86.1584 426.278 85.7469 425.851 85.2177C425.44 84.6738 425.234 83.983 425.234 83.1451C425.234 81.8222 425.704 80.8006 426.645 80.0804C427.586 79.3601 428.791 79 430.261 79C432.025 79 433.561 79.463 434.869 80.3891L434.164 81.8443C432.988 80.9917 431.702 80.5654 430.305 80.5654C429.408 80.5654 428.674 80.7786 428.1 81.2049C427.527 81.6311 427.24 82.2485 427.24 83.0569C427.24 83.5567 427.395 83.9756 427.703 84.3137C428.012 84.6518 428.394 84.9311 428.85 85.1516C429.306 85.3573 429.938 85.6072 430.746 85.9012C431.731 86.254 432.525 86.5847 433.127 86.8934C433.73 87.1874 434.244 87.6136 434.671 88.1722C435.097 88.7161 435.31 89.4069 435.31 90.2448C435.31 91.1414 435.082 91.9205 434.627 92.5819C434.171 93.2434 433.524 93.7505 432.686 94.1033C431.863 94.4561 430.908 94.6324 429.82 94.6324Z" fill="#1E77B1"/>
  <path d="M454.885 80.83H449.836V94.2797H447.808V80.83H442.759V79.2866H454.885V80.83Z" fill="#1E77B1"/>
  <path d="M467.28 92.7583V94.2797H458.086V79.2866H466.839V80.808H460.114V85.5925H465.957V87.1139H460.114V92.7583H467.28Z" fill="#1E77B1"/>
  <path d="M477.334 94.6104C475.687 94.6104 474.298 94.2503 473.166 93.53C472.035 92.8098 471.182 91.8543 470.609 90.6637C470.05 89.4731 469.771 88.1722 469.771 86.7611C469.771 85.35 470.065 84.0565 470.653 82.8806C471.241 81.7046 472.123 80.7639 473.299 80.0583C474.475 79.3528 475.908 79 477.598 79C478.583 79 479.502 79.1617 480.354 79.4851C481.221 79.7937 481.956 80.2347 482.559 80.808L481.721 82.1529C481.251 81.6679 480.648 81.2857 479.913 81.0064C479.178 80.7124 478.407 80.5654 477.598 80.5654C476.363 80.5654 475.312 80.8374 474.445 81.3812C473.578 81.9251 472.916 82.6674 472.461 83.6082C472.02 84.5489 471.799 85.6072 471.799 86.7831C471.799 87.9885 472.012 89.0615 472.439 90.0022C472.865 90.943 473.49 91.6853 474.313 92.2291C475.151 92.773 476.158 93.0449 477.334 93.0449C479.142 93.0449 480.707 92.3541 482.03 90.9724L482.78 92.2953C482.118 92.9715 481.324 93.53 480.398 93.971C479.472 94.3973 478.451 94.6104 477.334 94.6104Z" fill="#1E77B1"/>
  <path d="M498.42 79.2866V94.2797H496.391V87.1139H488.3V94.2797H486.271V79.2866H488.3V85.5705H496.391V79.2866H498.42Z" fill="#1E77B1"/>
  <path d="M515.495 79.2866V94.2797L513.731 94.3017L505.264 82.5278L505.374 87.7533V94.2797H503.346V79.2866H505.11L513.576 91.0826L513.466 85.2397V79.2866H515.495Z" fill="#1E77B1"/>
  <path d="M526.55 94.6324C524.992 94.6324 523.654 94.287 522.537 93.5962C521.435 92.8906 520.604 91.9425 520.046 90.7519C519.487 89.5613 519.208 88.2457 519.208 86.8052C519.208 85.3647 519.487 84.0565 520.046 82.8806C520.604 81.6899 521.435 80.7492 522.537 80.0583C523.654 79.3528 524.992 79 526.55 79C528.108 79 529.438 79.3528 530.541 80.0583C531.658 80.7492 532.496 81.6899 533.054 82.8806C533.613 84.0565 533.892 85.3573 533.892 86.7831C533.892 88.2384 533.613 89.5613 533.054 90.7519C532.496 91.9425 531.658 92.8906 530.541 93.5962C529.438 94.287 528.108 94.6324 526.55 94.6324ZM526.55 93.0449C527.667 93.0449 528.623 92.7804 529.416 92.2512C530.21 91.7073 530.813 90.965 531.224 90.0243C531.636 89.0689 531.842 87.9958 531.842 86.8052C531.842 85.6146 531.636 84.5489 531.224 83.6082C530.813 82.6674 530.203 81.9251 529.394 81.3812C528.601 80.8374 527.653 80.5654 526.55 80.5654C525.433 80.5654 524.47 80.8374 523.662 81.3812C522.868 81.9251 522.265 82.6674 521.854 83.6082C521.442 84.5489 521.236 85.6146 521.236 86.8052C521.236 87.9958 521.442 89.0689 521.854 90.0243C522.265 90.965 522.868 91.7073 523.662 92.2512C524.47 92.7804 525.433 93.0449 526.55 93.0449Z" fill="#1E77B1"/>
  <path d="M546.754 92.7583V94.2797H537.56V79.2866H539.588V92.7583H546.754Z" fill="#1E77B1"/>
  <path d="M556.027 94.6324C554.469 94.6324 553.131 94.287 552.014 93.5962C550.912 92.8906 550.081 91.9425 549.523 90.7519C548.964 89.5613 548.685 88.2457 548.685 86.8052C548.685 85.3647 548.964 84.0565 549.523 82.8806C550.081 81.6899 550.912 80.7492 552.014 80.0583C553.131 79.3528 554.469 79 556.027 79C557.585 79 558.916 79.3528 560.018 80.0583C561.135 80.7492 561.973 81.6899 562.532 82.8806C563.09 84.0565 563.369 85.3573 563.369 86.7831C563.369 88.2384 563.09 89.5613 562.532 90.7519C561.973 91.9425 561.135 92.8906 560.018 93.5962C558.916 94.287 557.585 94.6324 556.027 94.6324ZM556.027 93.0449C557.144 93.0449 558.1 92.7804 558.893 92.2512C559.687 91.7073 560.29 90.965 560.701 90.0243C561.113 89.0689 561.319 87.9958 561.319 86.8052C561.319 85.6146 561.113 84.5489 560.701 83.6082C560.29 82.6674 559.68 81.9251 558.871 81.3812C558.078 80.8374 557.13 80.5654 556.027 80.5654C554.91 80.5654 553.947 80.8374 553.139 81.3812C552.345 81.9251 551.742 82.6674 551.331 83.6082C550.919 84.5489 550.713 85.6146 550.713 86.8052C550.713 87.9958 550.919 89.0689 551.331 90.0243C551.742 90.965 552.345 91.7073 553.139 92.2512C553.947 92.7804 554.91 93.0449 556.027 93.0449Z" fill="#1E77B1"/>
  <path d="M578.701 87.2682V93.4198C578.127 93.7726 577.378 94.0592 576.452 94.2797C575.526 94.5002 574.504 94.6104 573.387 94.6104C571.741 94.6104 570.352 94.2503 569.22 93.53C568.088 92.8098 567.235 91.8543 566.662 90.6637C566.104 89.4731 565.824 88.1722 565.824 86.7611C565.824 85.35 566.118 84.0565 566.706 82.8806C567.294 81.7046 568.176 80.7639 569.352 80.0583C570.528 79.3528 571.961 79 573.652 79C574.636 79 575.555 79.1617 576.408 79.4851C577.275 79.7937 578.01 80.2347 578.612 80.808L577.775 82.1529C577.304 81.6679 576.702 81.2857 575.967 81.0064C575.232 80.7124 574.46 80.5654 573.652 80.5654C572.417 80.5654 571.366 80.8374 570.499 81.3812C569.631 81.9251 568.97 82.6674 568.514 83.6082C568.073 84.5489 567.853 85.6072 567.853 86.7831C567.853 87.9885 568.066 89.0615 568.492 90.0022C568.918 90.943 569.543 91.6853 570.366 92.2291C571.204 92.773 572.211 93.0449 573.387 93.0449C574.622 93.0449 575.739 92.898 576.738 92.604V87.2682H578.701Z" fill="#1E77B1"/>
  <path d="M588.444 88.1943V94.2797H586.415V88.2163L580.881 79.2866H583.108L587.452 86.6068L591.795 79.2866H594L588.444 88.1943Z" fill="#1E77B1"/>
</svg>
